<?xml version="1.0" encoding="UTF-8"?>
<svg id="Layer_1" data-name="Layer 1" xmlns="http://www.w3.org/2000/svg" viewBox="0 0 1410 66.64">
  <defs>
    <style>
      .cls-1 {
        fill: #794;
      }

      .cls-2 {
        fill: #ef6b3a;
      }

      .cls-3 {
        fill: #fbab32;
      }

      .cls-4 {
        fill: #fdd02d;
      }

      .cls-5 {
        fill: #809d4e;
      }

      .cls-6 {
        fill: #f68937;
      }

      .cls-7 {
        fill: #70943e;
      }

      .cls-8 {
        fill: #90b150;
      }

      .cls-9 {
        fill: #98b757;
      }
    </style>
  </defs>
  <path class="cls-2" d="M1410,25.82v10c-10.07.13-9.19-9.48,0-10Z"/>
  <path class="cls-2" d="M0,25.82c7.84.57,8.66,11.87,0,10v-10Z"/>
  <path class="cls-4" d="M1167,36.82c-.46.15-6.61,1.95-7,2-6.33.85-12.83-.49-17.49-5.01-5.91-5.72-1.63-5.27-1.75-9.32-.14-4.83-3.94-5.4,1.71-11.7,6.04-6.75,9.62-2.88,16.24-3.26,2.82-.16,4.49-2.54,9.73-1.64,11.6,1.98,14.18,11.97,9.8,21.68-1.9,4.21-7.28,5.96-11.25,7.25ZM1156.72,18.02c-5.6,1.78-1.17,9.49,4.24,7.3s2.72-9.52-4.24-7.3Z"/>
  <path class="cls-4" d="M745,28.82c-17.05-3.56-12.4-24.49-2.05-27.55,5.16-1.53,21.75-2.43,25.77,1.83,1.52,1.6,5.59,9.58,5.13,12-.24,1.25-4.5,11.76-5.49,12.58-3.56,2.96-10.82,2.28-15.36,2.14-1.81-.06-6.23-.63-8-1ZM753.76,9.98c-6.81,1.19-4,9.9,3.23,6.33,3.91-1.93,1.7-7.19-3.23-6.33Z"/>
  <path class="cls-4" d="M216,35.82c-21.1-2.3-14.75-26.78-.45-28.05.91-.08,12.08.09,12.71.2.73.14,12.48,7.14,12.74,7.84,2.52,6.68-2.33,11.02-4,17-.33.03-.68-.06-1,0-5.09.94-7,2.51-13,3-1.99.16-5.05.21-7,0ZM217.65,17.93c-2.75,1.07-3.29,7.26,2.74,6.87,8.52-.55,3.39-9.26-2.74-6.87Z"/>
  <path class="cls-7" d="M559,37.82c2.71.38,7.78,2.9,7-1,1.95,1.03,3.91,2.29,6,3l-2,4c-6.01-1.6-17.27-2.42-22,2l-9.99.99c-1.08-2.63,5.72-3.27,2.03-5.53-2.77-1.69-6.34-.06-9.03.53-1.73.38-1.93.13-4,1-36.36,1.21-54.2,10.48-95,5l1-4c17.26,2.48,38.68,3.33,56,1,2.09-.28,5.12.86,6-2,9.81,1.14,31.23-3.76,44-4,.1,0,1.56,1.98,2.01.49.37-2.32-.66-1.16-2.01-1.49-2.17-.53-5.69-1.76-7-2-.2-1.2.29-2.98,0-4,8.7,3.06,17.89,4.73,27,6Z"/>
  <path class="cls-7" d="M702,30.82c1.24,3.46,2.85,5.64,3.74,9.76.46,2.14.67,13.62,1.26,14.25,1.08,1.15,5.52-2.51,7-3,1.04-.35,1.95-.61,3-1,6.08-2.26,9.02-2.67,14.91-6.59,3.38-2.25,12.03-11.1,13.09-11.41.69-.2,2.98.93,4,1-.28.35-4.29,5.78-4,5.99,1.47,1.06,21.04-.98,24-1.99l1,1c-8.01,2.38-12.28,3.47-21,4-2.07-2.39-4.85-.74-7,0-3.41,1.18-9.53,6.34-13.98,8.52-3.89,1.91-8.1,2.85-12.02,4.48-2.58,1.07-3.72,2.06,0,2,10.12-.17,20.85-1.3,31-2v4c-13.37,1.11-28.2-.46-40.5,1-3.67.44-19.59,6.92-21.5,4.99-5.57-5.63,16.38-6.44,18-9.99v-1c.46-2.69-1.03-5.03-1-7,0-.22,1.15-1.44,1-3-.1-.97.14-2.05,0-3l-1-1c-.79-4.08-1.01-6.14-3-10h3Z"/>
  <path class="cls-8" d="M333,27.82c1.89-2.44,3.05-7.47,6.47-11.03,10.4-10.87,41.2-17.71,25.04,4.04-4.59,6.17-11.43,8.76-18.5,11-1.21-1.43-5.74-1.82-6-2.01-.46-.34,3.06-2.94,1.99-3.98-1.17-1.15-6.53,4.66-8.99,1.99Z"/>
  <path class="cls-5" d="M605,47.82c.89-.27,2.07-1.51,3-2,4.43,4.41,7.09,4.91,13,2-.17.87.25,2.36,0,3-.16.42-3.67,1.66-2,2.99.73.58,15.78,4.2,17.96,4.55,6.25,1,28.2.72,30.04,1.46v3c-6.5,6.26-50.3-4.83-59.99-7.51-12.29-3.4-14.31-8.12-28.01-5.49-3.82.73-7.27,1.98-10.99,3-.19-3.5,5.76-2.08,6.98-5.51.81-2.28-1.62-1.21-1.99-1.48-.65-.48-2.51-1.87-3-2l2-4c3.5,1.18,29.13,8.79,30.83,8.84,1.79.05,1.8-.73,2.17-.84Z"/>
  <path class="cls-8" d="M846,31.82c-3.43-3.85-8.38.54-4.49-5.98-2.04,2.95-7.38,2.84-9.51,3.98-1.15-17.58,50.04-36.37,32.41-10.09-4.73,7.05-10.84,9.47-18.41,12.09Z"/>
  <path class="cls-7" d="M1181,49.82c-2.91-.51-3.46.08-3,3-7.15-2.46-6.71-2.1-14-2-.62-.59-.8-2.85-1-3,9.78.65.06-5.66-3-9,.39-.05,6.54-1.85,7-2,1.01,4.53,4.8,7.17,8,10,.31.27-.61,1.66.51,2.01,2.33.72,1.14-1.4,1.49-2.01,5.31-9.35,9.23-25.1,21.77-26.81,15.33-2.09,2.85,16.28-4.4,20.68-3.98,2.42-13.43,2.23-13.37,9.13Z"/>
  <path class="cls-8" d="M103,29.82c-3.39,3.58-8.95-3.29-10.99-1.99-2.23,1.42,4.06,2.47,1.99,3.98-1.1.81-6.56.15-8,2.01-7.65-2.36-19.28-9.88-19.83-18.76-.44-7.05,19.25-2.17,23.87.23,8.45,4.38,8.05,8.8,12.97,14.53Z"/>
  <path class="cls-9" d="M103,39.82c8.47,1.5.52,5.77,2.01,6.99.33.27,6.05-.92,7.99,1.01-7.54,6.6-9.06,11.33-20.63,13.87-26.97,5.92-18.39-10.15-3.37-17.87,4.46-2.3,9.21-1.16,9-4,1.58.07,3.58-.25,5,0ZM103.99,45.83c-.57-.54-12.72,5.61-13.99,6.98,1.66.37,16.09-4.99,13.99-6.98Z"/>
  <path class="cls-9" d="M1278,31.82c-2.61-.56-2.79-4.81-3.01-5-.82-.69-5.09,3.27-6.99,2,.51-.84.67-3.97,2.19-6.32,11.28-17.51,44.43-23.48,25.79-.21-6.17,7.7-9.85,6.86-17.97,9.53ZM1279.01,24.82c1.26.99,3.93-2.06,2.98-2.99-.18-.18-4.72,1.63-2.98,2.99Z"/>
  <path class="cls-9" d="M841,39.82c.1.03-.25,1.64.73,1.96,5.89,1.95,10.34,3.17,14.79,8.02,14.84,16.19-2.06,19.31-14.85,10.85-2.84-1.88-11.32-11.78-10.67-14.83.39-1.82,7.43-6.83,10-6Z"/>
  <path class="cls-2" d="M389,24.82c1.16-1.46.94-4.85,2.54-6.96,7.81-10.29,30.92-14.88,23.52,3.52-2.34,5.82-8.48,8.99-14.57,9.45-4.97.38-7.77-1.98-9.49-2.01l-2-4Z"/>
  <path class="cls-8" d="M1305,43.82c1.3,1.52,1.83,4.1,5.99,3.99l-4.99-4.98c4.28.49,9.95-.72,14-.01,6.9,1.2,21.72,18.72,7.5,19.08-11.79.3-26.18-7.21-29.5-19.08,1.82.67,4.97.78,7,1ZM1312.5,47.82v1l.5-.5-.5-.5Z"/>
  <path class="cls-8" d="M339,40.82c25.03,3.01,36.11,34.23,7.01,21.49-8.09-3.54-8.42-8.12-13.01-13.49,4.31,1.31,2.44-2.8,3.51-3.02,2.66-.54,5.71,3.12,8.48,3.01l-7.99-7.99c.66.03,1.35-.08,2,0Z"/>
  <path class="cls-1" d="M1355,39.82v1c15.98,3.28,31.64-.15,47-4h1c-1.53,3.51-1.73,2.99-5.03,4.48-20.64,9.28-55.87,3.53-77.97.52-5.84-.79-10.18-2.67-17-1-.52-1.23.73-4.84,1-5,2.65-1.58,41.1,6.13,51,4Z"/>
  <path class="cls-1" d="M832,29.82c2.13-1.14,7.47-1.03,9.51-3.98-3.89,6.52,1.06,2.12,4.49,5.98-.53.18-1.47-.18-2,0l-1,1c-5.32,1.73-7.35.83-13,4-.61.34-2.37-.78-1.99.99.92.34,1.7-.96,1.99-.99,3.05-.32,5.95-.53,9-1l3.99,1.01-1.99,1.99v1c-2.57-.83-9.61,4.18-10,6-14.31-3.4-29.49,4.64-43.95,7.55-2.53.51-5.12.06-7.05.45v-3c9.1-2.03,20.49-4.94,28.27-10.01.51-.33,1.41-4.14,2.74-1.47.84,1.67-3.44,3.78,5.7.7,6.5-2.19,10.04-7.41,15.29-10.21Z"/>
  <path class="cls-8" d="M1021,25.82c-3.05,6.67-9.1-1.84-13.99-1.99-1.52,3.19,8.57,3.39,5.99,5.98-1.07,1.07-8.35,1.08-10,3.02-18.82-5.92-26-25.54,3.43-17.93,7.4,1.91,9.77,6.12,14.57,10.93Z"/>
  <path class="cls-6" d="M1087,29.82c-2.34-.26-4.09.42-4,3-5.44-2.05-10.16.48-15.99-6.51-2.88-3.45-6.2-13.83-1.85-16.32,1.9-1.09,14.46,1.77,16.89,3.28,8.67,5.4,4.51,10.36,4.95,16.55ZM1066.99,12.83c-1.09-1.09-3.08.9-1.99,1.99s3.08-.9,1.99-1.99ZM1082.99,27.82c.4-1.95-1.39-2.8-2.5-3.98-.29,1.28,1.2,3.73,2.5,3.98Z"/>
  <path class="cls-7" d="M1323,26.82c-.3,1.34-.68,2.66-1,4-5.56.14-13.08,4.56-19.5,2.99l1.5,2.01c-.27.16-1.52,3.77-1,5,.3.71,1.45,2.36,2,3-2.03-.22-5.18-.33-7-1-1.53-.56-3.21-2.71-4-3l-1-1c-6.45-2.28-20.06.44-27,2-.32.07-.69-.08-1,0-1.96.51-4.03-.49-4,3-4.08-.57-10.08.73-14,2v-5c.31-.27.75-.69,1-1h1c.64-.08,1.38.11,2,0,2.48-.45,10.02-3.58,12-5,.68.3,1.32.69,2,1,.27.12.63.99,1,1,3.33.05,9.24-2.48,12.6-2.9,15.04-1.88,29.67-3.03,44.4-7.1Z"/>
  <path class="cls-2" d="M1322,30.82c.32-1.34.7-2.66,1-4,2.23-10.06,13.54-16.33,23.28-13.77,6.03,1.59,2.42,12.81-.91,15.63-8.79,7.44-15.24,1.93-23.36,2.14Z"/>
  <path class="cls-7" d="M244,35.82c-.45.21-6.59,6.4-7,7-2.14,3.15.87.98,1,1,5.26.74,10.74.5,16,0v2c-14.91,2.12-28.79,1.13-42,10-.38.26-6.01,1.31,0,2,6.44.73,22.05-.37,29-1v4c-11.24.61-27.84-1.74-38,0,.67-1.7-1.58-2.89-3-3v-1c4.43,1.31,3.77-1.86,4-2,4.56-2.66,8.69-4.18,11-10,1.75-.36,1.91,0,3,1,.5.46-1.26,1.93,1.43,1.96,5.26.06,14.45-6.05,16.57-10.96.45-1.05,1.96-1.45,0-3v-1c.32-.06.67.03,1,0,3.71-.29,4.41-1.76,7,3ZM223.99,58.83c-2.68.6-8.14-1.34-9.99.98,2.68-.6,8.14,1.34,9.99-.98Z"/>
  <path class="cls-2" d="M892,29.82c-.39-1.62-1.03-3.3-1-5,.17-10.35,13.66-14.89,22.47-12.96,6.97,1.52,1.04,14.36-3.75,17.17-8.62,5.06-10.91,1.14-17.71.79Z"/>
  <path class="cls-5" d="M314,34.82c-3.14,7.69-7.46,7.47,2,6l3,4c-27,4.81-48.42,14.4-78,16v-4c12.48-1.13,55.51-7.59,64.5-14,1.28-.91,6.05-6.72,6.5-8h2Z"/>
  <path class="cls-2" d="M244,35.82c-2.59-4.76-3.29-3.29-7-3,1.67-5.98,6.52-10.32,4-17,17.06-12.41,28.37,10.36,9.57,19.07-2.24,1.04-5.72.54-6.57.93Z"/>
  <path class="cls-9" d="M1023,43.82c.54.09,3.19,2.92,6,3,3.86.11,8.6-3.7,13-3h1c-1.32,1.52-2.85,6.21-5.01,8.49-4.85,5.14-16.38,10.12-23.51,9.61-13.83-.99,2.91-19.05,8.52-18.1Z"/>
  <path class="cls-9" d="M573,45.82c.37.28,2.8-.8,1.99,1.48-1.22,3.43-7.18,2.01-6.98,5.51,3.72-1.02,7.17-2.26,10.99-3,.75,7.91-11.14,14.67-17.74,15.76-25.21,4.17-1.06-23.11,11.74-19.76ZM566.99,52.83c-1.07-.72-2.74.48-1.99.98,1.07.72,2.74-.48,1.99-.98Z"/>
  <path class="cls-1" d="M872,33.82c-.56,3.01,1.53,1.94,3.45,2,23.39.81,43.74,7.89,66.55,10v4c-18.57-1.71-36.58-6.73-55-9-3.83-.47-14.18-4.14-14,3-.41-.21-1.51.21-2,0-2.02-.86-3.79-1.29-6-1-.67-.74-1.48-2.65-2-3,2.17-1.1,5.22-4.71,9-6Z"/>
  <path class="cls-1" d="M89,43.82c-23.9,1.1-52.94,6.77-76.02-1.48-.78-.28-10.07-3.8-7.97-5.52,1.17-.95,24.57,5.56,29.52,5.97,5.44.45,11.04-.25,16.49,0l-1.01-.98c-.02-1.42,1.12-.89,2-1,5.8-.74,13.76,1.37,20.54,1.04,7.4-.37,15.03-2.54,22.46-3.04.56,1.27,1.88.95,3,1,.21,2.84-4.54,1.7-9,4Z"/>
  <path class="cls-2" d="M1065,47.82c.25.15.38,4.18,4,3-.86,2.07.68,5.35-2.15,9.35-4.27,6.02-23.23,10.3-20.85-1.35l1-1c2.51-6.76,10.69-14.53,18-10Z"/>
  <path class="cls-9" d="M872,51.82c1-4.13-1.93-2.76-2-3-.33-1.05.81-3.71,1-5,.49.21,1.59-.21,2,0,.12.06.06,1.87,1.06,2.4,6.12,3.24,5.33,4.65,11.68-.15,1.74-1.32,2.63-1.68,2.26-4.25,13.94,8.41,19.38,22.17-4.06,17.56-5.64-1.11-8.19-4.16-11.94-7.56Z"/>
  <path class="cls-8" d="M531,41.82c2.69-.59,6.26-2.22,9.03-.53,3.7,2.26-3.11,2.89-2.03,5.53l9.99-.99c-10.36,9.67-3.5,11.22-22,15l-3-15c1.11-.76,3.01-2.59,4-3,1.35-.05,3.22.49,4-1ZM534.99,47.83c-1.07-.72-2.74.48-1.99.98,1.07.72,2.74-.48,1.99-.98Z"/>
  <path class="cls-9" d="M391,43.82c5.77-.12,13.8,12.93,10.05,15.56-5.77,4.04-21.69-1.89-27.05-6.56,2.99.38,3.23-4.57,5.64-4.9,1.31-.18,3.04,2.51,4.34,1.9.44-.21,1.65-5.88,7.02-5.99Z"/>
  <path class="cls-2" d="M161,22.82c-3.03,7.68,3.48,5.98,8,7-1.74,5.35-1.94,7.04-8,9-.37.12-3.79.98-4,1-7.71.67-13.27-3.45-15-11,1.9-.67,1.93,1.84,2.71,1.96,12.82,1.95,2.23-5.43,7.29-8.96,3.03-2.11,6.21-.66,9,1Z"/>
  <path class="cls-8" d="M528,27.82c-.23,5.49-7.87-1.51-9.99-.99l6.99,7.99c-9.37-1.55-8.91,1.27-19-4-.12-6.25,7.13-9.27,6-16,11.37,3.18,10.28,4.63,16,13Z"/>
  <path class="cls-4" d="M1212,43.82c-.06-.99.09-2.01,0-3-.59-6.48.06-13.05-.06-19.55,2.6-.72,6.3-1.1,8.63.48.59.4,6.36,11.94,6.41,12.65.52,8.59-11.09,7.43-14.98,9.43Z"/>
  <path class="cls-1" d="M1181,49.82c.91.16,8.81,3.25,11,4,.16.06-1.08,1.07,2,2,5.71,1.72,11.74,2.9,17.64,3.86,2.99.49,10.29-1.28,10.41,2.63.23,7.93-22.17-1.02-26.56-1.48-7.73-.8-15.41,1.29-22.48.98l1-4c3.22-.05,6.9.31,10,0,7.24-.73,2.13-1.17,0-2-2.25-.88-4.82-2.59-6-3-.46-2.92.09-3.51,3-3Z"/>
  <path class="cls-9" d="M1047,25.82c-2.87.46-7.87-1.54-7,2-3.98-2.36-8.83-3.89-11.2-8.3-8.05-14.94,6.77-13.85,13.75-5.75,3.94,4.57,2.6,7.99,4.46,12.04Z"/>
  <path class="cls-2" d="M643,23.82c.07.71,1.01,1.85,1,3-.02,4.93-3.44,9.71-1,16-4.55.71-4.35.83-9,0-.7-.13-2.93-3.07-6-2-.65-.63-.74-2.74-1-3,10.79-2.4.49-11.11,7-14,3.06-1.35,5.91.25,9,0Z"/>
  <path class="cls-9" d="M512,14.82c1.13,6.73-6.12,9.75-6,16-17.37-9.07-20-23.28,6-16Z"/>
  <path class="cls-1" d="M103,29.82c4.13,4.82,10.85,6.72,17,8v5c-1.91.25-5.48,3.67-7,5-1.94-1.93-7.66-.73-7.99-1.01-1.48-1.22,6.47-5.49-2.01-6.99l1-1c.66,0,1.34-.03,2,0,.23.01,4.12,2.66,3.01-.49-.4-1.14-2.14-.22-3.01-.51-4.71-1.6-8.41-2-13-3h-1c-2.34-.57-3.32-.17-6-1,1.44-1.86,6.9-1.2,8-2.01,2.07-1.52-4.22-2.56-1.99-3.98,2.04-1.3,7.6,5.57,10.99,1.99Z"/>
  <path class="cls-6" d="M608,14.82c5.91-1.72,8.65,7.49,7.96,12.41-.84,6.01-7.27,7.17-11.96,8.59-.3.09-.69-.08-1,0-.23-5.93-2.8-10.08,0-16,.67-1.42,3.59-4.59,5-5Z"/>
  <path class="cls-1" d="M1146,55.82v3l-1,1c-17.72-2.34-33.66-9.85-50-13l1-4c7.41,4.11,40.48,11.56,50,13Z"/>
  <path class="cls-4" d="M684,36.82c-.03.22-3.18,1.8-2,4-3.76.29-14.59,6.09-15.91-3.56-2.12-15.48,19.6-12.47,17.91-.44ZM675.52,33.83c-2.26.43-1.61,4.47.97,3.99,2.26-.43,1.61-4.47-.97-3.99Z"/>
  <path class="cls-2" d="M592,18.82c3.37-4.52,7.8-1.06,11,1-2.8,5.92-.23,10.07,0,16-2.91.73-3.78,1.98-4,2-5.72.54-13.72-.59-16.31-6.36-.89-1.98.37-2.52.31-2.64,1.7.62,13.51,5.56,13.99,4.99,4-4.62-8.88-9.78-4.99-14.99Z"/>
  <path class="cls-9" d="M131,37.82c-.19-.05-1.18.67-4,0-5.66-2.65-23.34-25.17-8.5-25.11,12.55.04,2.14,19.85,12.5,25.11Z"/>
  <path class="cls-8" d="M547,11.82c12.71,5.49,10.3,8.71,13,20l-4,2c-.61-.41-1.36-.64-2-1-1.12-2.85-.83-4.06-4-2-4.46-3.08-3.28-1.34-7-6,4.61-3.15,4.13-7.84,4-13Z"/>
  <path class="cls-3" d="M608,14.82c-1.41.41-4.33,3.58-5,5-3.2-2.06-7.63-5.52-11-1-2.74-1.68-3.13-3.98-7-4-.15-10.76,5.73-5.41,10.29-6.2,6.23-1.09,12.67-7.97,12.71,6.2Z"/>
  <path class="cls-8" d="M770,38.82l-1-1c10.26-3.48,9.11-7.9,12.77-14.73,4.35-8.14,15.52-6.16,14.26,2.17-.98,6.48-8.2,4.66-10.31,5.78-7.45,3.96-5.85,4.86-15.71,7.79Z"/>
  <path class="cls-7" d="M888,26.82l2,3c-.66,0-1.35-.06-2,0l-1,1c-3.84.55-11.55,1.82-15,3-3.78,1.29-6.83,4.9-9,6-5.41-3.6-15.6.13-22-1l1.99-1.99-3.99-1.01c14.39-2.23,35.93-3.75,49-9Z"/>
  <path class="cls-7" d="M1028,37.82l1,2c-2.26.18-2.87.78-4,1-15.77,3.02-29.44,7.37-46,9h-2c-2.43.2-5.1.92-7,1v-4c4.39-.15,11.8-.5,16-1,2.87-.34,3.38,1.14,3-3,11.71,2.25,26.79-4.27,39-5Z"/>
  <path class="cls-6" d="M585,14.82c3.87.02,4.26,2.32,7,4-3.89,5.21,8.99,10.38,4.99,14.99-.49.56-12.3-4.37-13.99-4.99-1.94-4.18-8.88-14.06,2-14Z"/>
  <path class="cls-7" d="M161,38.82c1.24,1.85,1.46,7.99,2,9-.2.37-.97.8-1,1,.15-.21-.07-1.39-.01-2-.75-.26-.92,1.01-.99,1-.33-.03-.68.05-1,0-1-1.56-2.15-6-3-8,.21-.02,3.63-.88,4-1Z"/>
  <path class="cls-7" d="M127,37.82c2.82.67,3.81-.05,4,0,8.97,2.22,19.48,8.49,29,10,.35.55.05.91,1,1,.3.03.97.04,1,0-.11.8-.18,3.47,0,4-8.64-3.25-17.15-5.04-26-7l-1-1c-4.49-.89-10.51-2.58-15-2v-5c1.99.41,5.1-.45,7,0Z"/>
  <path class="cls-6" d="M627,18.82c3.9-.45,6.85.81,7,5-6.51,2.89,3.79,11.6-7,14-1.16-1.16-4.35-1.45-5.51-5.07-1-3.11-1.5-9.78,1.01-11.94,1.33-1.14,2.76-1.79,4.5-1.99Z"/>
  <path class="cls-4" d="M193,37.82c-3.6-1.16-3.75,2.87-4,3-14.09,7.38-17.73-14.8-3.56-13.95,8.47.51,6.32,6.9,7.56,10.95ZM183.01,37.82c1.93,2,6.17-3.29,2.48-3.99-2.13-.4-3.21,3.23-2.48,3.99Z"/>
  <path class="cls-7" d="M1050,34.82c.66.03,1.34.03,2,0,1.12-.06,2.43.28,3-1,4.27,1.39,9.53,2.05,14,3v3c-8.2-1.48-19.9-3.01-26,4h-1c.11-.96-.17-2.1,0-3,.61-3.25-.98-2.56-6-3l-5.99-3.99c6.73-.66,13.34.74,19.99.99Z"/>
  <path class="cls-9" d="M526,60.82c-3,.61-12.06,4.74-13.89-.68s7.47-11.96,10.89-14.32l3,15Z"/>
  <path class="cls-8" d="M389,40.82l2,3c-5.38.11-6.59,5.79-7.02,5.99-1.3.62-3.02-2.08-4.34-1.9-2.41.33-2.65,5.28-5.64,4.9-3.32-2.89-5.69-5.57-7-10,.77.26,8.09,2.06,8.51,1.97.84-.17-1.96-3.09,2.44-4.52,4.64-1.51,7.43.35,11.04.55ZM377.5,44.82v1l.5-.5-.5-.5Z"/>
  <path class="cls-3" d="M167,20.82c-1.46-.52-5.59.95-6,2-2.79-1.66-5.97-3.11-9-1-3.39.56-2.95-4.51-3-7,1.78-.71,7.77-3.34,8.94-3.6,10.98-2.44,7.58,5.69,9.06,9.6Z"/>
  <path class="cls-8" d="M725,29.82h-1l-4,3h-1c-5.52-3.91-11.84-4.12-6-13,.77,1.46,2.65,1,4,1l2.99,8c1.07-2.36-1.07-6.67-.99-8,.04-.72,2.74-3.12,2-5,8.98,1.34,5.19,9.55,4,14Z"/>
  <path class="cls-6" d="M436,29.82c-.24-.05-.7-.99-1-1-1.96-19.43,23.65-9.41,10.56,1.06-5.14,4.11-5.26.81-9.56-.06Z"/>
  <path class="cls-6" d="M651,24.82c.18,3.27-.89,6.43,3,8-3.33,8.62-1.11,8.45-11,10-2.44-6.29.98-11.07,1-16,2.48.43,4.9-2.06,7-2Z"/>
  <path class="cls-5" d="M1021,25.82c2.29,2.29,10.08,7.69,7.99,9.99-9.53-1.69-16.58-.04-25.99-2.99,1.65-1.94,8.93-1.95,10-3.02,2.58-2.59-7.51-2.79-5.99-5.98,4.89.15,10.94,8.66,13.99,1.99Z"/>
  <path class="cls-4" d="M934,32.82c.03-.74-.94-1.61-1-2-1.99-12.36,16.83-13.89,13.57-2.95-2.61,8.76-9.69,4.33-12.57,4.95Z"/>
  <path class="cls-1" d="M1087,40.82v5c-3.61-.05-16.6,1.61-18,5-3.62,1.18-3.75-2.85-4-3l14.99-4.01c-2.94-1.01-8.27-3.5-10.99-3.99v-3c5.39,1.15,13.21,3.35,18,4Z"/>
  <path class="cls-8" d="M1284,46.82l-3,4c-.33-.29-2.38.29-3,0-.34-.16-1.54-3.23-2.99-1.99-2.68,2.27,2.81,1.82,2.99,1.99.34.31.57,6.98,5,7-.12.97.08,2.02,0,3-5.84-1.88-11.22-3.81-12-11-.04-.36,1.7-3.18,1-3.99-.16-.18-3.49-.14-4.38-.93-.99-.88-.49-1.93-.62-2.08,6.43.67,11.23.92,17,4Z"/>
  <path class="cls-9" d="M1283,60.82c.08-.98-.12-2.03,0-3,.24-1.92-.59-5.74-2-7l3-4c9.36,4.99,18.04,20.13-1,14Z"/>
  <path class="cls-5" d="M433,43.82l-1,4c-8.36-1.12-16.86-3.88-24-5l-2-5c8.69,1.26,18.06,4.71,27,6Z"/>
  <path class="cls-6" d="M149,14.82c.05,2.49-.39,7.56,3,7-5.06,3.53,5.53,10.91-7.29,8.96-.78-.12-.82-2.64-2.71-1.96-.18-.79.05-2.05,0-3v-1c.21-3.84.64-8.91,5.09-10.57,1.49-.55,1.82.61,1.91.57Z"/>
  <path class="cls-9" d="M314,34.82h-2c4.38-12.46-4.87-8.21-7-9.45-6.83-3.96,4.22-15.17,8.24-6.3,2.32,5.13,2.81,10.71.76,15.74Z"/>
  <path class="cls-5" d="M970,46.82v4c-9.44.42-18.61-.13-28-1v-4c9.33.86,18.61,1.31,28,1Z"/>
  <path class="cls-3" d="M643,15.82c-1.27,3.11-.28,5.22,0,8-3.09.25-5.94-1.35-9,0-.15-4.19-3.1-5.45-7-5,4.47-10.41,9.59-4.17,16-3Z"/>
  <path class="cls-1" d="M333,27.82c2.46,2.66,7.82-3.15,8.99-1.99,1.07,1.05-2.46,3.65-1.99,3.98.26.19,4.79.58,6,2.01-7.45,2.36-11.64,2.8-19,6-.33.14-1.06,1.83-3.25,2.41-2.05.54-2.61-.44-2.75-.41,3.33-4.8,8.14-7.01,12-12Z"/>
  <path class="cls-7" d="M780,50.82v3c-8.81,1.76-16.95,3.93-26,5v-1c.03-.8-.32-2.28.15-2.81,1.03-1.16,21.81-3.28,25.85-4.19Z"/>
  <path class="cls-8" d="M887,40.82c.33.31.62.77,1,1,.37,2.56-.52,2.93-2.26,4.25-6.35,4.8-5.56,3.39-11.68.15-1-.53-.95-2.34-1.06-2.4-.18-7.14,10.17-3.47,14-3Z"/>
  <path class="cls-9" d="M547,11.82c.13,5.16.61,9.85-4,13-5.89-7.36-9.69-18.92,4-13Z"/>
  <path class="cls-5" d="M200,57.82c1.42.11,3.67,1.3,3,3-3.03.52-17.64,8.34-21,4.99-4.65-4.62,15.46-8.19,18-7.99Z"/>
  <path class="cls-5" d="M702,30.82h-3c-4.18-8.12-8.17-8.09-12-13l10-6c2.18,4.38-.32,5.5.17,9.24.3,2.29,3.83,6.99,4.83,9.76Z"/>
  <path class="cls-4" d="M1370,34.82c-.19-.93-1.2-1.06-2-1-5.56-14.41,16.02-11.5,9.43-2.07-2.71,3.88-5.71,2.16-7.43,3.07Z"/>
  <path class="cls-4" d="M131,48.82c-.87,1.48-2.95,17.48-10.57,11.12s6.85-10.38,10.57-11.12Z"/>
  <path class="cls-5" d="M1247,45.82c-3.63,1.18-14.27,8.99-17.36,7.92-8.22-2.85,16.28-11.98,17.36-12.92v5Z"/>
  <path class="cls-7" d="M1157,56.82l1,1c4.96.4,10.92.07,16,0l-1,4c-8.84-.38-18.21-.9-27-2v-4c3.68.56,7.32.66,11,1Z"/>
  <path class="cls-4" d="M1254,24.82c-1-.05-2.01.07-3,0-15.27-1.05,2.68-19.79,5.01-6.43.69,3.92-1.81,5.09-2.01,6.43Z"/>
  <path class="cls-7" d="M1087,29.82c.19,2.74,7.03,11.91,9,13l-1,4c-2.71-.52-5.2-.96-8-1v-5c.89.12,3.33.57,2.99-.98-3.4-.14-4.96-6.25-6.99-7.02-.09-2.58,1.66-3.26,4-3Z"/>
  <path class="cls-4" d="M1126,37.82c-.56-.16-1.47.17-2,0-1.36-.44-3.82.55-5.99-.5-10.59-5.14,11.32-18.99,7.99.5Z"/>
  <path class="cls-4" d="M651,24.82c-2.1-.06-4.52,2.43-7,2,0-1.15-.93-2.29-1-3-.28-2.78-1.27-4.89,0-8,1.72.31,5.5-2.81,8.1.4,2.23,2.75-.25,5.87-.1,8.6Z"/>
  <path class="cls-9" d="M816,29.82h-3c1.5-8.24.12-3.12-2.53-5.93-7.29-7.77,5.77-11.14,7.38-5.34.49,1.77-1.21,9.01-1.85,11.27Z"/>
  <path class="cls-4" d="M272,38.82c.12-.9-1.44-1.14-2-1-2.92-17.55,17.1-8.08,6.55.07-1.71,1.32-4.06.65-4.55.93Z"/>
  <path class="cls-8" d="M193,37.82c2.25,7.34,8.4,9.89,11,17-.23.14.43,3.31-4,2-.53-6.69-7.39-10.9-11-16,.25-.13.4-4.16,4-3Z"/>
  <path class="cls-4" d="M1105.84,61.67c-1.15,1.84-9.15,1.85-9.89-2.38-1.6-9.06,14.71-5.36,9.89,2.38Z"/>
  <path class="cls-4" d="M1240.15,59.68c-3.91-6.32,10.58-8.96,11.74-4.15,1.22,5.06-10.28,6.52-11.74,4.15Z"/>
  <path class="cls-8" d="M697,11.82l-10,6c-7.02-9.01,6.17-13.7,10-6Z"/>
  <path class="cls-4" d="M38,33.82c-8.85,1.01-8.86-7.16-3.01-8.62,7.12-1.77,5.34,4.91,6.01,7.62-1.03-.05-2.24.91-3,1Z"/>
  <path class="cls-8" d="M703,44.82c.15,1.56-1,2.78-1,3-6.01-1.48-13.65-7.5-20-7-1.18-2.2,1.97-3.78,2-4l19,8Z"/>
  <path class="cls-6" d="M167,20.82c1.45,3.84,4.86.22,2,9-4.52-1.02-11.03.68-8-7,.41-1.05,4.54-2.52,6-2Z"/>
  <path class="cls-4" d="M480,37.82c-.55-.17-1.47.17-2,0-1.47-.48-6.69-1.41-7.06-2.66-2.52-8.46,12.38-9.21,9.06,2.66Z"/>
  <path class="cls-5" d="M162,48.82s-.7.03-1,0v-1c.07,0,.24-1.26.99-1-.05.61.17,1.79.01,2Z"/>
  <path class="cls-5" d="M163,47.82c1.2,2.22,12.13,6.03,10.99,9.49-1.23,3.75-11.06-1.75-11.99-4.49-.18-.53-.11-3.2,0-4,.03-.2.8-.63,1-1Z"/>
  <path class="cls-5" d="M337,40.82l7.99,7.99c-2.77.11-5.82-3.54-8.48-3.01-1.08.22.8,4.32-3.51,3.02-1.67-1.96-2.26-3.1-5-4-1.74-4.03,6.06-4.13,9-4Z"/>
  <path class="cls-1" d="M1131,41.82c7.07,2.56,14.69,2.65,22,4l-1,3c-8.06-1.8-15.9-1.54-23-6l2-1Z"/>
  <path class="cls-8" d="M1207,44.82l1,2c-3.73,1.81-11.88,5.92-14,9-3.08-.93-1.84-1.94-2-2,.17-5.82,10.83-6.44,15-9Z"/>
  <path class="cls-4" d="M977,38.82c-.56-.17-1.45.17-2,0-17.09-5.15,3.78-16.34,2,0Z"/>
  <path class="cls-1" d="M1268,28.82c1.89,1.27,6.16-2.7,6.99-2,.22.19.41,4.44,3.01,5-3.33,1.09-6.71,1.82-10,3h-1c-.28.13-.58.81-1,1h-1c-.68-.31-1.32-.7-2-1,2.29-1.65,3.56-3.66,5-6Z"/>
  <path class="cls-4" d="M573.75,25.08c4.67,4.53-6.61,12.06-7.77,4.17-.71-4.82,4.95-6.9,7.77-4.17Z"/>
  <path class="cls-8" d="M1029,39.82c2.68-.21,8.09-.97,7,2-2.41.94-5.45,2.85-7,5-2.81-.08-5.46-2.91-6-3l2-3c1.13-.22,1.74-.82,4-1Z"/>
  <path class="cls-7" d="M634,42.82l-13,8c.25-.64-.17-2.13,0-3,2.24-1.11,6.53-6.84,7-7,3.07-1.07,5.3,1.87,6,2Z"/>
  <path class="cls-6" d="M1163,47.82c.2.15.38,2.41,1,3-9.57.12-5.94-.65-12-2l1-3c2.65.49,7.5.03,10,2Z"/>
  <path class="cls-7" d="M603,35.82c.31-.08.7.09,1,0-.46,2.81,2.12,8.13,4,10-.93.49-2.11,1.73-3,2-2.35-2.96-5.94-5.97-6-10,.22-.02,1.09-1.27,4-2Z"/>
  <path class="cls-1" d="M525,34.82l-6.99-7.99c2.12-.51,9.76,6.48,9.99.99.16.23,3.11.84,4,4,.29,1.02-.2,2.8,0,4-2.32-.43-4.69-.62-7-1Z"/>
  <path class="cls-4" d="M200.16,37.98c5.48-3.4,9.67,4.6,4.84,7.4s-8.05-5.41-4.84-7.4Z"/>
  <path class="cls-4" d="M1308.74,16c7.64-1.1,5.55,7.86-.07,7.62-4.52-.19-5.41-6.83.07-7.62Z"/>
  <path class="cls-1" d="M223,35.82l-5,10c-1.09-.99-1.25-1.36-3-1,1.12-2.84,1.1-6,1-9,1.95.21,5.01.16,7,0Z"/>
  <path class="cls-8" d="M435,28.82c.3,0,.76.95,1,1-4.43,5.24-11.85,5.27-18,6v-1c3.34-.9,14.29-6.09,17-6Z"/>
  <path class="cls-5" d="M1320,41.82v1c-4.05-.71-9.72.5-14,.01l4.99,4.98c-4.16.11-4.69-2.47-5.99-3.99-.55-.64-1.7-2.29-2-3,6.82-1.67,11.16.21,17,1Z"/>
  <path class="cls-8" d="M1047,25.82c1.27,2.78,4.23,3.31,5,7,.12.6-.08,1.36,0,2-.66.03-1.34.03-2,0-.35-3.04-6.96-5.2-10-7-.87-3.54,4.13-1.54,7-2Z"/>
  <path class="cls-3" d="M705,6.81c-2.91-3.63,9.27-9.11,9.99-3.45.43,3.38-8.42,5.4-9.99,3.45Z"/>
  <path class="cls-9" d="M480,37.82c3.45,1.04,12.35,4.69,15,5-.88,2.86-3.91,1.72-6,2l-11-7c.53.17,1.45-.17,2,0Z"/>
  <path class="cls-8" d="M1368,33.82c.8-.06,1.81.07,2,1-4.57,2.42-8.72,6.56-15,6v-1c.1-.02-.35-1.62.76-1.94,3.28-.94,9.94-3.89,12.24-4.06Z"/>
  <path class="cls-8" d="M933,30.82c.06.39,1.03,1.26,1,2-4.6,1-10.96,6.31-16.99,4.99l15.99-6.99Z"/>
  <path class="cls-4" d="M877.85,17.97c2.65,4.27-3.73,8.81-6.37,3.86-3.06-5.75,5.13-5.84,6.37-3.86Z"/>
  <path class="cls-3" d="M725,34.82c.15-1.27-.22-2.8,0-4,9.86-2.23,9.53,10.06,0,4Z"/>
  <path class="cls-9" d="M41,32.82c1.3,5.28,7.99,4.02,11,8-.88.11-2.02-.42-2,1-4.19-1.49-10.47-3.47-12-8,.76-.09,1.97-1.05,3-1Z"/>
  <path class="cls-9" d="M977,38.82c3.64,1.08,8.94,3.41,12,4,.38,4.14-.13,2.66-3,3l-11-7c.55.17,1.44-.17,2,0Z"/>
  <path class="cls-9" d="M1254,24.82c-.78,5.34-.18,9.54-3,15-.62.11-1.36-.08-2,0l-1-1c2.53-3.77,5.05-9.61,3-14,.99.07,2-.05,3,0Z"/>
  <path class="cls-4" d="M627.72,2.97c5.24-1.23,8.18,6.95.84,5.86-4.01-.59-4.58-4.99-.84-5.86Z"/>
  <path class="cls-4" d="M749.87,45.94c4.12,5.17-7.74,6.33-8.86.37-.29-1.52,7.89-1.6,8.86-.37Z"/>
  <path class="cls-5" d="M1265,40.82c.29.36.71.64,1,1s.7.64,1,1c.13.15-.37,1.2.62,2.08.89.79,4.22.74,4.38.93.69.81-1.04,3.63-1,3.99-3.2-2.42-5.67-5.4-10-6-.03-3.49,2.04-2.49,4-3Z"/>
  <path class="cls-5" d="M1036,37.82c5.02.44,6.61-.25,6,3-2.01.02-4.13.27-6,1,1.09-2.97-4.32-2.21-7-2l-1-2c2.42-.14,5.62-.21,8,0Z"/>
  <path class="cls-7" d="M723,34.82c-.8,3.9-1.98,4.56-3,7h-1l1-8v-1l4-3c-.63,1.61-.66,3.34-1,5Z"/>
  <path class="cls-4" d="M721,15.82c.74,1.88-1.96,4.28-2,5-.67,0-1.33,0-2,0-1.35,0-3.23.46-4-1,2.19-3.33,3.68-4.64,8-4Z"/>
  <path class="cls-5" d="M560,31.82c.63,2.63,1.43,1.93,2,3,.13.24-2.81,4.08,2,1,.69.33,1.32.64,2,1,.78,3.9-4.29,1.38-7,1,.4-1.45-2.07-3.38-3-4l4-2Z"/>
  <path class="cls-3" d="M651,24.82c3.41.09,5.91,4.35,5.04,7.34-.31,1.08-2,.56-2.04.66-3.89-1.57-2.82-4.73-3-8Z"/>
  <path class="cls-1" d="M753,29.82c-.54,2.02-3.11,2.91-4,4-1.02-.07-3.31-1.2-4-1v-4c1.77.37,6.19.94,8,1Z"/>
  <path class="cls-5" d="M389,24.82l2,4c-.52,0-4.41,1.66-6,2l-1-3c.35-.16,4.82-2.77,5-3Z"/>
  <path class="cls-4" d="M616.83,37.98c3.48,2.4-1.73,7.57-4.38,3.85-1.51-2.11,1.73-5.69,4.38-3.85Z"/>
  <path class="cls-3" d="M1023.72,10.09c3.73,3.56-3.75,4.68-4.72,3.72-1.24-1.21.77-7.5,4.72-3.72Z"/>
  <path class="cls-8" d="M254,43.82c3.27-.31,6.03-2.35,9.01-1.49-1.06,4.39-6.01,3.06-9.01,3.49v-2Z"/>
  <path class="cls-4" d="M1037.99,65.82c-2.2,2.24-8.06-3.34-3.48-4.98,3.29-1.18,4.34,4.1,3.48,4.98Z"/>
  <path class="cls-8" d="M871,43.82c-.19,1.29-1.33,3.95-1,5,.07.24,3-1.13,2,3-2.81-2.55-1.67-2.61-2-3-1.26-1.46-3.4-4.24-5-6,2.21-.29,3.98.14,6,1Z"/>
  <path class="cls-4" d="M1058.99,23.82c-3.79,3.33-7.62-4.11-3.48-4.99,2.17-.46,4.4,4.18,3.48,4.99Z"/>
  <path class="cls-8" d="M816,29.82c-.39,1.37-1.14,6.55-2.5,7.02-4.15,1.45-1.14-3.51-.5-7.02h3Z"/>
  <path class="cls-9" d="M1212,40.82c.09.99-.06,2.01,0,3-.49.25-1.48,1.78-4,3l-1-2c1.04-.64,2.18-4.34,5-4Z"/>
  <path class="cls-4" d="M1055.99,6.82c-3.3,3.21-6.1-4.21-2.48-4.99,2.48-.53,3.11,4.37,2.48,4.99Z"/>
  <path class="cls-9" d="M272,38.82c-.64.37.98,1.87-5,3l-1-1c1.33-1.12,1.72-2.42,4-3,.56-.14,2.12.1,2,1Z"/>
  <path class="cls-4" d="M376,17.83c2.29,2.39-1.87,6.81-4.99,1.48-.81-2.39,4.81-1.67,4.99-1.48Z"/>
  <path class="cls-5" d="M719,41.82h1c-.74,1.77.08,4.88-3,6-.08-.44-.58-.83-1-1,.77-1.97.1-5.24,3-5Z"/>
  <path class="cls-9" d="M1126,37.82c1.09.32,2.36,3.04,5,4l-2,1c-2.14-1.34-4.92-1.74-5-5,.53.17,1.44-.16,2,0Z"/>
  <path class="cls-5" d="M749,55.82l2,1c-.08.31.06.68,0,1v1c-.66.07-2.03.84-4,1v-4c.66-.05,1.34.03,2,0Z"/>
  <path class="cls-4" d="M599.99,57.83c1.62,1.61-2.36,5.61-3.99,3.99s2.36-5.61,3.99-3.99Z"/>
  <path class="cls-9" d="M717,47.82c.16.92-.11,2.04,0,3-1.05.39-1.96.65-3,1-.52-2.25,1.43-3.55,2-5,.42.17.92.56,1,1Z"/>
  <path class="cls-5" d="M891,24.82c-.03,1.7.61,3.38,1,5-.66-.03-1.34,0-2,0l-2-3c.31-.13,1.29-2.45,3-2Z"/>
  <path class="cls-5" d="M104,38.82l-1,1c-1.42-.25-3.42.07-5,0-1.12-.05-2.44.27-3-1,2.94-.2,6.04-.03,9,0Z"/>
  <path class="cls-9" d="M725,30.82c-.22,1.2.15,2.73,0,4-.31-.2-1.42.13-2,0,.34-1.66.37-3.39,1-5h1c-.08.3.06.67,0,1Z"/>
  <path class="cls-9" d="M749,42.82c-2.32.14-4.68-.1-7,0,2.15-.74,4.93-2.39,7,0Z"/>
  <path class="cls-5" d="M396,40.82c-2.71-3.3,3.31-3.28,2,1-.86-.13-1.7-.96-2-1Z"/>
  <path class="cls-9" d="M414,34.82v2c-1.33.05-2.67-.02-4-.01.53-2.28,2.49-1.65,4-1.99Z"/>
  <path class="cls-5" d="M1184,55.82c2.13.83,7.24,1.27,0,2v-2Z"/>
  <path class="cls-1" d="M1055,33.82c-.57,1.28-1.88.94-3,1-.08-.64.12-1.4,0-2,1.35-.44,2.26.76,3,1Z"/>
  <path class="cls-7" d="M749,55.82c.16,0,1.24-2.18,2.99-.99.9.61-.97,1.89-.99,1.99l-2-1Z"/>
  <path class="cls-5" d="M106,37.82c.86.29,2.6-.63,3.01.51,1.11,3.15-2.77.5-3.01.49v-1Z"/>
  <path class="cls-7" d="M418,34.82v1c-1.29.15-2.81.95-4,1v-2c1.15-.26,2.93.29,4,0Z"/>
  <path class="cls-9" d="M131,48.82c1.14-1.92,1.65-2.29,4-1.99-.53,2.26-2.46,1.68-4,1.99Z"/>
  <path class="cls-7" d="M564,35.82c-4.81,3.08-1.87-.76-2-1,.67.32,1.33.68,2,1Z"/>
  <path class="cls-8" d="M266,40.82l1,1c-.27.05-2,1.83-2.99.99-2.36-1.98,1.84-1.87,1.99-1.99Z"/>
  <path class="cls-5" d="M550,30.82c3.17-2.06,2.88-.85,4,2-1.27-.72-2.58-1.02-4-2Z"/>
  <path class="cls-8" d="M539,37.82c1.35.33,2.38-.83,2.01,1.49-.45,1.5-1.9-.49-2.01-.49v-1Z"/>
  <path class="cls-5" d="M1177,46.82c-.34.61.85,2.73-1.49,2.01-1.12-.35-.21-1.74-.51-2.01h2Z"/>
  <path class="cls-5" d="M716,55.82v2c-3.72.06-2.58-.93,0-2Z"/>
  <path class="cls-5" d="M979,49.82c-1.45.14-1.9,0-2,0h2Z"/>
  <path class="cls-5" d="M212,55.82v2c-6.01-.69-.38-1.74,0-2Z"/>
  <path class="cls-9" d="M667,62.82v-3c2.02.82,1.13,1.92,0,3Z"/>
  <path class="cls-8" d="M913.99,36.83c.04.84.29.82-.5.99-3.45.78-3.58-1.72.5-.99Z"/>
  <path class="cls-9" d="M1402,36.82c.21-.05.45-1.62,1.48-1.02,1.46.53-.46.96-.48,1.02h-1Z"/>
  <path class="cls-5" d="M384,30.82c-.81.19-2.07.69-3,1l3-1Z"/>
  <path class="cls-7" d="M753,57.82v1c-.65.07-1.35-.07-2,0v-1h2Z"/>
  <path class="cls-9" d="M92,34.82h1s.14.28-1,0Z"/>
  <path class="cls-8" d="M238,43.82c-.13-.02-3.14,2.15-1-1l1,1Z"/>
  <path class="cls-7" d="M1268,34.82c-.31.11-.74-.12-1,0h1Z"/>
  <path class="cls-9" d="M136,45.82c-.72-.16-.93-.99-1-1l1,1Z"/>
  <path class="cls-9" d="M843,32.82l1-1c-.27.09-.61.87-1,1Z"/>
  <path class="cls-9" d="M703,55.82c.1-.23-.06-.65,0-1v1Z"/>
  <path class="cls-8" d="M1266,41.82c-.29-.36-.71-.64-1-1,.31-.08.68.07,1,0v1Z"/>
  <path class="cls-9" d="M1294,39.82c-.35-.13-.69-.89-1-1l1,1Z"/>
  <path class="cls-2" d="M142,25.82c-.02-.33-.02-.67,0-1v1Z"/>
  <path class="cls-9" d="M703,41.82c-.01-.07-.86-.28-1-1l1,1Z"/>
  <path class="cls-5" d="M1249,39.82h-1c.16-.2-.16-.77,0-1l1,1Z"/>
  <path class="cls-9" d="M720,33.82c-.37-.28-.64-.74-1-1h1v1Z"/>
  <path class="cls-9" d="M887,30.82l1-1c-.17.02-.61.94-1,1Z"/>
  <path class="cls-5" d="M754,58.82c-.33.04-.67-.04-1,0v-1h1v1Z"/>
  <path class="cls-6" d="M1046,58.82c.08-.4.91-.75,1-1l-1,1Z"/>
  <path class="cls-5" d="M1146,59.82c-.33-.04-.67.04-1,0l1-1v1Z"/>
  <path class="cls-5" d="M1158,57.82l-1-1c.66.06.93.99,1,1Z"/>
  <path class="cls-6" d="M1156.72,18.02c6.96-2.22,9.77,5.06,4.24,7.3s-9.84-5.52-4.24-7.3Z"/>
  <path class="cls-6" d="M753.76,9.98c4.93-.86,7.14,4.4,3.23,6.33-7.23,3.57-10.04-5.14-3.23-6.33Z"/>
  <path class="cls-6" d="M217.65,17.93c6.13-2.38,11.26,6.32,2.74,6.87-6.03.39-5.49-5.8-2.74-6.87Z"/>
  <path class="cls-9" d="M531,41.82c-.78,1.49-2.65.95-4,1,2.07-.87,2.27-.62,4-1Z"/>
  <path class="cls-5" d="M103.99,45.83c2.1,1.99-12.33,7.35-13.99,6.98,1.28-1.37,13.43-7.52,13.99-6.98Z"/>
  <path class="cls-1" d="M1279.01,24.82c-1.74-1.37,2.8-3.17,2.98-2.99.95.94-1.72,3.98-2.98,2.99Z"/>
  <polygon class="cls-5" points="1312.5 47.82 1313 48.32 1312.5 48.82 1312.5 47.82"/>
  <path class="cls-9" d="M830,36.82c-.29.03-1.07,1.33-1.99.99-.38-1.77,1.39-.65,1.99-.99Z"/>
  <path class="cls-2" d="M1082.99,27.82c-1.3-.25-2.79-2.7-2.5-3.98,1.11,1.17,2.9,2.03,2.5,3.98Z"/>
  <path class="cls-3" d="M1066.99,12.83c1.09,1.09-.9,3.08-1.99,1.99s.9-3.08,1.99-1.99Z"/>
  <path class="cls-5" d="M1266,36.82c-.37,0-.73-.88-1-1h1v1Z"/>
  <path class="cls-5" d="M223.99,58.83c-1.85,2.32-7.31.38-9.99.98,1.85-2.32,7.31-.38,9.99-.98Z"/>
  <path class="cls-5" d="M236,36.82v-3c1.96,1.55.45,1.95,0,3Z"/>
  <path class="cls-1" d="M1042,40.82c-.17.9.11,2.04,0,3-4.4-.7-9.14,3.11-13,3,1.55-2.15,4.59-4.06,7-5,1.87-.73,3.99-.98,6-1Z"/>
  <path class="cls-5" d="M566.99,52.83c.75.5-.92,1.69-1.99.98-.75-.5.92-1.69,1.99-.98Z"/>
  <path class="cls-7" d="M534.99,47.83c.75.5-.92,1.69-1.99.98-.75-.5.92-1.69,1.99-.98Z"/>
  <path class="cls-8" d="M675.52,33.83c2.57-.48,3.23,3.56.97,3.99-2.57.48-3.23-3.56-.97-3.99Z"/>
  <path class="cls-8" d="M183.01,37.82c-.73-.76.35-4.39,2.48-3.99,3.69.7-.55,5.99-2.48,3.99Z"/>
  <path class="cls-7" d="M384,27.82l1,3c-.32.07-.69-.08-1,0l-3,1c-2.22.73-7.66,1.77-8,2.01-.08.06-.1,1.99,0,1.99h14.5c3.15,0,14.86,1.47,18.5,2l2,5c-3.23-.51-6.76-.52-10-1,1.31-4.28-4.71-4.3-2-1-2.17-.27-4.73.13-7,0-3.62-.2-6.4-2.06-11.04-.55s-1.6,4.35-2.44,4.52c-.43.09-7.75-1.72-8.51-1.97-2.53-.85-3.63-3.42-7.46-4.04-6.04-.97-14.54.68-20.54,2.04-.65-.08-1.34.03-2,0-2.94-.13-10.74-.03-9,4-3.74-1.22-5.45-.63-9,0l-3-4c1.25-.19,3.76-.7,5-1,.14-.03.7.95,2.75.41,2.19-.58,2.92-2.27,3.25-2.41,16.4-4.68,42.12-3.12,57-10Z"/>
  <polygon class="cls-7" points="377.5 44.82 378 45.32 377.5 45.82 377.5 44.82"/>
  <path class="cls-7" d="M719,20.82c-.08,1.33,2.05,5.64.99,8l-2.99-8c.67,0,1.33,0,2,0Z"/>
  <path class="cls-9" d="M1278,50.82c-.18-.17-5.67.28-2.99-1.99,1.45-1.23,2.66,1.84,2.99,1.99Z"/>
</svg>