<?xml version="1.0" encoding="UTF-8"?>
<svg id="Layer_1" data-name="Layer 1" xmlns="http://www.w3.org/2000/svg" viewBox="0 0 1158.63 67.14">
  <defs>
    <style>
      .cls-1 {
        fill: #df7150;
      }

      .cls-2 {
        fill: #809444;
      }

      .cls-3 {
        fill: #f1a2ae;
      }

      .cls-4 {
        fill: #97a853;
      }

      .cls-5 {
        fill: #f4be4e;
      }

      .cls-6 {
        fill: #e1a74b;
      }

      .cls-7 {
        fill: #8a9f50;
      }

      .cls-8 {
        fill: #a7b360;
      }

      .cls-9 {
        fill: #728838;
      }

      .cls-10 {
        fill: #e15e75;
      }

      .cls-11 {
        fill: #ed91a1;
      }

      .cls-12 {
        fill: #a1a450;
      }

      .cls-13 {
        fill: #f8ca61;
      }

      .cls-14 {
        fill: #dc8534;
      }
    </style>
  </defs>
  <g>
    <path class="cls-3" d="M229.42,42.34c-4.06.43-5.77,4.11-13.22,2.69-1.65-.31-7.77-4.47-8.28-5.45-1.51-2.85.79-6.8.45-7.29-.21-.31-5.73-.49-4.45-4.87.65-2.24,3.43-2.3,3.53-2.49.58-1.12-2.38-2.93-1.69-5.71.42-1.7,4.71-7.31,6.67-8.08,6.23-2.46,10.02,1,11.07.92.77-.05,2.28-3.84,3.58-4.59,3.19-1.82,11.4-.82,14.59,1.12,4.02,2.44,2.84,5.5,3.48,6.14.47.47,3.13-.2,4.57,1.45s-.66,3.65-.01,4.94c.2.41,3.69,1.23,4.31,3.57,1.28,4.8-4.26,3.93-5.34,4.85-.33.28,2.01,1.66,2.74,3.65-3.23.12-6.41-1.31-9.16-2.75-.99-.52-2.9-.54-2.74-1.82l3.65-1.84-5.49-.02,6.4-2.75c-9.18-.66-1.7-5.98-2.75-7.31-.77-.97-6.19,2.1-6.39,1.83-.63-.86,1.48-4.41-1.83-3.66l-2.75,4.57c-.1-12.9-2.41-.36-4.15,0-1.62.34-7.24-8.11-6.85-.92-1.35-.44-4.61.07-6.4-.91-.44,2.64,2.7,2.5,4.33,3.97.58.52.11,2.3.24,2.44-7.7.38-2.57,2.93.91,5.48-1.15.64-5.37.66-5.5,1.4-.62,3.51,2.37,6.11,5.51,2.28.57-.1,1.39.16,1.83,0-.12,6.16,2.47.05,5.01.91,1.78.6-.21,2.89,3.23,3.66.27.06.63,0,.92,0,.84-.01,3.54.14,3.67,0,.29-.31-.2-3.59,0-4.58,1.26.29,2.69.96,3.66,1.83,2.17,3.54,6.33,2.92,1.83,9.16-2.52.15-4.17-.87-5.49-.92-1.06-.04-2.72-1.01-3.66-.92ZM211.56,16.7v.92l.46-.46-.46-.46ZM218.9,35.95c-1.93,1.32-1.36,2.64,0,.89.36-.46.7-.5,0-.89Z"/>
    <path class="cls-3" d="M219.35,24.03c-.13-.03-1.3-.03-1.83,0,.06.07,1.74.06,1.83,0Z"/>
    <path class="cls-2" d="M385.1,24.94c1.99.49,8.17,1.21,9.49,1.8.97.43,1.31,7.43,6.08.95,2.82,3.08,4.54,7.31,8.64,9.22,3.32,1.54,10.15,2.51,14.25,3.6l-.92,2.75c-.88-.23-1.67-.74-2.75-.92-10.1-1.69-19.99-1.83-30.22-1.83.21-4.39-3.21-.56-4.58,0-1.53.62-3.3.71-4.58,1.83l-.92-.92c.45-.14,1.44-.64,1.83-.92.85-.6,1.61-.59,0-.92-.93-.19-2.57-.02-3.66,0-16.22.29-21.51,2.57-35.72,8.24.02.6.03,1.23,0,1.83-.86.12-1.99-.18-2.75,0,.43-1.71,1.66-1.4,2.75-1.83-.02-.57-.09-1.3,0-1.83.06-.35.94-1.15.92-1.83,1.75-.62,5.42-1.96,4.58-3.66-.75-1.54-1.85-.56-2.75-.92-6.59-2.58-12.97-.52-18.32-3.66v-4.58h6.41c1.73,2.01,1.32,3.41,6.41,2.75,5.84,7.18,33.85,2.84,43.96,2.75.47,0,1.68-.93,2.75-.92.17,0,2.26.73,2.75.92.46.18,1.38,1.89,1.83,0,4.39.45,9.3.64,13.74.92,2.77.17,2.2-.84,0-1.83-8.27-3.71-13.91-1.38-19.23-10.99Z"/>
    <path class="cls-13" d="M278.87,10.29c4.29-10.48,6.41-4.37,12.22-5.43.93-.17,2.28-6.51,10.94-4.45,2.37.57,3.3,2.71,4.97,3.27,4.24,1.41,11.5-.15,13.06,8.02,1.2,6.27-3.56,6.41-3.62,7.29-.1,1.51,5.47,0,1.81,6.87-1.91.1-3.69-.41-5.49-.92-.95-.27-1.96-.73-2.75-.92-.6-.61-1.27-1.24-1.83-1.83,3.49-1.51,1.95-5.08-1.83-4.58.04-.44-1.45-1.98.92-3.66l6.42-3.21c-2.21-1.32-5.14,1.87-6.42,2.29-.66.22-1.93-.15-2.75,0,1.74-4.99-.35-2.02-4.58-1.83-1.38-4.77-1.69-.08-2.43.04-2.13.32-4.28-1.09-5.28-.96-.77.1-2.17,4.11-6.94-.91-1.11-2.81-3.19-1.87-.92,0v.92c-1.59-.31-3.79.21-5.49,0ZM306.8,6.63v.92l.46-.46-.46-.46ZM305.89,8.46v.92l.46-.46-.46-.46Z"/>
    <path class="cls-2" d="M192.79,41.43c9.18,8.44,35.36,11.46,47.62,12.81-1.44-1.38-2.89-2.16-4.57-3.65l.92-1.83c12.63,11.73,36.16,3.63,51.28,3.66.67,2.16-.71-.35-.92,2.75-.58.09-1.25-.09-1.83,0-.48-4.45-.79-.14-.92,0-.15.16-1.32-.1-1.83,0-26.39,3.22-42.55,2.96-68.88-1.17-10.37-1.63-20-8.46-30.02-.66.41-2.35-13.04,2.96-9.15-.9,2.99-2.97,9.48-2.23,10.99-2.77.14-.05-.14-1.76,0-1.83.57-.27,1.29-.05,2.75-.92.79-.47,1.47-.94,1.83-1.83,1.19.14,2.46-.08,3.66-.01.21-.96-1.11-1.4-1.83-1.82l.92-1.83Z"/>
    <path class="cls-13" d="M541.7,34.1l-4.14,6.4c-3.01.46.16-3.04-.45-3.65-1.66-1.64-2.6,2.61-2.74,2.74-1.88,1.64-5.09,4.75-4.58.92-.26-.76-.7-3.88-1.37-3.67-1.67.5.45,3.43.46,3.67.01.59.07,1.26,0,1.83-4.21.41-7.73-4.4-10.98-6.41-.91,5.13,1.28,7.71,6.4,8.24l-4.57,2.76,3.65,2.72c-4.24-.19-3.84,1.96-4.57,2.76-1.88,2.05-1.12,4.78-6.41,3.66-4.93-8.78,2-9,1.83-9.61-.24-.88-2.99-1.62-2.77-4.51.06-.78,3.09-6.01,3.73-6.44,4.84-3.27,20.87-3.13,26.52-1.41Z"/>
    <path class="cls-5" d="M540.79,43.26c4.14,5.06.92,5.69.88,6.09-.31,2.59,1.97,7.13,4.61,5.82.47-.23-1.68-4.54,3.67-1.83-.1.62-4.96,4.4-5.49,5.49-.18.36.12,1.29,0,1.83-1.08.39-2.75,3.76-6.19,4.39-9.55,1.75-15.28-1.4-23.11-5.31-.63-.31-.98-.65-1.83-.92v-.92c-.31-.61-.58-1.24-.92-1.83,5.29,1.12,4.53-1.61,6.41-3.66,11.21-3.3,1.47,3.29,2.75,4.57s3.98-3.37,5.17-3.56,2.15,1.48,3.07,1.74c-2.91,8.09,2.87,9.79,1.83.92.65.24,2.15-.25,2.75,0-1.61,7.62,7.29,5.43,3.74,1.29-1.37-1.6-2.79-.88-3.74-1.29.96-4.55,4.3-3.3,4.59-3.68.35-.46-2.58-2.99.9-4.55-4.27-.31-.86-3.26.93-4.59ZM520.18,57.91v.92l.46-.46-.46-.46Z"/>
    <path class="cls-3" d="M489.5,15.78c4.03-4.61,12.6-1.39,14.51,3.38,1.05,2.62-2.87,1.92-1.72,4.39.49,1.05,4.4,1.22,3.6,4.43-.63,2.54-4.39,2.13-4.5,2.94-.56,3.89,8.77,8.21-3.65,13.26.5-3.11-4.85-7.06-7.33-8.24-2.7-3.77,3.86-.72,4.57-.92l-2.74-3.65,3.66-.91-5.48-1.83c10.95-3.02,1.77-2.72,1.83-3.21.08-.59,11.05-9.09-.92-3.21-2.97-.96-1.37-4.45-1.83-6.41Z"/>
    <path class="cls-5" d="M310.01,24.03c.82.84,1.94,6.47,2.75.92,1.8.51,3.59,1.02,5.49.92-3.87,7.27-6.54,5.76-13.74,6.41h-.92c-.6.04-1.25-.09-1.83,0-.32.05-.67-.08-.92,0h-.92c-.09.13.02.59,0,.92-1.82-.42-4,.95-5.49.92l-.92-.92c-3.71-.52-3.15-.42-6.41-1.83.17-2.2-.26-4.33-.92-6.41,1.03-.23,1.31-1.35,1.83-1.83,7.74.2,15.04-.73,21.98.92Z"/>
    <path class="cls-5" d="M284.37,10.29c1.33.26,5.39,3.63,5.49,4.14.32,1.57-7.51,4.31,1.84,5.03.39,2.43-1.96,2.08-3.67,3.66-.61-.02-1.22.01-1.83,0-.14-.37-5.93-1.26,1.82-3.65-1.9-1.02-5.78-1.15-7.32-1.84-5.95-2.71-3.51-3.24-1.83-7.33,1.71.21,3.91-.31,5.49,0Z"/>
    <path class="cls-9" d="M160.74,39.59l.92.92c.87.13,1.87-.12,2.75,0h.92c1.5.15,3.08-.15,4.58,0,.56.06,2.24,1.72,2.75,0,.3.11,2.18.74,2.75.92l.46.91,1.37-.91c3.57,1.04,7.35,1.96,10.99,2.75l.92.92c.29.06.62-.04.92,0-.36.89-1.05,1.36-1.83,1.83-8.28-.01-15.94-4.45-24.32-3.71-5.31.47-7.47,3.14-11.4,4.63-1.48.56-4.92.29-6.82,1.79l-.51-.88c1.38-1.43,3.9-1.49,0-3.66,2.7-.85,9.31-1.29,9.16-3.66-9.68-.39-19.67-3.02-29.31-2.75v-3.66c6.99,2.57,26.71,3.27,35.72,4.58Z"/>
    <path class="cls-10" d="M131.43,17.62c-3.34-7.51-1.17-3.83,1.58-7.58,1.74-2.36-.37-5.38,7.18-5.29,1.85.02,2.72,1.4,3.76,1.58,1.43.25,3.56-1.33,4.95-.25,1.15.89.41,3.14,1.03,4.08,1.01,1.51,2.66-2.69,2.56,6.54h-.92c-3.06-.63-2.87.23-4.57,1.82-1.19-2.6-4.36-8.37-7.72-7.26s4.11,9.04.38,12.77c-1.87-.7-2.05-.85-3.66-1.83,2.93,1.53-.69-4.75-.86-4.98-.84-1.17-2.67.39-3.72.4Z"/>
    <path class="cls-3" d="M488.59,13.95c-1.08,3.47-2.57,6.06-6.83,4.64-1.1-.36.28-3.84-1.85-2.8-1.6.78-1.05,5.54-5.05,4.57-.65-.68-2.16-1.16-2.75-1.83-.81-.92-.32-3.41-2.75-2.75,2.58-11.24,16.15-11.49,19.23-1.83Z"/>
    <path class="cls-4" d="M143.34,46v4.57c1.16.23,1.16-1.12,1.83-1.83l.51.88c1.9-1.5,5.34-1.23,6.82-1.79-2.93,7.83-3.33,9.72-10.99,12.82-3.3-2.72-5.65-5.42-10.07-6.41,4.29-7.91,5.1-5.85,11.91-8.24ZM138.76,53.33c1.03.81,2.98-1.56,3.64-2.29-1.22-.31-5.41.9-3.64,2.29Z"/>
    <path class="cls-7" d="M67.33,37.76c.14,2.92,3.24,4.27,2.75.92.63.26,1.21.65,1.83.92-.09.02.38,1.55-.64,1.81-2.25.58-6,.33-8.52.94-.65,3.48,2.91,1.05,4.58.91l2.75,2.75c-9.65,4.21-8.95,1.11-16.48,1.83.72-2.39-1.67-1.65-1.83-1.83-7.2-8.2,10.72-8.7,15.57-8.24Z"/>
    <path class="cls-4" d="M103.04,41.43c4.79,2.3-3.28,3.09-3.66,5.48,2.44-1.01,9.22-2,10.99-2.74-.24,6.62-7.79,10.45-13.74,10.99-1.21-1.52-5.2-1.52-6.41,0-6.73-2.94,9.46-12.68,12.82-13.74Z"/>
    <path class="cls-7" d="M558.19,44.17c3.55,8.13,4.66-.9,6.41.92.96.99-2.96,5.27.92,4.57-.57.82-3.95,6.08-3.66,6.4,1.3,1.47,12.99,1.94,15.57,1.84v1.83c-8.32,2.61-18.24,2.06-26.56,1.83v-1.83c4.24-.43,8.46-1.41,12.82-.93.06-1.62-2.66-1.68-2.75-1.82-.23-.37-.76-9.38-1.83,0-.61,0-1.22.02-1.83,0,2.16-4.8-1.35-7.96.91-12.81Z"/>
    <path class="cls-11" d="M251.4,33.18c2.15,5.86-7.55,10.68-12.82,10.99,4.5-6.24.34-5.61-1.83-9.16-4.08-6.68,1.26-1.76,5.49-4.58,2.75,1.43,5.93,2.87,9.16,2.75Z"/>
    <path class="cls-4" d="M187.29,27.69l-3.66,4.58c-.65-.82-2.94-1.89-3.66-2.75-.77-.93-2.2-5.03-4.13-5.49-.4-.09-2.09,6.29-5.95,0-.08-.28.06-.62,0-.92,3.71-1.26,6.65-2.64,8.24-6.41,2.37,1.81,4.06,2.12,6.38,5.06,2.1,2.67,1.78,4.04,2.78,5.93Z"/>
    <path class="cls-4" d="M185.46,47.84c-.14.06.14,1.78,0,1.83-1.51.54-8-.21-10.99,2.77-3.88,3.86,9.57-1.45,9.15.9-.17.13-.56,2.33-2.27,3.67-5.75,4.5-20.01,5.15-12.09-4.3,2.79-3.32,11.82-5.62,16.19-4.87Z"/>
    <path class="cls-4" d="M440.97,36.85c-5.51,1.92-6.02-4.53-10.07-5.49-1.48-.35-3.84.25-5.49,0-5.79-14.9,9.67-6.63,13.74-.46,2.02,3.06,1.11,3.7,1.83,5.96Z"/>
    <path class="cls-7" d="M400.67,27.69c-4.77,6.48-5.11-.51-6.08-.95-1.32-.59-7.5-1.31-9.49-1.8-7.5-13.55,9.48-5.18,14.27-.04.94,1.01,1.06,2.53,1.29,2.78Z"/>
    <path class="cls-7" d="M422.65,43.26c1.57.41,3.28-1.12,2.75,1.83-4.7.9-8.03,4.72-10.99,7.33-2.46-7.36-12.84,7.33-9.16-5.49l14.65-4.58c1.07.18,1.87.69,2.75.92Z"/>
    <path class="cls-8" d="M102.13,24.94c-.59-1.21-4.09-4.55-.95-6.94,2.13-1.61,18.57,7.36,18.35,12.43-2.57-1.17-9.27-3.83-11.91-4.58-1.66-.47-3.76-.54-5.49-.92Z"/>
    <path class="cls-8" d="M368.62,49.67c2.51-1.47,8.13-6.61,9.16-2.75-.34.54-.17,2.69-1.41,4.53-3.34,4.97-14.89,10.98-14.16.96,2.93.34,4.37-1.55,6.41-2.75Z"/>
    <path class="cls-9" d="M489.5,54.25c.32.29.6.63.92.92l.92.92c.57.79,1.24.32,0,1.83-11.52-1.42-22.64-3.35-33.88-5.49v-3.66c10.03,2.92,21.54,5.96,32.05,5.49Z"/>
    <path class="cls-3" d="M467.52,17.62c.22.14.12,3.21,3.66,2.75.16,1.86,1.52,2.95,2.73,4.13-1.12.21-6.07-1.42-6.38-.02-.65,2.92,6.4,1.96,5.48,5.04l-9.15.02c1.24,2.59,5.9,1.66,8.23,1.83l-5.48,3.21c1.34,3.91,5.88-1.74,3.65,4.11-.38.17-.65.79-.92.92-.06.18-.82.51-.92.92-.27.1-.64-.1-.92,0-2.31.81-4.61.55-6.41,1.83-3.25-5.23-.57-8.74-.91-9.15-.27-.33-6.34-.23-4.64-5.82.44-1.46,4.42-1.28,4.64-1.53,1.11-1.32-4.49-4.13.46-8.24,2.85-2.37,3.98-1.82,6.87.01Z"/>
    <path class="cls-3" d="M474.85,36.85c2.4,2.67,2.67,3.23,6.41,3.66.3.03.61-.03.92,0-.19,1.22-.8,2.44-.92,3.66-.03.28-.04.64,0,.92-3.84,1.69-6.79,2.07-10.99,1.83-2.35-.96-2.09-3.23-1.83-5.49.03-.3-.07-.63,0-.92.37-.14.65-.79.92-.92.07-.23.78-.55.92-.92,1.4-.64,2.97-1.04,4.58-1.83Z"/>
    <path class="cls-13" d="M549.03,39.59c.05.91,1.5,2.24.91,4.98-.49,2.28-2.86,3.04-2.76,4.62.05.85,3.36.31,2.76,4.13-5.34-2.71-3.2,1.6-3.67,1.83-2.64,1.31-4.92-3.23-4.61-5.82.05-.39,3.26-1.03-.88-6.09.33-.25.56-.68.92-.92.96-.62,5.84-2.15,7.33-2.75Z"/>
    <path class="cls-7" d="M311.84,46c.67-.1,3.51-.1,3.66,0,2.57,1.9-3.09,1.77-3.48,2.03-.44.29-.11,1.59-.18,1.63-5.09,2.56-18.53,4.49-24.73,5.49.2-3.1,1.58-.59.92-2.75-.15-.47.1-1.26,0-1.83,1.02-.04,2.24.25,2.75-.92,9,.6,13.81-2.53,21.06-3.66Z"/>
    <path class="cls-13" d="M280.7,17.62c1.53.7,5.42.83,7.32,1.84-7.75,2.39-1.96,3.28-1.82,3.65.17.45-.16,1.33,0,1.83.65,2.08,1.09,4.21.92,6.41-6.03-2.61-15.08-7.5-6.41-13.74Z"/>
    <path class="cls-4" d="M405.25,46.92c-3.68,12.83,6.7-1.87,9.16,5.49-2.82,2.48-.76,3.88-7.33,6.41-4.47-.73-2.39-7.03-8.24-7.33,1.84-2.26,3.08-4.3,6.41-4.58Z"/>
    <path class="cls-6" d="M371.37,24.94c-1.45-.12-2.77,1.59-3.66,1.83-1.2.32-3.66-.77-4.58.92-3.92-.89-4.67-3.1-5.49-6.41,3.57.51,2.8-.5,2.75-3.66,3.33-.48,5.06-1.84,8.57,1.05,3.22,2.65,1.76,5.23,2.42,6.28ZM366.78,18.54c-1.89-1.69-5.64,1.81-4.58,3.63,2.18,3.76,5.74-2.6,4.58-3.63Z"/>
    <path class="cls-2" d="M440.05,44.17c.55.1,1.24-.04,1.83,0,.16.01,1.05,2.55.92-.92.26.11.65-.1.92,0,4.18,1.65,9.66,4.31,13.74,5.49v3.66c-5.55-1.06-10.61-3.71-16.48-3.66-.02-3.59-2.97-2.58-5.49-2.75v-2.75c1.55.36,3.01.63,4.58.92Z"/>
    <path class="cls-4" d="M151.58,25.86c.12.26-3.21,1.9,2.75,2.75.59.08,1.23-.06,1.83,0,.75.36,1.96.34,2.75.92.11.55-.07,1.25,0,1.83v.92c-6.38-1.26-8.88,2.36-14.65-3.66l-.93-2.74-.9.91c-.34-.56-1.07-.75-.92-1.83.05-.32-.1-.84,0-.92,1.74-1.35,8.63-1.21,10.07,1.83ZM155.7,29.52v.92l.46-.46-.46-.46Z"/>
    <path class="cls-1" d="M139.67,24.03c3.73-3.72-3.82-11.63-.38-12.77s6.53,4.67,7.72,7.26c1.7-1.6,1.5-2.46,4.57-1.82-2.99,7.37-4.89,3.72-10.07,7.33-.1.07.05.59,0,.92-.74-.02-1.32-.72-1.83-.92Z"/>
    <path class="cls-8" d="M342.06,49.67c-.02.36.96,1.41.72,2.95-.84,5.52-6.71,7.91-11.71,8.04-.79-4.69.62-5.51,3.66-8.24.83.05,1.25-.48,1.83-.92.34-.25.63-.78.92-.92.57-.28,1.3-.79,1.83-.92.76-.18,1.89.12,2.75,0Z"/>
    <path class="cls-4" d="M73.74,24.94c.3-.04.61.01.92,0-.97,7.23,1.78,3.69,6.41,4.58.12,3.01,3.91,3.92,6.41,4.6l-.92.9-3.66.92c-4.14-.59-6.9-.94-10.11-4.09-.98-.96-4.94-6.03-2.72-6.9.69-.27,2.6.14,3.66,0Z"/>
    <path class="cls-8" d="M565.51,49.67c-3.88.69.03-3.58-.92-4.57-1.75-1.82-2.85,7.21-6.41-.92,2.62-5.63,13.71-9.52,10.79,2.09-.88,3.49-3.23,3.07-3.46,3.4Z"/>
    <path class="cls-7" d="M103.04,35.93v2.75c-2.67.07-8.05-.19-10.07,0-.2-.34-.85-.68-.92-.92-.9-3.22-1-1.52-4.58-1.83-.3-.03-.61.03-.92,0v-.92l.92-.9c-2.51-.68-6.3-1.58-6.41-4.6,1.51.29,6.17,2.06,6.4,1.83,1.89-1.82-4.34-2.56-1.83-3.66,8.84,5.4,4.48,7.22,17.4,8.24Z"/>
    <path class="cls-11" d="M489.5,15.78c.46,1.96-1.14,5.45,1.83,6.41-1.07.52-5.6,4.51-6.41,3.66-.49-.52,1.54-3.79.9-4.57-.86-1.04-3.6,7.76-6.39-2.74-1.28,9.54-1.67,4.88-4.59,1.83,4.01.97,3.45-3.79,5.05-4.57,2.13-1.03.75,2.44,1.85,2.8,4.27,1.41,5.76-1.17,6.83-4.64.23.72.83,1.48.92,1.83Z"/>
    <path class="cls-9" d="M344.81,40.51c.9-.1,1.84.06,2.75,0,.84,1.71-2.83,3.05-4.58,3.66-5.29,1.86-13.37,1.82-18.32,3.66l-1.83-2.75c.6-.03,2.24-.78,3.66-.92,1.08,5.24,1.62.14,1.83,0,3.38-2.19,12.27-3.21,16.48-3.66Z"/>
    <path class="cls-12" d="M141.51,60.66c-8.49,3.44-16.86,6.1-10.07-6.41,4.42,1,6.77,3.69,10.07,6.41Z"/>
    <path class="cls-2" d="M484.92,47.84c7.92,6.82,14.97,10.14,25.64,10.07.33.89,1.11.75,1.83.92v.92c-2.43,0-4.91.11-7.33,0h-.92c-.61-.04-1.23.05-1.83,0-1.35-.11-2.97-.74-4.58-.92-2.17-.24-4.26-.65-6.41-.92,1.24-1.51.57-1.04,0-1.83-.25-.35-.6-.63-.92-.92s-.6-.62-.92-.92c-3.85-3.51-2.76-2.57-5.49-6.41h.92Z"/>
    <path class="cls-14" d="M263.3,31.35c-.72-.61-4.07-.59-5.09-2.77-1.59-3.38,7.64-6.51,9.71-6.05,3.54.79,2.34,3.89,1.79,6.07l-6.41,2.75Z"/>
    <path class="cls-5" d="M549.03,37.76c.04.61-.03,1.22,0,1.83-1.49.59-6.37,2.12-7.33,2.75-5.09-1.09-6.69,5.64-7.33-2.75.15-.13,1.08-4.38,2.74-2.74.61.6-2.56,4.11.45,3.65l4.14-6.4c3.73,1.14,4.49,2.58,7.33,3.66Z"/>
    <path class="cls-12" d="M169.89,23.11c-1.56-7.38-2.81-14.55,7.14-8.57,1.3.78,1,2.09,1.1,2.16-1.59,3.77-4.53,5.15-8.24,6.41Z"/>
    <path class="cls-2" d="M322.83,45.09l1.83,2.75c-.45.17-2.42,3.32-4.58,2.75,0-.31.08-.79,0-.92-1.06-1.59-5.71.86-8.24,0,.07-.04-.26-1.34.18-1.63.39-.26,6.05-.12,3.48-2.03-.15-.11-2.99-.11-3.66,0-2.39-1.04-3.59-2.14-5.49-3.66l1.83-1.83c4.44,3.58,9,4.81,14.65,4.58Z"/>
    <path class="cls-11" d="M490.42,35.93c2.47,1.18,7.83,5.13,7.33,8.24-3.77,1.54-6.39,3.32-10.99.92,11.02-.8,3.59-8.17-3.66-7.33.91-7.82,1.46-2.31,5.27-1.03,1.09.37,1.96-.85,2.06-.81Z"/>
    <path class="cls-12" d="M398.84,51.5c5.85.3,3.77,6.59,8.24,7.33-9.71,3.74-16.92,3.35-8.24-7.33Z"/>
    <path class="cls-6" d="M6.89,42.34c3.62.27,6.84,2.45,6.41,6.41-2.42-.04-1.84.64-2.75,2.75-2.54-.17-2.44,2.83-7.33-.92l3.66-8.24Z"/>
    <path class="cls-7" d="M169.89,24.03c3.86,6.29,5.55-.09,5.95,0,1.93.46,3.35,4.57,4.13,5.49,2.5,4.51-.93,5.32-4.58,3.66-.29-.31-.65-.58-.92-.92l-.92-.92c-2.24-3.27-2.52-3.26-3.66-7.33Z"/>
    <path class="cls-2" d="M183.63,32.27c.22.28-.22,1.54,0,1.83,2.17,2.87,4.65,5.25,6.41,8.24-8.14-3.73-8.28-2.28-14.65-9.16,3.65,1.66,7.08.84,4.58-3.66.72.86,3.02,1.93,3.66,2.75Z"/>
    <path class="cls-6" d="M306.35,57.91l1.83,6.41c-1.76,2.77-4.26,2.97-7.33,2.75.52-2.39,1.83-7.3-.92-8.24,4.48-2.52,5.92-.78,6.41-.92Z"/>
    <path class="cls-2" d="M119.53,30.44c1.13.51,3.06,3.68,5.49,4.58v3.66c-.61.02-1.23-.05-1.83,0-.03-.72-.75-1.33-.92-1.83-.13-.39.27-1.37-.14-1.69-.56-.42-1.32-.02-1.69-.14-3.43-1.16-5.98-.95-10.07-2.75,5.04-3.38-.69-3.27-2.75-6.41,2.63.75,9.33,3.41,11.91,4.58Z"/>
    <path class="cls-4" d="M337.48,46.92v3.66c-.28.14-.58.66-.92.92-.86-.07-1.26.4-1.83.92-3.04,2.73-4.45,3.55-3.66,8.24-.21,0-2.22,2.36-2.77-1.41-.88-6,4.07-10.67,9.18-12.33Z"/>
    <path class="cls-3" d="M483.09,37.76c7.26-.84,14.68,6.52,3.66,7.33-.3.02-.61,0-.92,0-.14,0-1.43-.76-2.75-.92v-3.66c0-.89-.1-1.87,0-2.75Z"/>
    <path class="cls-8" d="M85.64,27.69c-2.52,1.1,3.72,1.84,1.83,3.66-.24.23-4.89-1.54-6.4-1.83-4.63-.89-7.38,2.65-6.41-4.58,5.2-.23,6.37-.08,10.99,2.75Z"/>
    <path class="cls-9" d="M113.12,35.93l3.66.92c1.14.13,2.48,0,3.66,0h1.83c.16.5.89,1.12.92,1.83-4.53.37-5.94,1.51-9.16,2.75-2.38.18-2.15,0-.92-1.83,1.36-.23,2.15.68,1.84-1.36-.41-1.37-1.74.45-1.84.45-3.33-.06-6.74-.09-10.07,0v-2.75c3.31.26,6.75-.16,10.07,0Z"/>
    <path class="cls-4" d="M373.2,42.34c1.42,3.08-6.57,5.97-4.58,7.33-2.04,1.2-3.48,3.09-6.41,2.75.5-6.92,5.64-8.34,10.99-10.07Z"/>
    <path class="cls-4" d="M266.97,43.26l-.92,2.75c-2.69-.2-5.31,1.19-8.24.92,1.16-1.2.55-3.71.92-4.58.1-.24,3.59.64.92-3.66,6.77,1.33,4.58,3.09,7.33,4.58Z"/>
    <path class="cls-7" d="M371.37,24.94c1.98,3.14,12.24,6.94,14.65,10.99-1.07-.02-2.27.91-2.75.92-4.37-4.76-9.65-7.5-15.57-9.16v-.92c.89-.24,2.22-1.95,3.66-1.83Z"/>
    <path class="cls-9" d="M440.97,36.85c.77,2.41,1.11,4.23,2.75,6.41-.26-.1-.65.11-.92,0s-.65.11-.92,0c-.63-.25-1.21-.66-1.83-.92-1.56-.64-3-1.05-4.58-1.83l-4.58-9.16c4.06.96,4.56,7.41,10.07,5.49Z"/>
    <path class="cls-2" d="M113.12,39.59c-1.24,1.83-1.46,2.01.92,1.83-.74.28-2.25,2.17-3.66,2.75-1.77.73-8.55,1.73-10.99,2.74.39-2.4,8.45-3.19,3.66-5.48,4.26-1.34,6.16-1.17,10.07-1.83Z"/>
    <path class="cls-12" d="M330.16,26.77c.29.83,2.33,4.1,2.75,4.58h-10.07c-1.96-6.81,3.13-5.5,7.33-4.58Z"/>
    <path class="cls-14" d="M258.73,38.68v3.66c-.36.87.24,3.38-.92,4.58-7.49-.71-8.91-8.97.92-8.24Z"/>
    <path class="cls-7" d="M190.04,36.85c-1.63,4.18-3.59-1.66-6.41-2.75-.22-.29.22-1.56,0-1.83l3.66-4.58c.48.91,2.59,1.29,3.31,4.56.55,2.48-.61,4.31-.57,4.6Z"/>
    <path class="cls-4" d="M320.08,49.67c.08.12,0,.6,0,.92.04,3.05-8.67,6.72-10.49,9.21-.67.93-.33,2.81-1.42,4.53l-1.83-6.41c5.95-1.62,8.23-6.37,13.74-8.24Z"/>
    <path class="cls-2" d="M82.9,38.68c.23.45,1.04,1.61.92,1.83-.39.03-.8.52-.92.92-.41.09-1.52.11-1.83,0-.81-.27,2.17-3.05-3.66,0-1.91,1-2.68,1.78-4.58,2.75.86-2.97-2.74-1.14-5.49-.92-1.67.14-5.23,2.57-4.58-.91,2.51-.62,6.27-.36,8.52-.94,1.02-.26.55-1.79.64-1.81,2.54-.59,7.92-.53,10.99-.92Z"/>
    <path class="cls-7" d="M430.89,31.35l4.58,9.16c-5.51-2.74-7.57-2.71-10.07-9.16,1.66.25,4.01-.35,5.49,0Z"/>
    <path class="cls-9" d="M435.47,43.26v1.83h-2.75c-2.14,0-5.47-.36-7.33,0,.54-2.95-1.18-1.42-2.75-1.83l.92-2.75c3.73.99,8.08,1.86,11.91,2.75Z"/>
    <path class="cls-7" d="M432.72,46c.14-.01,2.48-.02,2.75,0,2.52.17,5.48-.84,5.49,2.75-1.54.01-5.12.4-6.41.92-5.72-5.97-5.9.37-6.41.92-.33.36-1.42.51-1.83.92l-1.83-2.75c2.9-1.63,4.92-2.39,8.24-2.75Z"/>
    <path class="cls-14" d="M299.94,58.83c2.75.94,1.44,5.85.92,8.24-7.61-.56-6.47-5.12-.92-8.24Z"/>
    <path class="cls-7" d="M107.62,25.86c2.05,3.14,7.78,3.03,2.75,6.41-4.74-2.08-5.8-2.34-8.24-7.33,1.73.37,3.83.44,5.49.92Z"/>
    <path class="cls-14" d="M513.04,26.89c3.55-.8,6.72,6.89-.19,6.38-5.66-.42-2.49-5.78.19-6.38Z"/>
    <path class="cls-8" d="M339.31,34.1c-5.09.67-4.68-.74-6.41-2.75-.41-.48-2.46-3.75-2.75-4.58,8.67,1.9,5.53,2.87,9.16,7.33Z"/>
    <path class="cls-7" d="M377.78,41.43c.55-.13,1.34.15,1.83,0l.92.92c-.77.68-1.99,3.37-2.75,4.58-1.03-3.86-6.65,1.27-9.16,2.75-1.99-1.36,5.99-4.25,4.58-7.33,1.18-.38,3.14-.58,4.58-.92Z"/>
    <path class="cls-4" d="M301.77,32.27c1.69,2.38,4.23,6.49,6.41,8.24l-1.83,1.83c-2.9-2.31-6.66-4.94-6.41-9.16.02-.32-.09-.79,0-.92s.62.1.92,0c.24-.08.6.05.92,0Z"/>
    <path class="cls-11" d="M468.44,41.43c-.26,2.27-.52,4.54,1.83,5.49-4.64-.26-6.49-.28-9.16-4.58,1.8-1.28,4.1-1.02,6.41-1.83l.92.92Z"/>
    <path class="cls-14" d="M6.89,42.34l-3.66,8.24c-5.72-4.38-3.41-8.77,3.66-8.24Z"/>
    <path class="cls-8" d="M428.14,50.58l2.75,1.83c-2.03,1.11-10.42,9.97-10.99,2.75,3.97.82,4.46-1.75,6.41-3.66.41-.4,1.5-.56,1.83-.92Z"/>
    <path class="cls-14" d="M161.65,30.44l-2.75.92c-.07-.59.11-1.28,0-1.83-.53-2.69-2.8-8.57,2.17-6.3,3.41,1.56.46,5.88.57,7.21Z"/>
    <path class="cls-8" d="M81.06,41.43c-2.86,2.18-3.76,7.54-7.33,8.24l-.92-1.83,4.58-6.41c5.83-3.05,2.85-.27,3.66,0Z"/>
    <path class="cls-4" d="M44.43,47.84v1.83c-3.91.43-7.88,1.43-11.91,1.83-.14-.38-.53-.87-.92-.92,2.15-2.79,8.97-2.22,12.82-2.75Z"/>
    <path class="cls-6" d="M451.96,13.95c2.42,2.36-3.17,9.12-6,3.64-2.06-3.97,5.09-4.53,6-3.64Z"/>
    <path class="cls-4" d="M269.71,28.61c-.26,1.01-2.03,1.71-1.71,3.9.13.92,2.75,4.88,3.54,6.17h-.92c-1.75-2.1-5.19-5.52-7.33-7.33l6.41-2.75Z"/>
    <path class="cls-2" d="M152.49,25.86h-.92c-1.44-3.05-8.33-3.19-10.07-1.83,5.18-3.6,7.08.05,10.07-7.33h.92c-.03,3.11-1.89,6.28,0,9.16Z"/>
    <path class="cls-4" d="M233.08,43.26c1.43,1.08,2.81,4.7,3.66,5.49l-.92,1.83c-2.51-2.21-6.6-4.49-6.41-8.24.94-.1,2.61.88,3.66.92Z"/>
    <path class="cls-2" d="M282.54,38.68c-.26,1-1.68,6.11-1.83,6.41-.11.22-.65.53-.92.92-.79-1.36-1.04-1.85-2.75-1.83v-4.58c.06-.58-.15-1.46,0-1.83l5.49.92Z"/>
    <path class="cls-9" d="M288.03,48.75l.92.92c.57.09,1.23-.04,1.83,0-.51,1.16-1.72.88-2.75.92-1.11.04-2.66.16-3.66,0-.21-.34-.55-.82-.92-.92-2.17-.59-4.26-1.24-6.41-1.83.64-.67,2.34-1.22,2.75-1.83.26-.39.8-.7.92-.92,1.53,2.84,4.64,3.01,7.33,3.66Z"/>
    <path class="cls-2" d="M424.48,48.75l1.83,2.75c-1.95,1.91-2.45,4.48-6.41,3.66-.29-3.68,2.05-4.98,4.58-6.41Z"/>
    <path class="cls-6" d="M502.32,59.74c-.51,5.97-10.15,7.19-4.58-.92,1.61.18,3.23.8,4.58.92Z"/>
    <path class="cls-5" d="M202.86,16.69c-2.35,2.11-9.33-2.14-5.38-4.48,2.86-1.69,6.86,3.15,5.38,4.48Z"/>
    <path class="cls-4" d="M428.14,50.58c.51-.54.69-6.88,6.41-.92-.21.08-1.82,1.75-3.66,2.75l-2.75-1.83Z"/>
    <path class="cls-7" d="M163.48,33.18c1.58,1.71,10.36,4.7,7.33,6.41-.26-.11-.67.11-.92,0-3.9-1.79-5.55-4.49-7.33-5.49l.92-.92Z"/>
    <path class="cls-1" d="M131.43,17.62c1.05-.01,2.88-1.57,3.72-.4.16.23,3.79,6.51.86,4.98-.59-.36-2.41.29-3.75-1.3-1.01-1.19-.51-2.57-.83-3.28Z"/>
    <path class="cls-1" d="M554.52,35.93l-2.75,1.83c-.51-.15-1.38.17-1.83,0l-.92-3.66c4.13-5.55,4.52.1,5.49,1.83Z"/>
    <path class="cls-9" d="M87.47,37.76c1.52-.09,3.06.06,4.58,0,.07.24.72.58.92.92-.3.03-.61-.03-.92,0l-2.75.92c-1.87.29-3.09.72-5.49.92.13-.23-.69-1.38-.92-1.83,1.23-.15,2.34-.78,4.58-.92Z"/>
    <path class="cls-8" d="M282.54,38.68l-5.49-.92c1.41-3.46,6.99-4.86,5.49.92Z"/>
    <path class="cls-9" d="M268.8,43.26l.92.92c1.73.63,1.6.69,3.66.92.6.07,1.23-.05,1.83,0,.5.84.75,1.79.92,2.75-3.97-.96-5.78-1.51-10.07-1.83l.92-2.75c.38.21,1.45-.2,1.83,0Z"/>
    <path class="cls-4" d="M13.3,48.75c1.2.02,4.87,1.26,5.49,2.75-.24.04-.61.69-.92.92-2.14-.02-4.8-.75-7.33-.92.91-2.11.33-2.79,2.75-2.75Z"/>
    <path class="cls-14" d="M451.04,27.69c3.73,3.78-1.37,6.78-4.58,3.66l4.58-3.66Z"/>
    <path class="cls-9" d="M183.63,34.1c2.82,1.09,4.78,6.93,6.41,2.75.26,1.62,1.61,3.53,2.75,4.58l-.92,1.83c-.51-.3-1.28-.66-1.83-.92-1.76-2.99-4.24-5.37-6.41-8.24Z"/>
    <path class="cls-14" d="M360.38,17.62c.06,3.16.82,4.17-2.75,3.66-1.69-6.82.43-3.33,2.75-3.66Z"/>
    <path class="cls-6" d="M451.04,27.69l-4.58,3.66c-3.21-3.12,1.68-6.6,4.58-3.66Z"/>
    <path class="cls-7" d="M326.49,31.35v4.58c-2.22-1.3-2.94-2.05-3.66-4.58h3.66Z"/>
    <path class="cls-11" d="M469.35,15.78c2.43-.66,1.94,1.82,2.75,2.75-.65.36-.98,1.12-.92,1.83-3.54.46-3.44-2.61-3.66-2.75,2.72.34,1.5-.37,1.83-1.83Z"/>
    <path class="cls-12" d="M483.09,44.17c1.32.16,2.6.92,2.75.92l-.92,2.75h-.92c-.62-.87-2.27.55-2.75-2.75-.04-.27-.03-.64,0-.92.6.05,1.24-.07,1.83,0Z"/>
    <path class="cls-2" d="M145.17,45.09c3.9,2.17,1.38,2.23,0,3.66-.68.7-.68,2.06-1.82,1.83v-4.57c.48-.17,1.04-.67,1.82-.92Z"/>
    <path class="cls-9" d="M342.06,46c-.09.54-.02,1.26,0,1.83-1.08.43-2.32.12-2.75,1.83-.53.13-1.26.64-1.83.92v-3.66c1.53-.5,2.84-1.25,4.58-.92Z"/>
    <path class="cls-2" d="M163.48,33.18l-.92.92c-.45-.25-3.46-1.79-3.66-1.83v-.92l2.75-.92c.03.29,1.45,2.33,1.83,2.75Z"/>
    <path class="cls-4" d="M51.76,46c.16.18,2.55-.56,1.83,1.83-1.85.18-3.64.68-5.49.92v-.92c.36-.07,2.19-2.28,3.66-1.83Z"/>
    <path class="cls-4" d="M67.33,43.26c2.76-.23,6.35-2.05,5.49.92-.73.37-1.48,1.67-1.83,1.83-.25.12-.66-.11-.92,0l-2.75-2.75Z"/>
    <path class="cls-2" d="M27.95,52.42c-3.3.2-6.76.03-10.07,0,.3-.22.68-.88.92-.92,2.34-.39,6.46-.66,9.16-.92v1.83Z"/>
    <path class="cls-8" d="M277.04,44.17c1.71-.02,1.96.47,2.75,1.83-.41.61-2.11,1.17-2.75,1.83-.28-.08-.63.07-.92,0-.16-.96-.42-1.9-.92-2.75.2.02.7-.91.92-.92.3-.01.61,0,.92,0Z"/>
    <path class="cls-8" d="M87.47,35.93c3.58.31,3.68-1.39,4.58,1.83-1.52.06-3.06-.09-4.58,0v-1.83Z"/>
    <path class="cls-9" d="M548.11,59.74c.9-.08,1.85.09,2.75,0v1.83c-1.77-.05-3.95-1.08-5.49-.92.52-1.2,1.74-.82,2.75-.92Z"/>
    <path class="cls-6" d="M259.64,38.68c2.68,4.3-.82,3.42-.92,3.66v-3.66c.3.02.63-.06.92,0Z"/>
    <path class="cls-9" d="M577.42,57.91c5.17-.21,6.14-.1,0,1.83v-1.83Z"/>
    <path class="cls-8" d="M152.49,25.86c.97.14,1.45,1.6,1.83,1.83v.92c-5.96-.85-2.62-2.48-2.75-2.75h.92Z"/>
    <path class="cls-7" d="M385.1,40.51c1.37-.56,4.79-4.39,4.58,0h-4.58Z"/>
    <path class="cls-3" d="M77.4,41.43l-4.58,6.41h-.92c.02-.39-.75-1.3-.92-1.83.35-.16,1.1-1.46,1.83-1.83,1.9-.96,2.67-1.75,4.58-2.75Z"/>
    <path class="cls-9" d="M559.1,56.99c1.07-9.38,1.61-.37,1.83,0-.61,0-1.22,0-1.83,0Z"/>
    <path class="cls-7" d="M271.55,38.68c.82,1.32,3.39,4.2,4.58,5.49-.21,0-.71.93-.92.92-.65-1.1-1.54-1.42-1.83-1.83-1.05-1.49-1.97-3.64-2.75-4.58h.92Z"/>
    <path class="cls-9" d="M31.61,50.58c.39.04.77.53.92.92-1.43.14-2.91.81-4.58.92v-1.83c1.05-.1,2.62-.12,3.66,0Z"/>
    <path class="cls-3" d="M381.44,39.59v.92c-.4.28-1.38.78-1.83.92-.49.15-1.28-.13-1.83,0v-1.83c1.09-.02,2.73-.19,3.66,0Z"/>
    <path class="cls-12" d="M96.63,55.16c-1.12.1-5.9.22-6.41,0,1.21-1.52,5.2-1.52,6.41,0Z"/>
    <path class="cls-14" d="M549.94,37.76c-.27-.1-.65.1-.92,0-.08-1.24-1.72-1.36,0-3.66l.92,3.66Z"/>
    <path class="cls-2" d="M70.07,38.68c.49,3.36-2.6,2.01-2.75-.92,1.04.1,1.82.54,2.75.92Z"/>
    <path class="cls-9" d="M48.1,47.84v.92c-1.23.16-2.44.78-3.66.92v-1.83c1.15-.16,2.59.21,3.66,0Z"/>
    <path class="cls-2" d="M72.82,47.84l.92,1.83c-4.62.9-1.86-1.3-1.83-1.83h.92Z"/>
    <path class="cls-2" d="M367.7,26.77v.92c-1.18-.33-3.29.29-4.58,0,.92-1.69,3.38-.59,4.58-.92Z"/>
    <path class="cls-7" d="M548.11,59.74c-1.01.09-2.22-.29-2.75.92-.32.03-.69-.08-.92,0,.12-.55-.18-1.47,0-1.83l3.66.92Z"/>
    <path class="cls-6" d="M554.52,35.93c.2.35-.18,1.36,0,1.83-.41-.17-1.29.14-1.83,0-.29-.08-.64.08-.92,0l2.75-1.83Z"/>
    <path class="cls-8" d="M435.47,45.09v.92c-.27-.02-2.61-.01-2.75,0v-.92h2.75Z"/>
    <path class="cls-7" d="M120.44,35.02c.37.13,1.13-.28,1.69.14.42.31.02,1.3.14,1.69h-1.83v-1.83Z"/>
    <path class="cls-2" d="M328.32,44.17c-.21.14-.75,5.24-1.83,0,.6-.06,1.23.04,1.83,0Z"/>
    <path class="cls-7" d="M116.78,36.85l-3.66-.92c2,.1,3.27.87,3.66.92Z"/>
    <path class="cls-7" d="M390.6,36.85c-.45,1.89-1.37.18-1.83,0,.34-1.71,1.66-.02,1.83,0Z"/>
    <path class="cls-7" d="M113.12,38.68c.09,0,1.42-1.82,1.84-.45.31,2.05-.48,1.13-1.84,1.36v-.92Z"/>
    <path class="cls-3" d="M554.52,37.76c.07.17,3.8-.15,1.83,1.83s-1.66-1.76-1.83-1.83Z"/>
    <path class="cls-2" d="M86.56,35.02v.92c-1.19-.13-2.48.17-3.66,0l3.66-.92Z"/>
    <path class="cls-8" d="M73.74,24.94c-1.06.14-2.97-.27-3.66,0,.39-1.41,3.36-1.35,3.66,0Z"/>
    <path class="cls-3" d="M441.88,43.26v.92c-.59-.04-1.28.1-1.83,0v-1.83c.63.26,1.2.66,1.83.92Z"/>
    <path class="cls-9" d="M515.14,59.74h-2.75v-.92c.3.07.65-.08.92,0,.85.27,1.2.6,1.83.92Z"/>
    <path class="cls-3" d="M347.56,40.51c-.9.06-1.85-.1-2.75,0v-.92c.9.35,1.99-.62,2.75.92Z"/>
    <path class="cls-3" d="M404.33,35.93c2.2.99,2.77,2,0,1.83v-1.83Z"/>
    <path class="cls-7" d="M92.05,38.68c-.14.02-1.36.7-2.75.92l2.75-.92Z"/>
    <path class="cls-3" d="M275.21,45.09c-.6-.05-1.23.07-1.83,0v-1.83c.29.42,1.18.73,1.83,1.83Z"/>
    <path class="cls-8" d="M513.31,57.91v.92c-.27-.08-.62.07-.92,0-.72-.17-1.5-.02-1.83-.92.92,0,1.83,0,2.75,0Z"/>
    <path class="cls-3" d="M172.64,40.51c-.51,1.72-2.18.06-2.75,0v-.92c.25.11.65-.11.92,0,.49.2.92.6,1.83.92Z"/>
    <path class="cls-4" d="M177.22,41.43l-1.37.91-.46-.91c.5.16,1.32-.15,1.83,0Z"/>
    <path class="cls-3" d="M557.26,42.34c-.46.69-1.55-.84-.89-1.82.46-.69,1.55.84.89,1.82Z"/>
    <path class="cls-7" d="M285.28,55.16c-.3.04-.62-.04-.92,0,.13-.14.44-4.45.92,0Z"/>
    <path class="cls-9" d="M144.25,28.61c-.6-.63-1.15-.7-1.83-1.83l.9-.91.93,2.74Z"/>
    <path class="cls-7" d="M156.16,28.61c-.6-.06-1.24.08-1.83,0v-.92c.46.28,1.29.65,1.83.92Z"/>
    <path class="cls-8" d="M284.37,55.16c-1.42.2-1.74-.01-1.83,0,.51-.1,1.69.16,1.83,0Z"/>
    <path class="cls-13" d="M294.44,34.1c-1-.02-.85-.91-.92-.92l.92.92Z"/>
    <path class="cls-13" d="M304.51,32.27c-.3.03-.61-.02-.92,0h.92Z"/>
    <path class="cls-8" d="M82.9,41.43c.12-.4.53-.88.92-.92-.2.36.24.67-.92.92Z"/>
    <path class="cls-4" d="M269.71,44.17l-.92-.92c.52.28.85.89.92.92Z"/>
    <path class="cls-2" d="M174.47,32.27c-.26-.33-.68-.58-.92-.92l.92.92Z"/>
    <path class="cls-8" d="M284.37,50.58c-.4-.07-.77-.52-.92-.92.37.1.71.58.92.92Z"/>
    <path class="cls-4" d="M165.32,40.51h-.92s.44-.05.92,0Z"/>
    <path class="cls-4" d="M161.65,40.51l-.92-.92c.54.08.85.91.92.92Z"/>
    <path class="cls-8" d="M288.95,49.67l-.92-.92c.49.12.83.9.92.92Z"/>
    <path class="cls-8" d="M277.04,40.51c0-.3-.03-.62,0-.92v.92Z"/>
    <path class="cls-8" d="M189.13,45.09l-.92-.92c.39.08.75.88.92.92Z"/>
    <path class="cls-12" d="M505.07,59.74c-.3-.01-.61.02-.92,0h.92Z"/>
    <path class="cls-3" d="M551.77,37.76c.28.08.63-.08.92,0h-.92Z"/>
    <path class="cls-10" d="M219.35,18.53c-.39-7.19,5.22,1.26,6.85.92,1.74-.36,4.05-12.9,4.15,0l2.75-4.57c3.3-.76,1.2,2.8,1.83,3.66.2.27,5.62-2.8,6.39-1.83,1.05,1.33-6.43,6.66,2.75,7.31l-6.4,2.75,5.49.02-3.65,1.84c-.16,1.28,1.75,1.31,2.74,1.82-4.23,2.82-9.58-2.1-5.49,4.58-.98-.87-2.41-1.54-3.66-1.83-4.25-.97-3.63-.31-3.66,4.58-.28,0-.65.06-.92,0,.39-7.66-1.42-4.53-5.03-4.56-1.69-.02,3.3-2.3-3.22-.02-.45.16-1.27-.1-1.83,0,.18-.22-.4-1.82.18-2.52.62-.75,4.2-1.24,4.38-2.51.11-.77-9.45-2.11-.89-2.3-.26-1.57-1.58-1.52-2.75-1.82.56-.38-1.08-3.23,5.47-.45-1.77-2.82-2.22-3.99-5.47-5.05ZM225.76,24.94c-.11.37-.11,2.39,0,2.75.72,2.25,4.55,3.71,6.41,1.83,1.5-1.52.6-6.02-.01-6.41-.21-.14-1.37,1.12-4.57.91-.19-.01-2.14-2.78-1.83.92ZM238.57,23.12c-3.74-.67-3.62,1.62-.46.91.73-.16.5-.14.46-.91Z"/>
    <path class="cls-11" d="M219.35,18.53c3.25,1.06,3.7,2.23,5.47,5.05-6.55-2.78-4.91.07-5.47.45,1.16.3,2.49.25,2.75,1.82-8.56.19,1,1.53.89,2.3-.18,1.28-3.76,1.76-4.38,2.51-.59.71,0,2.3-.18,2.52-3.14,3.83-6.13,1.23-5.51-2.28.13-.74,4.36-.76,5.5-1.4-3.48-2.55-8.61-5.1-.91-5.48.53-.03,1.7-.03,1.83,0-.1.06-1.77.07-1.83,0-.13-.14.34-1.92-.24-2.44-1.63-1.46-4.77-1.33-4.33-3.97,1.79.98,5.05.47,6.4.91Z"/>
    <path class="cls-11" d="M220.26,33.18c6.52-2.28,1.53,0,3.22.02,3.61.04,5.41-3.1,5.03,4.56-3.44-.77-1.45-3.06-3.23-3.66-2.54-.86-5.13,5.25-5.01-.91Z"/>
    <path class="cls-11" d="M233.08,33.18c-.19.99.29,4.28,0,4.58-.13.14-2.83-.02-3.67,0,.03-4.89-.58-5.55,3.66-4.58Z"/>
    <path class="cls-11" d="M218.9,35.95c.7.4.36.44,0,.89-1.36,1.74-1.93.43,0-.89Z"/>
    <polygon class="cls-11" points="211.56 16.7 212.02 17.16 211.56 17.62 211.56 16.7"/>
    <path class="cls-7" d="M381.44,40.51v-.92c1.61.33.85.31,0,.92Z"/>
    <path class="cls-14" d="M285.28,9.37c4.77,5.02,6.17,1.01,6.94.91,1-.13,3.14,1.28,5.28.96.74-.11,1.05-4.81,2.43-.04.2.7-.23,2.51.01,2.75.37.36,2.89-1.81,3.21-1.81,1.01.02-2.16,3.64,1.36,2.72.14-.57-.15-1.39,0-1.83.82-.15,2.08.22,2.75,0v.92c-2.36,1.68-.88,3.22-.92,3.66-.08,1.02-1.2,3.05-.9,3.62.09.18,2.17.38,2.73.96s1.24,1.23,1.83,1.83c-6.94-1.64-14.24-.71-21.98-.92,1.71-1.58,4.06-1.23,3.67-3.66-9.36-.71-1.52-3.46-1.84-5.03-.1-.51-4.16-3.88-5.49-4.14v-.92h.92ZM301.76,16.71c-.25-.2-5.38-.8-4.56,1.35,1.28,3.36,6.1-.13,4.56-1.35Z"/>
    <path class="cls-14" d="M288.03,23.11c-.52.48-.8,1.6-1.83,1.83-.16-.51.17-1.38,0-1.83.61.01,1.22-.02,1.83,0Z"/>
    <path class="cls-6" d="M299.94,11.21c4.23-.19,6.32-3.16,4.58,1.83-.15.43.14,1.26,0,1.83-3.52.92-.34-2.71-1.36-2.72-.32,0-2.83,2.17-3.21,1.81-.24-.23.19-2.05-.01-2.75Z"/>
    <path class="cls-6" d="M306.35,17.62c3.78-.5,5.32,3.06,1.83,4.58-.55-.59-2.63-.78-2.73-.96-.3-.57.82-2.59.9-3.62Z"/>
    <path class="cls-6" d="M307.26,13.04c1.28-.42,4.21-3.61,6.42-2.29l-6.42,3.21v-.92Z"/>
    <path class="cls-6" d="M312.76,24.94c-.81,5.55-1.92-.08-2.75-.92.79.19,1.8.65,2.75.92Z"/>
    <path class="cls-5" d="M285.28,9.37h-.92c-2.27-1.87-.19-2.81.92,0Z"/>
    <polygon class="cls-6" points="305.89 8.46 306.35 8.92 305.89 9.37 305.89 8.46"/>
    <polygon class="cls-6" points="306.8 6.63 307.26 7.08 306.8 7.54 306.8 6.63"/>
    <path class="cls-14" d="M534.37,39.59c.63,8.39,2.23,1.66,7.33,2.75-.35.23-.59.67-.92.92-1.78,1.33-5.19,4.28-.93,4.59-3.48,1.56-.54,4.09-.9,4.55-.29.37-3.63-.88-4.59,3.68-.6-.25-2.1.24-2.75,0-.17-.06.98-.12-1.83-.92-.91-.26-1.88-1.93-3.07-1.74s-3.92,4.82-5.17,3.56,8.45-7.88-2.75-4.57c.73-.8.33-2.95,4.57-2.76l-3.65-2.72,4.57-2.76c3.44.36,4.23.82,4.58-1.83.07-.57.01-1.25,0-1.83h.92c-.51,3.83,2.69.73,4.58-.92ZM534.37,49.66c1.68-1.43-4.74-5.9-5.48-2.27-.51,2.5,4.89,2.77,5.48,2.27Z"/>
    <path class="cls-6" d="M524.3,44.17c-5.12-.53-7.31-3.11-6.4-8.24,3.25,2.01,6.77,6.82,10.98,6.41-.35,2.65-1.14,2.19-4.58,1.83Z"/>
    <path class="cls-6" d="M529.8,40.51h-.92c0-.24-2.13-3.17-.46-3.67.67-.2,1.12,2.91,1.37,3.67Z"/>
    <path class="cls-13" d="M534.37,56.08c.94.4,2.37-.31,3.74,1.29,3.56,4.14-5.34,6.34-3.74-1.29Z"/>
    <path class="cls-13" d="M529.8,55.16c2.81.8,1.67.85,1.83.92,1.04,8.88-4.74,7.17-1.83-.92Z"/>
    <polygon class="cls-14" points="520.18 57.91 520.64 58.37 520.18 58.83 520.18 57.91"/>
    <path class="cls-10" d="M474.85,20.36c2.92,3.06,3.31,7.71,4.59-1.83,2.79,10.5,5.53,1.7,6.39,2.74.64.78-1.39,4.05-.9,4.57.81.86,5.34-3.13,6.41-3.66,11.97-5.88,1,2.62.92,3.21-.06.49,9.12.19-1.83,3.21l5.48,1.83-3.66.91,2.74,3.65c-.71.19-7.27-2.85-4.57.92-.1-.05-.97,1.17-2.06.81-3.81-1.28-4.36-6.79-5.27,1.03-.1.88,0,1.85,0,2.75h-.92c-.3-.03-.62.03-.92,0-.35-3.15-2.3-6.81-5.82-5.52-1.06.38-.5,1.82-.59,1.86-1.61.8-3.18,1.19-4.58,1.83,2.22-5.84-2.32-.19-3.65-4.11l5.48-3.21c-2.34-.18-6.99.76-8.23-1.83l9.15-.02c.92-3.08-6.13-2.12-5.48-5.04.31-1.4,5.27.23,6.38.02-1.21-1.18-2.56-2.27-2.73-4.13-.06-.71.26-1.47.92-1.83.59.67,2.1,1.16,2.75,1.83ZM478.51,26.77c-.42.51-.79,1.17-.92,1.83-1.14,6.1,6.44,4.5,7.32,1.37,1.38-4.89-1-2.41-1.83-2.28-.32.05-.7-.09-.92,0-.11-.51.17-1.66,0-1.83-3.39-3.48-3.5.71-3.66.92Z"/>
    <path class="cls-10" d="M468.44,41.43l-.92-.92c.27-.1.65.1.92,0-.07.28.03.62,0,.92Z"/>
    <path class="cls-10" d="M468.44,40.51c.09-.4.86-.73.92-.92-.27.13-.55.77-.92.92Z"/>
    <path class="cls-10" d="M469.35,39.59c.27-.13.54-.74.92-.92-.14.36-.85.68-.92.92Z"/>
    <path class="cls-13" d="M300.85,32.27c-.3.1-.83-.13-.92,0h.92Z"/>
    <path class="cls-2" d="M138.76,53.33c-1.77-1.39,2.41-2.61,3.64-2.29-.66.73-2.6,3.11-3.64,2.29Z"/>
    <path class="cls-8" d="M491.33,56.08l-.92-.92c.32.29.66.56.92.92Z"/>
    <path class="cls-11" d="M474.85,36.85c.09-.04-.47-1.48.59-1.86,3.52-1.28,5.47,2.37,5.82,5.52-3.74-.43-4.01-1-6.41-3.66Z"/>
    <path class="cls-11" d="M483.09,44.17c-.6-.07-1.23.05-1.83,0,.12-1.22.73-2.44.92-3.66h.92v3.66Z"/>
    <path class="cls-5" d="M366.78,18.54c1.16,1.04-2.39,7.39-4.58,3.63-1.06-1.82,2.68-5.32,4.58-3.63Z"/>
    <path class="cls-8" d="M442.8,43.26c.13,3.46-.76.93-.92.92v-.92c.26.11.65-.11.92,0Z"/>
    <polygon class="cls-8" points="155.7 29.52 156.16 29.98 155.7 30.44 155.7 29.52"/>
    <path class="cls-9" d="M336.57,51.5c-.58.44-1,.97-1.83.92.57-.51.97-.98,1.83-.92Z"/>
    <path class="cls-14" d="M232.17,29.52l-6.41-1.83c-.11-.35-.11-2.37,0-2.75.06-.19,1.43-.6,1.83-.92,3.19.21,4.35-1.05,4.57-.91.61.39,1.51,4.89.01,6.41Z"/>
    <path class="cls-1" d="M232.17,29.52c-1.86,1.88-5.7.42-6.41-1.83l6.41,1.83Z"/>
    <path class="cls-11" d="M238.57,23.12c.04.77.27.75-.46.91-3.16.71-3.28-1.58.46-.91Z"/>
    <path class="cls-1" d="M227.59,24.03c-.4.32-1.78.73-1.83.92-.31-3.7,1.64-.93,1.83-.92Z"/>
    <path class="cls-9" d="M301.76,16.71c1.54,1.22-3.28,4.71-4.56,1.35-.82-2.15,4.31-1.55,4.56-1.35Z"/>
    <path class="cls-2" d="M534.37,49.66c-.59.5-6,.23-5.48-2.27.75-3.63,7.17.83,5.48,2.27Z"/>
    <path class="cls-14" d="M483.09,27.69c.83-.13,3.2-2.6,1.83,2.28-.88,3.13-8.46,4.74-7.32-1.37.33.9,1.12.75,1.83.92,3.26.76,4.17,1.87,3.66-1.83Z"/>
    <path class="cls-6" d="M482.18,25.86c.17.17-.11,1.32,0,1.83-1.06.44-2.33.12-2.75,1.83-.72-.17-1.5-.02-1.83-.92.12-.66.49-1.32.92-1.83l3.66-.92Z"/>
    <path class="cls-1" d="M482.18,27.69c.22-.09.59.05.92,0,.51,3.7-.4,2.59-3.66,1.83.42-1.71,1.68-1.39,2.75-1.83Z"/>
    <path class="cls-14" d="M482.18,25.86l-3.66.92c.17-.2.27-4.4,3.66-.92Z"/>
  </g>
  <g>
    <path class="cls-3" d="M753.28,14.87c.26-.59-.14-2.41.4-3.68,2.22-5.19,13.47-6.17,17.48-2.76,1.77,1.5,2.07,4.47,2.29,4.61.31.19,2.98-1.62,4.31-1.63,4.27-.04,8.9,2.07,11.1,5.89,5.65,9.81-2.53,10.58-2.58,11.76-.04.74,5.56,2.83,3.16,8.68-2.47,6-11.59,6.45-16.91,6.43-.92,0-1.83,0-2.75,0,.3-3.57-1.12-1.06-1.83-.92-.57.11-1.38-.15-1.83,0-.7-7.21-3.18-1.65-5.23-1.11-8.71,2.31-6.58-4.21-1.23-4.92,2.62-.35,4.11,1.43,6.04,1.4,1.56-.02,2.12-1.86,3.61-1.8,1.17.05-.76,3.69,2.29,2.75.36-1.91-.02-2.27-.91-3.66-.46-4.1.62-2.6,3.66-1.83-.19,2.95,4.44,2.9,6.4,4.58.08-3.03-4.44-4.09-6.4-4.58.26-4.13,5.25-.69,8.24-.93-1.76-4.59-7.49-2.27-5.49-7.32,11.89-2.23,3.69-4.82,0-.92h-2.75c.33-1.27,1.84-1.86,2.75-2.75,1.01-1,3.93-2.31,3.67-4.11-.36-2.5-3.45,2.16-3.67,2.28-6.56,3.53-10.43,5.91-4.6-3.22-1.61-.39-2.79,1.28-3.64,2.3-3.91-1.08-2.75-2.94-2.75-6.41-3.27-1.07-2.3,5.05-2.75,5.49-1.42,1.39-4.16-2.28-5.18-2.61-.55-.18-1.15.8-1.22.77-.25-.1-.62.09-.92,0-.57-.16-1.12-2.41-2.75-1.83ZM782.13,16.7v.92l.46-.46-.46-.46Z"/>
    <path class="cls-5" d="M821.05,32.27c3.99.69,12.99.1,14.52,6.17.88,3.47-2.6,4.75-2.59,5.28,0,.74,3.95,1.01,3.26,5.08-.64,3.79-3.53,5.07-5.11,7.28-.96,1.35-.82,2.64-.92,2.75-1.92,2.14-3.99,4.84-7.11,5.32-3.98.61-4.45-1.64-6.16-1.7-.3,0,.17,2.24-5.05,1.87-.03-3.22,1.56-4.79,1.83-8.24h1.83c-.39,8.16,2.8,5.18,1.83-1.83,1.25-4.31,2.9-2.56,6.4-1.84-4.37-3.35-.81-2.05.92-3.21s-2.13-4.05,2.75-3.2c-.17-2.3-3.85.68-4.57,0-.21-.2,2.23-4.38,2.72-5.04-.98-.56-4.35,1.63-4.55,1.39-.17-.21.13-3.76-.01-5.49-.07-.88-1.59-2.58,0-4.58ZM833.87,46.01c-.27-.22-6.9-.93-5.47,1.8,2.11,4.03,7.49-.13,5.47-1.8ZM826.54,59.74c1.36-1.22-3.2-6.64-4.57-5.49-3.29,2.77,1.18,8.51,4.57,5.49Z"/>
    <path class="cls-13" d="M934.61,7.54c-4.92-1.32-1.84,4.52-2.75,5.5-1.33,1.43-6.4-4.5-9.15,1.83-.83-.84-1.61-2.47-1.85-3.65-2.53,7.12-5.46.64-7.31,1.83-1.08.7,4.99,4.77,4.56,7.8-.14.98-3.47.21-4.56.45l3.65,1.84-3.66,1.82c-.24,2.49,5,2.99,0,3.67,2.97,1.95,1.18,2.23.91,5.48-3.93-.74-7.92-3.26-8.55-7.52-.65-4.35,2.83-4.03,3.03-4.43.92-1.82-5.42-3.67-1.31-10,3.73-5.75,8.06-1.97,11.65-2.92s3.93-6.64,12.65-4.02c1.75.53,2.33,2.16,2.68,2.33Z"/>
    <path class="cls-5" d="M935.52,19.45c1.02.62,2.28,1.18,1.83,2.75,1.47.13,5.21.29,6.41,0,11.33,9.76-9.7,18.8-18.32,14.65.07-.28-.06-.62,0-.92.44-2.31,1.63-4.5.92-7.33.11,0,.37-1.56,1.45-1.67s2.64,1.01,3.41.76c.39-.13,5.97-4.95,6.13-5.5-.91-.08-3.43.19-3.66,0-1.25-1.11,1.45-2.3,1.83-2.74ZM939.19,32.26c-1.03-2.21-4.05-3.84-6.39-4.12,2.18,1.25,3.46,4.31,6.39,4.12Z"/>
    <path class="cls-2" d="M723.06,33.18c.39.03.79.52.92.92-6.18,2.11-3.38,3.52-3.66,3.65-1.37.66-5.22-1.59-4.58,1.84-2.7.18-7.25-1.2-6.41,1.83-1.87-.12-5.04-.59-6.41.92-2.35-.31-6.03-.84-8.24-.92-1.22-.04-2.45.02-3.66.01.42,2.15,2.47,1.38,3.66,1.82,4.43,1.65,4.8,1.89,8.24,4.58-1.92,4.25-6.08,1.13-10.07-.92-2.44-1.24-5.4-4.59-8.91-5.28-4.37-.85-12.87-.4-17.64-.21v-1.83c17.15-.53,32.65.82,48.54-4.58,2.09-.71,6.18-1.97,8.24-1.83Z"/>
    <path class="cls-4" d="M1028.02,24.94c1.67-2.69.56-6.15,5.46-10.56,2.79-2.51,14.11-7.43,16.52-5.01,2.27,2.28-2.3,9.7-3.67,11.91-2.08-.63-4.2-1.11-6.41-.92l-.47-.91-1.36.91c-.32.11-.6.7-.92.92-2.38,1.46-6.3,6.04-9.16,3.66Z"/>
    <path class="cls-3" d="M752.37,16.7c-.31.73-2.12.49-1.82,1.82,10.93,3.41-4.04,5.02,1.82,8.24l-3.65.92c2.34-1.05,4.76,1.67,5.49,1.84v.92l-3.65.9c3.68-.59.34,2.99.9,3.67.43.53,3.13-1.18,2.74,1.36-.42,2.69-5.27,3.86-6.4,5.97-6.5-3.68-1.33-7.94-1.75-10.4-.16-.91-3.25-1.18-3.67-3.05-.4-1.74,1.48-2.77,1.66-4.35.14-1.17-1.14-2.74-.7-4.44.73-2.79,6.54-3.67,9.04-3.4Z"/>
    <path class="cls-4" d="M952.92,40.51c-.19-2.32-1.17-4.14-.75-6.62,1.08-6.3,15.16-18.9,14.52-5.77-.47,9.54-7.71,10.6-13.77,14.23-.03-.61.05-1.23,0-1.83Z"/>
    <path class="cls-4" d="M990.47,53.33c0,3.53,1.14,5.33-2.75,6.41-8.25.19-14.83-2.65-17.4-10.99,3.75.79,7.25.77,10.98,2.74-.64-2.46-7.56-2.21-2.74-4.57.1.02.88-1.05,2.01-.76,5.56,1.39,6.96,2.57,9.89,7.17Z"/>
    <path class="cls-2" d="M632.4,41.43c-1.83,1.61-3.69,2.94-5.49,4.58-.74.67-2.78,2.11-2.76,2.29.14,1.01,1.97.18,2.76.46,1.48.52,3.09,1.39,4.58,1.83-1.25,1.17-3.03,1.14-4.58,1.83-6.41-3.48-5.14-.08-5.49,0-8.26,1.9-15.84,4.77-23.81,6.41l-.92.92c-1.73.14-3.25.67-2.74-1.82,4.92.07,9.42-5.04,12.82-6.42.45-.18,1.39.18,1.83,0,.08-.04-.26.91,1.83,0,6.58-2.84,14.62-3.76,16.48-11.91,3.48.8,3.8-2.87,5.49-4.58.37-.37,1.33-.55,1.83-.92-1,1.46-3.29,5.92-1.83,7.33Z"/>
    <path class="cls-7" d="M665.37,25.86c1.57-1.45,3.91-4.55,6.74-3.58,3.89,1.32-.63,6.97-.33,7.24,2.09,1.92,5.19-4.11,6.41-5.48l7.33,5.49c-5.54,2.89-6.71.83-11.24,2.03-2.69.72-9.28,7.16-13.48,7.12,0-.41-.75-1.28-.92-1.83.88-1.39,1.26-4.83,2.75-7.33l1.36,3.65c2.44-2.54,8.84-6.87,1.39-7.32Z"/>
    <path class="cls-2" d="M973.99,39.59v2.75c-.62.16-2.65,2.56-4.57,1.84-.14,1.82,2.62.56,3.66.9l.92.92c1.49.3,3.12.57,4.58.92-4.82,2.36,2.1,2.11,2.74,4.57-3.74-1.97-7.23-1.95-10.98-2.74-2.66-.56-5.28-2.53-7.77-2.59-5.34-.13-14.66,4.49-20.62,4.43.17-.12,1.8-3.11,1.83-3.66.27-.1.65.1.92,0,1.94-.7,2.74-.08,4.58-.92.33-.15.61-.77.92-.92,5.89-1.32,18.93-3.34,23.81-5.49Z"/>
    <path class="cls-10" d="M1064.65,21.28c-1.15-3.25-.68-7.99,2.74-9.63,4.42-2.11,4.33,2.15,4.61,2.3.5.28,4.44-7.47,8.86.73,4.4,8.14,1.87,12.09-7.05,13.01l-1.37-1.83c6.71,1.66,9.03-8.72,2.05-8.05l-9.84,3.47Z"/>
    <path class="cls-2" d="M1060.98,29.52l.92.92c-2.94,1.2-8.25,5.26-10.07,6.41-.98.62-3.49-1.31-2.75,1.83-3.04-.07-6.11.04-9.15.01.14,1.23,3.23,1.41,4.57,1.82-.44,3.42,3.83,4.77,5.49,7.33-3.73-2.13-7.52-2.46-10.07-3.66-2.07-.98-4.53-4.35-8.24-5.49l-.92-3.66c9.36,0,21.95-.31,30.22-5.49Z"/>
    <path class="cls-7" d="M1021.61,32.27v.92c-.07.59.11,1.27,0,1.83-.15.78-.93,1.77-.92,2.75-.91,0-1.84-.04-2.75,0l-.49-.92-1.34.92c-2.9.21-6.65,1.75-10.07.93,1.05,2.19,4.21,1.93,6.41,2.74l4.58,6.41c-5.1-1.95-5.91-5.61-6.41,2.75-2.71-3.53-4.85-9.59-10.07-10.99v-2.75c4.67-.75,17.75-2.54,21.06-4.58Z"/>
    <path class="cls-4" d="M1085.71,35.93c.76-5.5,18.44-3.72,19.23-2.74,3.96,4.92-10.97,9.18-14.65,9.15-2.46-.02-5.11-1.61-7.33-1.83,1.18-2.28,4.47.06,5.36-.17.11-.03.11-1.42,1.25-1.96s6.95-.58,4.37-3.36c-.43-.47-4.65,1.63-6.07,1.81-1.18.15-2.05-.92-2.16-.9Z"/>
    <path class="cls-5" d="M934.61,7.54c.35.17.53,1.45,1.61,1.8,5.1,1.68,6.59-2.03,10.3,5.53-1.96.49-5.66,1.12-7.33,1.83-1.76-2.16-5.13,3.85-7.32,1.83-1.09-1.01,1.76-3.47,1.38-4.55-7.55,7.14-3.55,2.89-6.51,1.86-.49-.17-1.22.9-1.29.87-1.61-.83-1.1-.16-2.75-1.83,2.75-6.33,7.83-.4,9.15-1.83.91-.98-2.17-6.82,2.75-5.5Z"/>
    <path class="cls-4" d="M1049.99,47.84c3.14,1.8,11.08,5.71,9.16,10.07-8.68,1.21-15.35-3.34-18.32-10.99l-.92-.92c-.16-.44.11-1.27,0-1.83,2.55,1.2,6.34,1.53,10.07,3.66Z"/>
    <path class="cls-8" d="M692.84,46.92c4,2.04,8.15,5.16,10.07.92,2.9,2.26,5.16,2.66,5.43,7.87.54,10.64-18.25-1.33-15.5-8.79Z"/>
    <path class="cls-13" d="M803.65,39.59c.22.34.77.62.92.92.42.87,2.16,4.2,1.83,4.58-.57.66-6.37-1.34.91,4.58-.63.23-2.2-.33-2.71.05-.33.25.13,1.45-.04,1.78-.28.55-.72,1.32-.92,1.83-1.99-2.75-3.28,1.65,0,.92-.21.48.39,1.78-.15,2.61-.28.43-1.49,0-1.69.14h-2.75c-.45-2.71-3.86-4.84-3.61-7.84.15-1.85,2.26-2.55,2.5-3.8.45-2.32-.19-4.82.19-6.67,1.8.61,3.59.88,5.49.92Z"/>
    <path class="cls-11" d="M754.2,30.44c-2.29,5.34,1.43,1.46,4.19,1.75,1.75.18,1.17,1.79,1.84,1.93,2.28.48,4.82-4.32,4.05,3.64,1.7.17,1.32-3.19,1.87-3.63.72-.59,4.4,1.6,4.53,1.8.89,1.39,1.27,1.75.91,3.66-3.05.94-1.13-2.7-2.29-2.75-1.49-.06-2.05,1.78-3.61,1.8-1.93.03-3.42-1.75-6.04-1.4-5.35.71-7.48,7.23,1.23,4.92,2.05-.54,4.52-6.1,5.23,1.11-.82.28-2.41,1.3-3.66,1.83-1.22.05-2.45-.07-3.66,0-3.28-1.96-7.58-.82-10.99-2.75,1.13-2.11,5.98-3.28,6.4-5.97.4-2.54-2.3-.83-2.74-1.36-.56-.68,2.78-4.26-.9-3.67l3.65-.9Z"/>
    <path class="cls-2" d="M651.63,40.51l-1.83,1.82c1.07.22,2.82-.28,3.66.01,1.09.38,1.06,1.15,4.58,1.83,5.49,1.06,5.75-.72,11.91,2.75-.33.19-.7.87-.92.92-.32.06-.7-.1-.92,0-1.17.52-2.84-1.06-.92,1.83-.58-.09-1.26.1-1.83,0-2.23-.39-5.5-1.29-8.24-1.83-2.35-.47-6.05-3.22-8.91-3.44-4.26-.34-12.77,3.68-15.82,1.61h1.83s-.91-.92-.91-.92c6.52-3.62,11.86-2.73,18.32-4.58Z"/>
    <path class="cls-2" d="M845.78,22.19c-.12,1.78.24,3.42.87,5.07.81,2.13,6.86,14.42,8.29,8.67h.92c-.5,4.72-7.01,15.83-6.4,16.48.73.78,18.77-6.62,20.14-7.33.35.84,1.08.84,1.83.92.3.03.61-.01.92,0-8.36,5.68-22.43,5.31-29.3,11.91-.56.54-.91,1.02-.92,1.83-4.01-.22-7.91-.73-11.91-.92.1-.11-.05-1.4.92-2.75,10.34,1.26,21.45-3.95,19.95-15.83-.5-3.93-6.27-9.54-7.13-13.48-.28-1.28.19-3.17,0-4.58.46-.16,1.28.13,1.83,0Z"/>
    <path class="cls-2" d="M1085.71,35.93c.11-.02.98,1.04,2.16.9,1.43-.18,5.64-2.27,6.07-1.81,2.58,2.78-3.2,2.8-4.37,3.36s-1.14,1.93-1.25,1.96c-.89.23-4.17-2.11-5.36.17-1.13-.11-2.51-.05-3.66,0-.91.04-1.83-.04-2.74.01-.22,1.1,1.07,1.2,1.83,1.82-5.73-1-6.48-3.11-5.49,2.75-3.88-3.98-12.01-5.78-17.4-6.41v-1.83c14.11.1,14.93,1.95,30.22-.92Z"/>
    <path class="cls-9" d="M937.35,49.67l.92,1.83c-1.51.69-3.39,1.17-4.58,1.83-.76.42-.93,1.01-.92,1.83-.68-.23-2,.21-2.75,0l-.92-.92c-1.91-.29-1.69-.28-3.66,0l-.92.92c-3.98.56-7.89,1.27-11.91,1.83h-.92c-3.06.41-6.14.54-9.16.92v-2.75c2.21-.37,3.78-1.47,6.41-1.83.29-.04.61.01.92,0-.43,3.77,2.25,1.13,3.66.92,2.72-.42,6.08-.49,8.24-.92l.92-.92c4.53-.92,10.21-1.54,14.65-2.75Z"/>
    <path class="cls-6" d="M922.7,14.87c1.65,1.67,1.14,1,2.75,1.83.36,6.08-1.87-.11-2.28,0-4.59,1.16,1.28,4.41-5.05,6.4,3.26,1.62,3.74,5.25,8.24,5.51.71,2.83-.47,5.01-.92,7.33h-.92c-.29.22-1.62-.22-1.83,0,4.8-9.19.84-5.93-2.13-7.32-.61-.29-.97-3.34-2.44-1.83-.27.28-2.69,6.94-2.76,7.32h-.92c.27-3.26,2.06-3.53-.91-5.48,5-.68-.24-1.17,0-3.67l3.66-1.82-3.65-1.84c1.09-.25,4.42.53,4.56-.45.43-3.03-5.64-7.1-4.56-7.8,1.84-1.18,4.77,5.29,7.31-1.83.24,1.19,1.02,2.81,1.85,3.65ZM919.5,16.7v.92l.46-.46-.46-.46Z"/>
    <path class="cls-4" d="M893.4,41.43c-.95,3.93-3.82,1.51-3.65,4.58l7.32-4.58c.14-.01,1.89-1.65,2.74-.91.2.18.36,4.06,2.76,4.58-6.41,7-8.92.8-13.97,1.99-.97.23-7.74,5.98-8.92,7.17,2.17-2.17,3.98-4.9,6.4-6.88.46-2.35-3.19-1.27-4.57-1.36v-1.83c10.72-.56,6.71-3.21,11.91-5.49-.12.86.18,1.99,0,2.75Z"/>
    <path class="cls-1" d="M1064.65,21.28l9.84-3.47c6.98-.67,4.67,9.71-2.05,8.05l1.37,1.83c-1.2.12-2.46-.08-3.66,0,.07-.23,0-.63,0-.92-.06-2.37-2.43-3.64-4.58-2.75-.54-.84-.6-1.85-.92-2.75Z"/>
    <path class="cls-8" d="M1017.03,47.84c1.53.58,2.86,1.21,4.58.92,4.83,11.91-6.22,8.04-10.99,1.83.5-8.36,1.31-4.69,6.41-2.75Z"/>
    <path class="cls-7" d="M1044.5,40.51c4.66,1.43,9.32,2.09,12.83,6.21,2.29,2.69,6.25,10.58,1.82,11.19,1.93-4.36-6.01-8.28-9.16-10.07-1.67-2.56-5.93-3.91-5.49-7.33Z"/>
    <path class="cls-2" d="M734.97,46c4.06.4,9.54.12,13.74,0,.28.32.63.59.92.92,2.05,2.35,1.71,1.17,3.66,1.83,3.56,10.01-5.92-.61-5.49,6.41-2.82-1.35-4.93-3.63-7.33-5.49-.11-.08.31-1.3-.16-1.64-.97-.7-4.27.1-5.34-2.02Z"/>
    <path class="cls-7" d="M884.24,57.91v2.75c-7.75.52-11.86.18-19.23,0,.56-2.11-1.41-1.75-2.75-2.75,7.66-.24,13.98-1.08,21.98,0Z"/>
    <path class="cls-9" d="M709.32,41.43c2.53.16,5.75.51,8.24.92l.92.92c5.45.92,10.99,2.2,16.48,2.75,1.06,2.12,4.37,1.32,5.34,2.02.47.34.05,1.56.16,1.64l-19.23-3.66c-1.95-.82-2.41-.55-3.66-.92-3.96-1.15-10.44-2.18-14.65-2.75,1.37-1.51,4.54-1.03,6.41-.92Z"/>
    <path class="cls-11" d="M753.28,14.87c1.63-.57,2.18,1.67,2.75,1.83,1.68,4.79,9.57,15.47-1.83,12.82-.73-.17-3.15-2.89-5.49-1.84l3.65-.92c-5.86-3.22,9.11-4.84-1.82-8.24-.29-1.33,1.52-1.09,1.82-1.82.17-.41.59-1.1.92-1.83Z"/>
    <path class="cls-7" d="M763.36,52.42v1.83c-.17.06-.87,1.7-2.04,2.04-6.61,1.91-7.46,1.77-13.53-1.12-.43-7.02,9.05,3.6,5.49-6.41.27.09.64-.09.92,0,2.74.92,6.8,3.06,9.16,3.66Z"/>
    <path class="cls-2" d="M992.3,24.03c.64,5.84,1.26,1.96,3.65,0v3.66c-.59.3-1.23.61-1.82.92h-.92c-5.74,3.08-9.38,5.7-14.65,9.16-.56.37-1.25.57-1.83.92-.32-.28-.59-.64-.92-.92,6.15-4.86,4.6-6.67,6.41-11.91,1.85-.12,1.93.8,2.75,1.83.21.26-.2,1.65.01,1.83.63.53,1.45-1.55,1.82-1.83,1.03-.78.63,1.29,1.83-1.83l3.66-1.83Z"/>
    <path class="cls-1" d="M846.69,13.95c-4.68,4.38-13.14,2.23-10.99,10.07-1.14-.5-5.34.5-5.4-3.37-.03-2.02,2.41-1.81,2.53-2.29.21-.81-1.05-4.54.17-5.28,1.92-1.16,4.77,1.96,6.74,1.84.44-.03,2.54-5.83,6.95-.97Z"/>
    <path class="cls-7" d="M1039.92,20.36c2.21-.2,4.33.29,6.41.92-4.36,7.04-5.44,6.53-12.82,9.16l-.92-3.66c1.22-1.17,3.5-4.75,4.58-5.49.31-.22.6-.81.92-.92.42-.14,1.24.05,1.83,0Z"/>
    <path class="cls-6" d="M846.69,13.95c2.56,2.82,3.46,7.19-.92,8.24-.55.13-1.37-.16-1.83,0-1.9.65-4.74-.14-6.41,2.75-.81-.24-1.25-.66-1.83-.92-2.15-7.85,6.31-5.69,10.99-10.07Z"/>
    <path class="cls-6" d="M685.51,18.53c-.59,3.34,3.04,3.96,4.58,6.41-1.27,3.46-1.87,3.16-4.58,4.58l-7.33-5.49c2.62-2.95,1.05-4.82,7.33-5.49Z"/>
    <path class="cls-8" d="M729.47,25.86c-.37,3.02.25,5,3.66,4.58-2.46,5.86-2.06,4.09-6.41,6.41-.43-.82-.53-3.24-.92-3.66-1.25-1.37-2.39-.68-2.75-.92-1.18-.8-2.22-2.17-3.66-2.75,3.61-2.33,5.25-3.59,10.07-3.66Z"/>
    <path class="cls-8" d="M667.2,49.67c2,.31,4.44-.53,6.41.92.07.09,1.38-.33,1.83.64.88,1.89,1.86,5.71-.91,6.68-.13-1.36-2.61-1.36-2.75,0-3.2-.11-3.36-1.44-4.58-1.83l-.92-.92c-.26-.11-.67.12-.92,0v-5.49c.57.1,1.25-.09,1.83,0Z"/>
    <path class="cls-14" d="M869.59,27.69c.46.27,1.4.01,2.28.91.97.99,1.02,2.44,1.38,3.67-1.05.97-2.46,3.12-3.66,3.66-1.83.83-4.4.97-6.41.92.54-4.49-2.37-2.75,2.75-8.24.53-.56.98-.98.92-1.83.89.36,1.87.39,2.75.92Z"/>
    <path class="cls-9" d="M1000.54,36.85v2.75c-1.61-.43-13,.62-15.57.92h-.92c-.47.06-2.36.68-3.66.92-1.81-1.26-2.02-1.44-1.83.92-1.31.28-3.35-.32-4.58,0v-2.75c1.3-.57,1.34-1.45,1.83-1.83.33.28.59.64.92.92.64.54.8.9,1.83.92,2.3.03,8.59-1.44,11.91-1.83l.92-.92c2.44-.3,7.48.27,9.16,0Z"/>
    <path class="cls-6" d="M1147.07,42.34c-.59,2.88,1.16,4.36,2.75,6.41-3.91,6.21-4.08,2.51-8.24,2.75-.11-2.3.92-4.24-1.83-3.66,2.3-3.86-.05-5.6,7.33-5.49Z"/>
    <path class="cls-4" d="M1082.96,44.17c.24.12.66-.12.92,0l.92.92c.43.2,1.54-.21,1.83,0,1.1.8,5.25,6.18,2.75,7.33-.39-1.41-3.36-1.35-3.66,0-2.33,0-6.05-.86-8.24-1.83-.25-1.24.5-1.88.92-2.75,4.02,2.1,2.57.7,1.83-1.83-.14-.48.1-1.26,0-1.83.61.26,2.22-.26,2.75,0Z"/>
    <path class="cls-13" d="M813.72,56.08c-.27,3.46-1.86,5.02-1.83,8.24-7.02-.5-5.29-3.02-7.33-4.58,1.62-.7,4.07-5.08,4.58-5.49,4.42-3.66,5-3.53,4.58,1.83Z"/>
    <path class="cls-6" d="M999.63,14.87c.29,5.77.62,2.54,5.49,4.58-.97,3.45-1.07,3.28-3.66,5.49-3.87.37-5.19-3.96-8.24-5.49,1.76-2.98,3.23-3.67,6.41-4.58Z"/>
    <path class="cls-13" d="M946.51,14.87c1.44,2.93,2.6,6.05-2.75,7.33-1.2.29-4.94.13-6.41,0,.45-1.56-.81-2.13-1.83-2.75,1.76-2.08,1.07-1.65,3.66-2.75,1.67-.71,5.36-1.34,7.33-1.83Z"/>
    <path class="cls-6" d="M737.71,55.16l-1.83,8.24c-4.3.05-4.79-.71-7.33-3.66-2.98-3.22,4.88-5.17,6.41-6.41,1.8.77,1.41.58,2.75,1.83Z"/>
    <path class="cls-7" d="M794.49,56.99v.92c-5.31.89-2.71,1.46-7.32,3.66,3.38-5.56-12.95-5.25-12.84-6.86.07-1.03,1.94.03,2.63-.62.54-.51-.05-2.41.13-2.58.68-.62,13.88,4.98,17.4,5.49Z"/>
    <path class="cls-4" d="M617.75,38.68c-2.37.09-2.9,1.89-3.66,3.66l-6.41,1.83c.99-7.38,8.14-17.37,10.07-5.49Z"/>
    <path class="cls-8" d="M629.65,31.35c4.11-6.62,11.57-10.06,10.99,0-3.56-1.69-4.55.03-6.41,2.75-.5.36-1.46.55-1.83.92l-2.75-3.66Z"/>
    <path class="cls-5" d="M915.38,34.1c.07-.38,2.49-7.04,2.76-7.32,1.46-1.5,1.83,1.54,2.44,1.83,2.97,1.39,6.93-1.87,2.13,7.32-.1.18-.86.39-.92.92-1.9.1-6.98.2-6.41-2.75Z"/>
    <path class="cls-7" d="M924.53,35.93c.16-.12.61.08.92,0-.06.29.07.63,0,.92-2.01,7.92-6.41,12.99-13.74,16.48-.52-.09-1.26-.02-1.83,0-.3.01-.62-.04-.92,0,8.13-5.71,9.32-8.53,13.74-16.48.13-.24-.15-.76,0-.92.21-.22,1.55.22,1.83,0Z"/>
    <path class="cls-13" d="M821.05,32.27c-1.59,2-.07,3.7,0,4.58-.05.74-.63,1.24-.92,1.83h-.92c-.29-.06-.64.08-.92,0-2.05-.62-5.3-.71-5.5-.91-.41-.4.89-4.7-.91-5.5,3.82-4.86,7.43-.3,9.16,0Z"/>
    <path class="cls-12" d="M636.06,61.57c3.8-2.65,5.13-3.21,5.49-8.24,10.89,6.28,6.84,11.34-5.49,8.24Z"/>
    <path class="cls-6" d="M952.92,57.91l-2.74,2.76c7.08,2.26,1.87,1.03,1.82,5.48-.38,0-1.14,1.44-3.68.56-2.81-.97-2.16-2.72-2.73-3.31l1.83-5.49c.63.09,1.36-1.53,5.49,0Z"/>
    <path class="cls-6" d="M886.07,23.11c.93-.18,2.59-.04,3.66,0,.3.01.62-.04.92,0,1.04,3.03.42,4.61-.92,7.33h-3.66c-.03-.3.06-.63,0-.92-.05-.26,1.1-1.62.92-2.26-.75-2.59-5.39.69-5.49,3.18-1.91-.49-2.23-2.07-2.75-3.66,3.4.96,2.58-1.7,2.75-1.83,1.85-1.47,2.42-1.42,4.58-1.83Z"/>
    <path class="cls-5" d="M807.31,41.43c3.75,5.95-.23,4.21,0,5.03.58,2.06,4.35,1.65,0,3.21-7.28-5.93-1.49-3.92-.91-4.58.32-.37-1.41-3.7-1.83-4.58.85.53,1.79.71,2.75.92Z"/>
    <path class="cls-5" d="M811.89,32.27c1.8.8.5,5.11.91,5.5.2.19,3.45.29,5.5.91h1.83c-2.16,4.4-4.82,5.22-6.42,0-1.49,4.99-1.26,3.87-6.4,2.74-.36-.57-.61-1.23-.92-1.83,5.07-1.38,3.96-5.4,4.58-6.41.23-.37.67-.6.92-.92Z"/>
    <path class="cls-4" d="M641.56,53.33c-.36,5.03-1.69,5.6-5.49,8.24-1.61-.4-2.36-.98-3.66-1.83-2.41-12.53,11.14,2.78,3.66-8.24,1.51.56,4.29,1.13,5.49,1.83Z"/>
    <path class="cls-7" d="M636.06,51.5c7.48,11.02-6.07-4.28-3.66,8.24-3.84-2.5-4.36-5.37-6.41-6.41.36-.2.64-.79.92-.92,1.55-.7,3.33-.66,4.58-1.83,1.37.41,3.05.35,4.58.92Z"/>
    <path class="cls-8" d="M893.4,38.68c6.57-2.89,17.13-2.3,9.16,6.41-2.39-.52-2.56-4.4-2.76-4.58-.84-.73-2.59.9-2.74.91-.6.04-1.22-.03-1.83,0-.3.02-.61-.01-.92,0h-.92c.18-.76-.12-1.89,0-2.75Z"/>
    <path class="cls-9" d="M862.26,57.91c1.34,1,3.31.64,2.75,2.75-7.62-.19-15.28-.49-22.89-.92,0-.81.36-1.29.92-1.83,6.39-.15,12.84.2,19.23,0Z"/>
    <path class="cls-4" d="M640.64,31.35c-.37,6.41-4.67,6.95-8.24,10.07-1.46-1.41.83-5.87,1.83-7.33,1.86-2.72,2.85-4.43,6.41-2.75Z"/>
    <path class="cls-8" d="M860.43,19.45c-.78,3.37-2.4,9.21,1.83,6.41-.17.4.11,1.28,0,1.83-1.07,0-2.63-.36-3.49.18-.12.07-.51,1.59-1.09,2.56-2.38-2.17-1.39.04-2.75,1.83-.03-2.72-2.19-9.71-1.83-10.07.56-.56,4.92,1.46,5.48.91.27-.27-.21-2.77,0-3.66h1.83Z"/>
    <path class="cls-9" d="M659.87,36.85c.17.55.92,1.42.92,1.83,0,.12-1.15.21-.92.9,2.21-1.37,5.34.05,6.41.01v1.83c-2.83.11-5.45.7-8.24.92-1.51.11-3.06-.08-4.58,0-.84-.29-2.59.21-3.66-.01l1.83-1.82c1.21-.35,7.78-2.93,8.24-3.66Z"/>
    <path class="cls-7" d="M902.55,55.16v2.75c-3.15.39-6.67,1.4-10.99,1.83-1.1-.67-3.4-1.58-4.58-1.83,4.99-1.62,10.41-1.87,15.57-2.75Z"/>
    <path class="cls-8" d="M1078.38,42.34c.53.44.57,1.3,1.83,1.83.1.58-.14,1.35,0,1.83-2.58-.53-1.48,1.1-1.83,1.83-.41.87-1.17,1.51-.92,2.75-2.53-1.12-4.99-2.22-4.58-5.49-.98-5.86-.23-3.75,5.49-2.75ZM1075.18,44.17v.92l.46-.46-.46-.46Z"/>
    <path class="cls-4" d="M665.37,49.67v5.49c-3.22-1.56-8.35-1.61-8.24-7.33,2.74.54,6.01,1.44,8.24,1.83Z"/>
    <path class="cls-2" d="M869.59,35.93l.92,3.66c-1.55,1.32-2.15,2.56-4.56,3.23-7.07,1.95-3.39-.74-2.77-5.97,2.02.05,4.58-.09,6.41-.92Z"/>
    <path class="cls-4" d="M982.23,25.86c2.3-6.63,9.65-12.54,6.41-.92-1.56.18-1.58,2.53-1.83,2.75-.2.17-1.32-.11-1.83,0-.82-1.03-.9-1.95-2.75-1.83Z"/>
    <path class="cls-13" d="M810.98,33.18c-.62,1.01.49,5.03-4.58,6.41-.27.07-.61-.05-.92,0,.79-3.08-2.12-3.78-4.58-4.58,4.02-3.49,5.08-2.49,10.07-1.83Z"/>
    <path class="cls-5" d="M804.57,51.5c4.26-.5,6.91-2.9,4.58,2.75-.51.42-2.96,4.79-4.58,5.49-1.2-.91-2.47-.62-3.66-.92v-.92c.25-.07.58-.68.92-.92.2-.14,1.41.29,1.69-.14.53-.83-.06-2.13.15-2.61.11-.25-.1-.65,0-.92.2-.51.64-1.29.92-1.83Z"/>
    <path class="cls-7" d="M947.43,57.91l-1.83,5.49c-3.48-3.59-7.66-6.51-12.82-8.24-.02-.82.16-1.41.92-1.83,4.35,2.87,8.77,3.85,13.74,4.58Z"/>
    <path class="cls-9" d="M1032.6,26.77c-1.82,1.74-5.47,2.29-5.49,5.49-1.81.46-3.58,1.05-5.49.92v-.92c.43-.27,5.99-6.65,6.41-7.33,2.86,2.38,6.78-2.21,9.16-3.66-1.08.74-3.36,4.33-4.58,5.49Z"/>
    <path class="cls-9" d="M614.08,42.34c-.77,1.8-1.24,5.15-1.83,6.41-.23.48-1.6,2.58-1.83,2.75-.25.18-1.31-.12-1.83,0-.44.18-1.38-.18-1.83,0,1.11-2.38.6-5.01.92-7.33l6.41-1.83Z"/>
    <path class="cls-4" d="M726.72,36.85c-5.68,3.04-4.46,2.32-10.99,2.75-.65-3.43,3.2-1.18,4.58-1.84.28-.14-2.51-1.55,3.66-3.65.63-.22,1.21-.67,1.83-.92.39.43.49,2.84.92,3.66Z"/>
    <path class="cls-14" d="M952.92,57.91c4.86,1.79,7.15,5.64,1.83,8.24h-.92c-.51.1-1.25,0-1.83,0,.05-4.45,5.26-3.22-1.82-5.48l2.74-2.76Z"/>
    <path class="cls-4" d="M1001.46,24.94c-3.21,2.75-3.18,1.58-5.49,2.75v-3.66c-2.4,1.96-3.02,5.84-3.66,0-.03-.29-.01-.62,0-.92v-.92c.29-1.4.09-1.35.92-2.75,3.05,1.54,4.37,5.87,8.24,5.49Z"/>
    <path class="cls-1" d="M892.48,23.11c4.99,1.5,4.84,4.38.92,7.33h-3.66c1.34-2.72,1.95-4.3.92-7.33.59.08,1.37-.14,1.83,0Z"/>
    <path class="cls-4" d="M1126,50.58v1.83c-5.56-.21-9.29-1.97-13.74-2.75v-.92c3.43.57,9.94,1.38,13.74,1.83Z"/>
    <path class="cls-7" d="M721.23,46c2.25.94,5.64,3.78,9.16,5.49-.63,2.04-2.82,1.99-4.58,1.83-1.99-2.65-7.16-4.59-8.24-8.24,1.25.36,1.71.1,3.66.92Z"/>
    <path class="cls-7" d="M617.75,38.68c.67,4.1-1.07,8.9-5.49,10.07.59-1.26,1.06-4.61,1.83-6.41s1.29-3.58,3.66-3.66Z"/>
    <path class="cls-12" d="M734.97,53.33c-1.53,1.24-9.39,3.19-6.41,6.41-2.93-3.42-2.37-5.9-2.75-6.41,1.76.16,3.95.21,4.58-1.83.84.41,3.16,1.23,4.58,1.83Z"/>
    <path class="cls-10" d="M884.24,19.45c-3.14,2.9,2.79.5,1.83,3.66-2.16.41-2.73.37-4.58,1.83l-2.75-1.83c.37-1.78-.7-2.79,1.46-4.51,3.02-2.4,3.79.8,4.03.84Z"/>
    <path class="cls-4" d="M665.37,25.86c7.45.45,1.05,4.78-1.39,7.32l-1.36-3.65c1.27-2.15.62-1.7,2.75-3.66Z"/>
    <path class="cls-6" d="M860.43,7.54c-2.46,5.67.66,2.58,4.58,4.58-1.48,3.56-2.15,1.2-2.75,1.83h-2.75c-.08-.19-1.89-.8-2.27-1.81-2.21-5.86.16-4.07,3.19-4.6Z"/>
    <path class="cls-4" d="M629.65,31.35l2.75,3.66c-1.7,1.71-2.02,5.38-5.49,4.58,1.24-5.42-.59-2.87,2.75-8.24Z"/>
    <path class="cls-9" d="M1030.76,35.02l.92,3.66c-.48-.15-1.28.13-1.83,0l-.92-.92c-2.26-.36-5.75,0-8.24,0-.01-.97.77-1.96.92-2.75,3.05,0,6.11,0,9.16,0Z"/>
    <path class="cls-4" d="M1012.45,41.43c5.7,2.08,6.79,1.5,9.16,7.33-1.72.29-3.05-.33-4.58-.92l-4.58-6.41Z"/>
    <path class="cls-14" d="M737.71,55.16c.17.16,1.5-.46,2.14,1.09,1.95,4.72,1.17,7.1-3.97,7.15l1.83-8.24Z"/>
    <path class="cls-7" d="M879.66,38.68c-1.09,2.51-2,3.46-3.66,5.49v.92c-.37.1-.71.57-.92.92-.31,0-.61,0-.92,0-.13-1.36-2.61-1.36-2.75,0-.75-.08-1.49-.07-1.83-.92,2.71-1.4,8.2-5.68,10.07-8.24,1.45.19.27,1.21,0,1.83Z"/>
    <path class="cls-12" d="M863.18,24.94c4.17-5.12,10.82-3.45,6.41,2.75-.87-.52-1.86-.55-2.75-.92-.27-.11-.67.12-.92,0-.37-.18-1.12-2.23-2.75-1.83Z"/>
    <path class="cls-14" d="M1005.12,19.45c-4.87-2.04-5.2,1.19-5.49-4.58,5.95-1.7,7.19-1.45,5.49,4.58Z"/>
    <path class="cls-7" d="M1065.56,24.03c2.15-.89,4.52.38,4.58,2.75-3.02-.37-5,.25-4.58,3.66-.82.31-2.88-.32-3.66,0l-.92-.92c.74-.46,4.15-5.32,4.58-5.49Z"/>
    <path class="cls-2" d="M1099.45,46c3.75.94,9.05,2.12,12.82,2.75v.92c-5.52-.96-8.92-1.22-14.65-2.75l1.83-.92Z"/>
    <path class="cls-4" d="M719.4,29.52c1.44.58,2.48,1.95,3.66,2.75v.92c-2.07-.14-6.15,1.12-8.24,1.83-.1-.81.74-1.37.92-1.83v-.92c1.58-2.61,2.06-1.71,3.66-2.75Z"/>
    <path class="cls-14" d="M865.01,12.12c-3.92-2-7.03,1.09-4.58-4.58,4.38-.77,6.68-.48,4.58,4.58Z"/>
    <path class="cls-5" d="M800.9,35.02c2.46.8,5.37,1.5,4.58,4.58-.54.09-1.25.01-1.83,0-1.91-.04-3.69-.3-5.49-.92.56-2.72,1.11-2.24,2.75-3.66Z"/>
    <path class="cls-8" d="M870.5,39.59l-.92-3.66c1.2-.54,2.61-2.69,3.66-3.66,2.04,6.85.58,4.5-2.75,7.33Z"/>
    <path class="cls-2" d="M772.51,44.17c.43,2.32,3.78,4.16,3.66,6.41l-.92.92c-1.84-.08-5.52-5.43-6.41-7.33h.92c.92,0,1.83,0,2.75,0Z"/>
    <path class="cls-4" d="M886.07,29.52c.06.29-.03.62,0,.92.04.44,1.4,1.37,1.83,1.83-4.74,1.83-4.19,3.4-8.24,6.41.27-.62,1.45-1.64,0-1.83,1.4-1.91,2.91-3.82,2.75-6.41.67,0,2.46-1.3,3.66-.92Z"/>
    <path class="cls-14" d="M685.51,18.53c6.22-.67,6.85.24,4.58,6.41-1.53-2.45-5.17-3.07-4.58-6.41Z"/>
    <path class="cls-12" d="M733.14,30.44c-3.41.42-4.03-1.55-3.66-4.58,7.15-.11,5.36.54,3.66,4.58Z"/>
    <path class="cls-12" d="M843.94,22.19c.19,1.41-.28,3.3,0,4.58-2.26-.2-4.32-1.22-6.41-1.83,1.67-2.89,4.51-2.1,6.41-2.75Z"/>
    <path class="cls-14" d="M800.9,29.52c-2.8,2.76-7.13-4.7-3.18-5.48,2.32-.46,4.08,4.6,3.18,5.48Z"/>
    <path class="cls-14" d="M1148.9,42.34l.92.92c3.74,3.2,1.5,3.11,0,5.49-1.59-2.05-3.33-3.53-2.75-6.41.58,0,1.39-.12,1.83,0Z"/>
    <path class="cls-7" d="M952.92,40.51c.05.6-.03,1.23,0,1.83-.63.38-1.61,2.2-2.75,2.75-.24.05-.6.7-.92.92-1.83.84-2.64.22-4.58.92l8.24-6.41Z"/>
    <path class="cls-2" d="M1033.51,30.44c-2.04.73-4.3,1.29-6.41,1.83.03-3.2,3.68-3.75,5.49-5.49l.92,3.66Z"/>
    <path class="cls-1" d="M890.65,20.36l-.92,2.75c-1.07-.04-2.73-.18-3.66,0,.95-3.16-4.97-.77-1.83-3.66,2.64.42,4.03-.05,6.41.92Z"/>
    <path class="cls-9" d="M1082.96,40.51c2.21.22,4.87,1.81,7.33,1.83v1.83c-.96-.26-2.56.17-3.66,0-1.48-2.48-4.71-2.73-7.33-2.75v-.92c1.15-.05,2.53-.11,3.66,0Z"/>
    <path class="cls-2" d="M1135.16,50.58v.92c-2.45.06-5.65,1.05-9.16.92v-1.83c2.8.33,6.22-.09,9.16,0Z"/>
    <path class="cls-7" d="M758.78,45.09c1.21-.07,2.45.05,3.66,0-2.5,1.05-4.7,3.46-8.24,2.75-.45-.09-.77-.88-.92-.92v-.92c1.82-.15,2.6-.9,2.75-.92.9-.09,1.84.05,2.75,0Z"/>
    <path class="cls-12" d="M990.47,53.33c.69,1.08,3.99,5.29,2.74,6.4-.21.19-4.36-.02-5.49,0,3.89-1.08,2.74-2.88,2.75-6.41Z"/>
    <path class="cls-9" d="M886.99,57.91c1.18.25,3.48,1.16,4.58,1.83-2.36.23-4.56.73-7.33.92v-2.75c.87.12,1.96-.17,2.75,0Z"/>
    <path class="cls-9" d="M763.36,52.42c2.58.66,6.66-1.03,9.17,1.37-3.21,1.34-5.82-.67-9.17.46v-1.83Z"/>
    <path class="cls-4" d="M1139.74,47.84c2.75-.58,1.72,1.36,1.83,3.66-1.21.07-2.45-.06-3.66,0-.16-.37-.54-.86-.92-.92.17-1.39,2.46-2.27,2.75-2.75Z"/>
    <path class="cls-14" d="M886.07,29.52c-1.21-.38-3,.91-3.66.92-.28,0-.66.07-.92,0,.11-2.49,4.75-5.76,5.49-3.18.19.64-.97,2-.92,2.26Z"/>
    <path class="cls-4" d="M673.61,50.58c-1.97-1.44-4.41-.61-6.41-.92-1.93-2.89-.26-1.31.92-1.83h.92c.21-.04.58-.72.92-.92,3.27,1.84,1.83,1.28,3.66,3.66Z"/>
    <path class="cls-1" d="M881.49,24.94c-.17.13.66,2.8-2.75,1.83-.09-.28-.86-.65-.93-1.48-.11-1.29.85-1.8.93-2.18l2.75,1.83Z"/>
    <path class="cls-8" d="M1070.14,26.77c0,.29.07.69,0,.92-.81,2.62-3.23,2.23-4.58,2.75-.42-3.41,1.55-4.03,4.58-3.66Z"/>
    <path class="cls-3" d="M1086.63,44.17v.92c-.29-.21-1.4.2-1.83,0-.1-.05-.33-.64-.92-.92-.25-.12-.67.12-.92,0l-3.66-2.75c2.62.02,5.85.26,7.33,2.75Z"/>
    <path class="cls-9" d="M626.9,46c5.58-.93,4.61,2.74,0,2.75-.79-.28-2.62.55-2.76-.46-.02-.18,2.02-1.62,2.76-2.29Z"/>
    <path class="cls-9" d="M1051.83,36.85c1.22,0,2.44,0,3.66,0v1.83c-1.97-.23-4.34.05-6.41,0-.75-3.15,1.76-1.21,2.75-1.83Z"/>
    <path class="cls-7" d="M943.76,46.92c-.04.55-1.66,3.55-1.83,3.66-1.05.74-1.19.59-1.83.92l-.92-2.75c1.07-.32,3.07-1.3,4.58-1.83Z"/>
    <path class="cls-14" d="M889.73,30.44h3.66c-3.07,2.3-3.61,1.1-5.49,1.83-.43-.46-1.79-1.4-1.83-1.83h3.66Z"/>
    <path class="cls-9" d="M626.9,52.42c-.28.12-.56.71-.92.92-.65-.33-3.47.23-4.58-.92.35-.08-.92-3.48,5.49,0Z"/>
    <path class="cls-2" d="M862.26,13.95c-2.05,2.16-1.34,3.36-1.83,5.49h-1.83c.12-.5-.06-1.24,0-1.83l.92-.92c0-.76.18-2.3,0-2.75h2.75Z"/>
    <path class="cls-9" d="M865.92,26.77v.92c-1.22,0-2.44,0-3.66,0,.11-.56-.17-1.43,0-1.83.13-.31.66-.6.92-.92,1.63-.4,2.37,1.65,2.75,1.83Z"/>
    <path class="cls-9" d="M881.49,44.17v1.83c-2.11-.13-4.29.03-6.41,0,.2-.35.54-.82.92-.92.86-.23,2.14.29,2.75-.92.91,0,1.84.05,2.75,0Z"/>
    <path class="cls-7" d="M857.68,30.44c-.62,1.04-.26,3.57-1.83,4.58-.05-.76-.08-1.49-.92-1.83,0-.31,0-.61,0-.92,1.36-1.79.37-4,2.75-1.83Z"/>
    <path class="cls-2" d="M1094.87,45.09v.92c-1.6-.51-3.61-1.57-4.58-1.83v-.92c2.1-.77,3.77,1.58,4.58,1.83Z"/>
    <path class="cls-8" d="M658.04,42.34v1.83c-3.51-.68-3.49-1.46-4.58-1.83,1.52-.08,3.07.11,4.58,0Z"/>
    <path class="cls-8" d="M753.28,46.92c.14.04.47.82.92.92v.92c-.27-.09-.64.09-.92,0-1.95-.67-1.61.52-3.66-1.83,1.1.18,2.71-.26,3.66,0Z"/>
    <path class="cls-11" d="M890.65,20.36c1.27.52,2.38-.78,1.83,2.75-.46-.14-1.24.08-1.83,0-.3-.04-.61.01-.92,0l.92-2.75Z"/>
    <path class="cls-3" d="M694.67,41.43v1.83c-1.19-.44-3.25.33-3.66-1.82,1.21,0,2.45-.05,3.66-.01Z"/>
    <path class="cls-3" d="M756.03,45.09c-.14.02-.93.76-2.75.92-1.2.1-2.45-.04-3.66,0l6.41-.92Z"/>
    <path class="cls-4" d="M911.71,53.33c.37.07,1.15.94,1.83.92-1.42.22-4.09,2.86-3.66-.92.57-.02,1.31-.09,1.83,0Z"/>
    <path class="cls-7" d="M1099.45,46l-1.83.92c-.85-.23-1.86-.63-2.75-.92v-.92c.88.27,3.01.52,4.58.92Z"/>
    <path class="cls-2" d="M939.19,48.75l.92,2.75c-.39.2-1.41-.19-1.83,0l-.92-1.83c.36-.1,1.04-.68,1.83-.92Z"/>
    <path class="cls-9" d="M753.28,46v.92c-.95-.26-2.56.18-3.66,0-.28-.32-.63-.59-.92-.92.3,0,.61,0,.92,0,1.21-.04,2.46.1,3.66,0Z"/>
    <path class="cls-3" d="M879.66,54.25c-.13.13.11,3.76-1.83,1.83-1.94-1.94,1.7-1.7,1.83-1.83Z"/>
    <path class="cls-11" d="M767.93,43.26c.71-.14,2.13-2.66,1.83.92h-.92c-.14-.29-.7-.57-.92-.92Z"/>
    <path class="cls-2" d="M1089.37,52.42c-.45.2-2.76,0-3.66,0,.31-1.35,3.28-1.41,3.66,0Z"/>
    <path class="cls-9" d="M855.85,35.02c.02.29.03.63,0,.92h-.92c0-.92,0-1.83,0-2.75.84.34.86,1.07.92,1.83Z"/>
    <path class="cls-9" d="M633.32,45.09l.91.9h-1.83c-.19-.12-1.06.13-.91-.89.56-.14,1.51.17,1.83-.01Z"/>
    <path class="cls-12" d="M674.53,57.91c-.47.17-2.01.03-2.75,0,.13-1.36,2.61-1.36,2.75,0Z"/>
    <path class="cls-9" d="M1136.99,50.58c.38.05.75.55.92.92-.91.05-1.83-.02-2.75,0v-.92c.6.02,1.25-.08,1.83,0Z"/>
    <path class="cls-3" d="M978.56,39.59c-1.03-.01-1.19-.37-1.83-.92.58-.34,1.27-.55,1.83-.92v1.83Z"/>
    <path class="cls-7" d="M980.4,41.43c-.1.02-.49.62-1.83.92-.19-2.36.02-2.18,1.83-.92Z"/>
    <path class="cls-9" d="M874.17,46c-.61-.01-1.22.03-1.83,0-.3-.01-.62.03-.92,0,.13-1.36,2.61-1.36,2.75,0Z"/>
    <path class="cls-4" d="M878.74,44.17c-.61,1.21-1.88.68-2.75.92v-.92h2.75Z"/>
    <path class="cls-9" d="M797.24,56.99v.92c-.86.14-1.89-.14-2.75,0v-.92c.87.13,1.85-.07,2.75,0Z"/>
    <path class="cls-14" d="M801.82,56.99c-.33.23-.67.84-.92.92-.27.08-.61-.06-.92,0s-.62-.04-.92,0v-.92h2.75Z"/>
    <path class="cls-9" d="M1017.94,37.76c-.61.03-1.23-.04-1.83,0l1.34-.92.49.92Z"/>
    <path class="cls-8" d="M865.92,28.61v-1.83c.24.12.65-.11.92,0,.06.86-.39,1.27-.92,1.83Z"/>
    <path class="cls-7" d="M799.07,56.99v.92c-.58.09-1.25-.09-1.83,0v-.92c.6.05,1.23,0,1.83,0Z"/>
    <path class="cls-4" d="M973.99,46l-.92-.92c.67.22.85.9.92.92Z"/>
    <path class="cls-7" d="M715.74,33.18c.11-.28-.13-.71,0-.92v.92Z"/>
    <path class="cls-2" d="M1040.84,46.92c-.03-.08-.7-.31-.92-.92l.92.92Z"/>
    <path class="cls-13" d="M922.7,36.85h-.92c.06-.53.82-.73.92-.92-.15.16.13.67,0,.92Z"/>
    <path class="cls-8" d="M984.97,40.51c-.3.04-.62-.04-.92,0h.92Z"/>
    <path class="cls-7" d="M775.26,51.5l.92-.92c-.04.73-.14.95-.92.92Z"/>
    <path class="cls-7" d="M990.47,37.76c.06,0,.3-.84.92-.92l-.92.92Z"/>
    <path class="cls-4" d="M994.13,28.61c-.24.13-.68-.13-.92,0h.92Z"/>
    <path class="cls-8" d="M921.79,53.33c.06-.01.26-.78.92-.92l-.92.92Z"/>
    <path class="cls-2" d="M1029.85,38.68c-.56-.13-.85-.91-.92-.92l.92.92Z"/>
    <path class="cls-8" d="M858.6,17.62c.06-.54.92-.85.92-.92l-.92.92Z"/>
    <path class="cls-8" d="M924.53,55.16l.92-.92c-.1.01-.47.85-.92.92Z"/>
    <path class="cls-4" d="M667.2,56.08c-.31-.1-.61-.79-.92-.92l.92.92Z"/>
    <path class="cls-2" d="M992.3,23.11c.01-.3-.06-.64,0-.92v.92Z"/>
    <path class="cls-6" d="M1149.81,43.26l-.92-.92c.28.08.62.66.92.92Z"/>
    <path class="cls-4" d="M911.71,56.99h.92c-.52.07-.86,0-.92,0Z"/>
    <path class="cls-8" d="M930.03,55.16c-.64-.18-.85-.91-.92-.92l.92.92Z"/>
    <path class="cls-7" d="M800.9,58.83c-.37-.09-.71-.58-.92-.92.31-.06.65.08.92,0v.92Z"/>
    <path class="cls-4" d="M718.48,43.26l-.92-.92c.62.1.85.91.92.92Z"/>
    <path class="cls-8" d="M596.68,59.74l.92-.92c-.06.01-.35.87-.92.92Z"/>
    <path class="cls-6" d="M953.84,66.15h.92c-1,.49-.84-.02-.92,0Z"/>
    <path class="cls-10" d="M756.95,16.7c9.03,11.98,7.14.8,7.78.92,1.94.36,1.04,4.92,1.38,5.49,1.52,2.57,2.57-3.46,2.74-3.66.85-1.02,2.03-2.69,3.64-2.3-5.83,9.13-1.96,6.75,4.6,3.22v1.83c-.9.89-2.41,1.48-2.75,2.74h2.75c-.14.16.11.64,0,.93-1.99,5.05,3.73,2.73,5.49,7.32-2.99.23-7.98-3.2-8.24.93-3.05-.77-4.12-2.26-3.66,1.83-.13-.21-3.81-2.39-4.53-1.8-.54.44-.17,3.8-1.87,3.63.77-7.96-1.77-3.16-4.05-3.64-.67-.14-.1-1.75-1.84-1.93-2.75-.28-6.47,3.6-4.19-1.75v-.92c11.4,2.65,3.51-8.03,1.83-12.82.3.09.67-.1.92,0ZM769.57,25.12c-4.11-2.7-10,.95-7.07,4.35,2.49,2.9,11.83-1.23,7.07-4.35Z"/>
    <path class="cls-11" d="M756.95,16.7c.07.03.67-.95,1.22-.77,1.02.33,3.76,4,5.18,2.61.45-.44-.52-6.56,2.75-5.49,0,3.47-1.15,5.32,2.75,6.41-.17.21-1.22,6.23-2.74,3.66-.34-.57.55-5.13-1.38-5.49-.64-.12,1.25,11.06-7.78-.92Z"/>
    <path class="cls-11" d="M774.35,34.1c1.96.49,6.48,1.55,6.4,4.58-1.96-1.67-6.59-1.63-6.4-4.58Z"/>
    <path class="cls-11" d="M777.09,24.94c3.69-3.9,11.89-1.31,0,.92.11-.29-.14-.77,0-.92Z"/>
    <path class="cls-11" d="M777.09,20.36c.22-.12,3.31-4.78,3.67-2.28.26,1.8-2.66,3.11-3.67,4.11v-1.83Z"/>
    <polygon class="cls-11" points="782.13 16.7 782.59 17.16 782.13 17.62 782.13 16.7"/>
    <path class="cls-14" d="M805.48,39.59c.31-.05.65.07.92,0,.31.6.55,1.26.92,1.83-.96-.21-1.9-.39-2.75-.92-.14-.29-.69-.57-.92-.92.58.01,1.29.09,1.83,0Z"/>
    <path class="cls-14" d="M821.05,36.85c.14,1.74-.16,5.28.01,5.49.2.24,3.56-1.95,4.55-1.39-.49.66-2.93,4.84-2.72,5.04.72.68,4.4-2.3,4.57,0-4.87-.85-1.05,2.06-2.75,3.2s-5.29-.14-.92,3.21c-3.51-.72-5.15-2.47-6.4,1.84-.64-4.64-1.66-1.85-1.83,1.83h-1.83c.42-5.36-.15-5.5-4.58-1.83,2.33-5.65-.32-3.25-4.58-2.75.17-.33-.29-1.53.04-1.78.51-.38,2.08.18,2.71-.05,4.36-1.56.58-1.15,0-3.21-.23-.82,3.75.92,0-5.03,5.13,1.13,4.9,2.25,6.4-2.74,1.61,5.21,4.26,4.39,6.42,0,.29-.59.87-1.09.92-1.83ZM818.3,45.09c-1.94,0-2.08.18-3.66.92-.44.21-2.69-.57-1.82,1.36,1.21,2.69,6.49,3.37,7.34-.91.49-2.46-1.11-1.36-1.85-1.36Z"/>
    <path class="cls-13" d="M826.54,59.74c-3.39,3.02-7.86-2.72-4.57-5.49,1.37-1.15,5.93,4.27,4.57,5.49Z"/>
    <path class="cls-13" d="M833.87,46.01c2.03,1.67-3.35,5.84-5.47,1.8-1.43-2.74,5.2-2.02,5.47-1.8Z"/>
    <path class="cls-13" d="M815.56,56.08c.17-3.68,1.19-6.47,1.83-1.83.97,7.01-2.22,10-1.83,1.83Z"/>
    <path class="cls-14" d="M925.45,16.7c.07.04.8-1.04,1.29-.87,2.95,1.03-1.05,5.28,6.51-1.86.38,1.08-2.47,3.55-1.38,4.55,2.19,2.02,5.56-3.99,7.32-1.83-2.6,1.1-1.9.66-3.66,2.75-.37.44-3.08,1.63-1.83,2.74.22.2,2.74-.07,3.66,0-.16.55-5.74,5.37-6.13,5.5-.77.25-2.33-.86-3.41-.76s-1.34,1.68-1.45,1.67c-4.5-.26-4.98-3.9-8.24-5.51,6.32-1.99.46-5.24,5.05-6.4.4-.1,2.64,6.08,2.28,0ZM929.11,21.28c-.85-.1-2.96-.17-3.66,0-2.83.7-2.63,1.99,0,2.75.57.16,2.94.11,3.66,0,2.93-.47,2.92-2.4,0-2.75Z"/>
    <path class="cls-14" d="M939.19,32.26c-2.93.19-4.2-2.87-6.39-4.12,2.34.28,5.35,1.91,6.39,4.12Z"/>
    <path class="cls-7" d="M725.81,33.18c-.63.25-1.2.7-1.83.92-.13-.39-.53-.89-.92-.92v-.92c.35.24,1.5-.46,2.75.92Z"/>
    <path class="cls-9" d="M1039.92,20.36c-.59.05-1.41-.14-1.83,0l1.36-.91.47.91Z"/>
    <path class="cls-8" d="M610.42,51.5c-2.1.91-1.75-.04-1.83,0,.53-.12,1.58.18,1.83,0Z"/>
    <path class="cls-3" d="M949.26,46c.32-.22.67-.86.92-.92-.31.15-.58.76-.92.92Z"/>
    <path class="cls-6" d="M803.65,53.33c-.1.27.11.66,0,.92-3.28.74-1.99-3.67,0-.92Z"/>
    <path class="cls-7" d="M668.11,47.84c.22-.1.59.06.92,0h-.92Z"/>
    <path class="cls-7" d="M1079.3,40.51v.92l3.66,2.75c-.53-.26-2.14.26-2.75,0-1.26-.53-1.3-1.39-1.83-1.83-.75-.62-2.04-.72-1.83-1.82.91-.06,1.83.03,2.74-.01Z"/>
    <polygon class="cls-14" points="919.5 16.7 919.95 17.16 919.5 17.62 919.5 16.7"/>
    <path class="cls-9" d="M894.31,41.43h.92c.61-.03,1.23.04,1.83,0l-7.32,4.58c-.17-3.07,2.7-.65,3.65-4.58h.92Z"/>
    <path class="cls-3" d="M988.64,25.86c-1.2,3.13-.8,1.05-1.83,1.83.25-.22.27-2.56,1.83-2.75-.08.3.1.66,0,.92Z"/>
    <path class="cls-8" d="M986.81,27.69c-.37.28-1.19,2.36-1.82,1.83-.21-.18.2-1.56-.01-1.83.52-.11,1.64.17,1.83,0Z"/>
    <path class="cls-9" d="M1080.22,46c.74,2.53,2.19,3.93-1.83,1.83.35-.73-.75-2.36,1.83-1.83Z"/>
    <path class="cls-7" d="M1084.79,45.09l-.92-.92c.58.28.82.87.92.92Z"/>
    <path class="cls-13" d="M925.45,35.93c-.31.08-.76-.12-.92,0h.92Z"/>
    <path class="cls-14" d="M818.3,38.68c.28.08.63-.06.92,0h-.92Z"/>
    <path class="cls-4" d="M894.31,41.43c.3-.01.61.02.92,0h-.92Z"/>
    <polygon class="cls-4" points="1075.18 44.17 1075.64 44.63 1075.18 45.09 1075.18 44.17"/>
    <path class="cls-14" d="M769.57,25.12c4.75,3.12-4.58,7.26-7.07,4.35-2.92-3.4,2.97-7.05,7.07-4.35ZM767.93,28.6c2.29-2.2-2.29-3.26-3.66-1.81-.66.69,2.71,2.73,3.66,1.81Z"/>
    <path class="cls-6" d="M818.3,45.09c.74,0,2.34-1.1,1.85,1.36-.85,4.29-6.13,3.6-7.34.91-.86-1.93,1.38-1.16,1.82-1.36-.87,3.58,6.19,1.95,3.66-.92Z"/>
    <path class="cls-9" d="M818.3,45.09c2.53,2.86-4.53,4.49-3.66.92,1.59-.73,1.73-.92,3.66-.92Z"/>
    <path class="cls-9" d="M929.11,21.28v2.75c-.72.11-3.09.16-3.66,0v-2.75c.7-.17,2.81-.1,3.66,0Z"/>
    <path class="cls-6" d="M929.11,21.28c2.92.35,2.93,2.28,0,2.75v-2.75Z"/>
    <path class="cls-6" d="M925.45,21.28v2.75c-2.63-.76-2.83-2.04,0-2.75Z"/>
    <path class="cls-9" d="M767.93,28.6c-.95.91-4.31-1.12-3.66-1.81,1.37-1.44,5.95-.39,3.66,1.81Z"/>
  </g>
</svg>