<?xml version="1.0" encoding="UTF-8"?>
<svg id="Layer_1" data-name="Layer 1" xmlns="http://www.w3.org/2000/svg" viewBox="0 0 1152.14 715.25">
  <defs>
    <style>
      .cls-1 {
        fill: #1f562b;
      }

      .cls-2 {
        fill: #f07a2b;
      }
    </style>
  </defs>
  <path class="cls-1" d="M728.81,578.32l15.79-15.77c32.01-9.88,23.14,32.74,29.45,47.92,5.11,12.29,17.53,7.22,25.53.5,13.2-11.09,4.93-10.89,3.5-23-1.97-16.76,1.24-36.82,13.92-48.98,23.06-22.1,47.46.81,34.97,30.61-2.78,6.64-20.75,27.67-20.62,29.46.3,4.14,12.51,5.7,16.27,5.6,9.6-.26,33.15-11.2,37.02-19.83,4.7-10.46-4.48-48.26,6.92-52,10.63-3.48,14.96,6.21,16.03,14.97,5.86-3.99,7.59-11.88,15.11-14.28,36.96-11.77,25.93,47.66,39.35,54.7,5.51,2.89,9.78-.26,14.2-3.36,19.93-14.02,13.98-25.34,20.62-44.78,5.67-16.57,30.13-49.7,50.28-43.74,8.1,2.4,7.86,9.11,11.49,13.77,1.12,1.44,4.57,1.92,6.04,3.67,6.87,8.18-5.7,38.18,11.96,40.61,11.75,1.61,35.58-15.27,44.62-22.92,6.53-5.53,18.64-23.28,26.98-20.58,14.42,4.67-15.51,31.67-20.44,35.84-15.59,13.2-41.78,30.61-62.67,23.36-3.36-1.17-9.79-6.85-10.41-6.85-2.5,0-9.92,14.2-13.08,17.24-6.75,6.52-18.74,12.19-28.19,10.82-4.73-.69-11.23-6.02-13.27-5.89-5.39.34-23.99,31.38-46.29,21.76-19.63-8.47-19.04-50.63-22.38-52.84-4-2.64-7.31,2.19-9.17,4.97-7,10.5-14,51.25-21.31,55-12.25,6.27-15.41-8.03-16.36-7.64-4.68,1.91-11.22,9.07-18.57,11.96-14.47,5.69-24.08,6.44-38.79,1.78-3.26-1.03-7.95-5.21-9.95-4.82-1.44.28-14.45,13.36-19.06,15.91-20.74,11.44-39.15,5.84-44.6-18.17-.52-2.29-1.79-34.46-9.65-28.48-1.36,1.04-11.9,27.59-13.19,31.53-2.92,8.92-4.67,27.85-9.8,33.79-8.44,9.79-14.28-1.51-17.38-1.51-6.93,0-19.98,22.3-40.93,11.99-25.53-12.56-13.07-73.51-16.87-77.99-.82-.96-17.27,7.28-24.14-.91-10.2-12.18,18.88-13.5,26.25-14.43,2.17-20.11,1.86-41.97,4.67-61.83.75-5.33,2.2-14.43,7.82-16.15,2.35-.72,9.65-1.24,11.29-.13,7.81,5.27-7.94,69.26-4.05,73.83,1,1.18,24.14-8.12,29.71-8.59s11.3,2.5,11.68,2.05c1.73-2.06,2.34-36.91,2.2-42.51,4.94-14.64-2.71-36.93,11.97-46.89,3.56-2.42,12.27-6.72,15.36-2.22s-14.92,98.63-9.88,113.41ZM1016.76,573.78c14.23,9.63,29.16-40.27,29.97-49.48.68-7.79-5.15-10.52-12.09-7.57-10.17,4.33-19.59,25.61-20.31,36.42-.26,3.82.04,19,2.44,20.63ZM837.79,549.98c-.54-.61-6.86-.07-8.76,1.05-6.65,3.94-7.16,26.48-6.48,33.84,7.46-3.78,20.55-28.93,15.23-34.89ZM709.14,563.07c-6.47,5.99-41.43,13.22-43.31,18.81-.14,18.44-5.41,37.33.72,55.41,8.11,23.94,40.9-8.38,40.44-22.98l2.15-51.24Z"/>
  <path class="cls-1" d="M349.43,386.46c-.39.46.2,8.8-.27,11.75-3.95,25.15-7.57,50.39-11.7,75.51-1.57,7.85-21.8,18.69-24.8,9.44-1.2-3.68-.56-12.67-.3-17.12,2.88-49.71,18.22-104.59,17.24-154.57-.14-7.1-6.13-16.23-3.12-23.06,5.39-12.22,20.99-3.33,25.1-5.39,1.98-.99,17.67-26.48,22.85-31.8,22.47-23.02,68.82-40.16,85.9-2.94,25.6,55.77-30.39,158.05-97.96,143.75-3.37-.71-12.48-6.11-12.94-5.58ZM416.43,245.25c-31.33,5.07-58.13,64.57-62.05,92.76-.92,6.63-.29,12.53-.59,19.02-.45,9.89-7.03,15.5,8.64,19.68,37.24,9.93,68.2-39.96,75.74-70.46,5.17-20.9,12.02-66.45-21.74-60.99Z"/>
  <path class="cls-1" d="M678.15,214.83c11.2-1.16,22.04.18,31.75,6.28,66.84,41.97-8.02,229.04-88.44,203.98-35.5-11.06-36.37-61.67-31.98-91.8,6.98-47.87,33.69-112.75,88.66-118.46ZM701.9,238.92c-6.88-6.95-23.03-10.12-31.96-6.14-7.41,3.31-7.57,18.95-14.49,20.11-1.82.31-4.42-1.53-6.02-1.15-4,.95-19.62,32.77-22.01,38.81-8.09,20.49-15.95,53.39-14.18,75.17,1.6,19.7,10.47,46.64,34.96,41.61,31.05-6.38,55.18-58.48,61.66-86.67,5.22-22.71,10.01-63.6-7.97-81.75Z"/>
  <path class="cls-1" d="M591.43,626.29c-1.64-1.71-44,10.44-45.81,11.97-6.43,5.43-9.89,58.98-17.73,71.65-6.61,10.67-19.13,3.61-19.5-6.2-.5-13,9.25-45.06,12.74-59.43,9.8-40.4,21.64-83.91,38.72-122.62,5.52-12.5,30.59-65.67,46.34-35.49,8.89,17.04,7.96,65.23,9.23,86.71.28,4.68-.86,26.21.02,27.25.62.73,11.5-6.74,18.23-2,15.33,10.8-18.1,16.94-18.38,18.57-1.79,10.63-.34,35.71.04,47.84.29,9.17,8.57,26.76-5.35,27.35-6.13.26-11.85-1.71-14.69-7.31-.61-1.2-3.85-10.81-3.85-11.41,0-6.62,1.62-45.19,0-46.88ZM591.43,508.56c-3.62-.71-4.48.94-6.24,3.57-3.83,5.73-9.98,23.27-12.84,30.77-9.01,23.6-15.08,48.34-22.34,72.48,1.97,1.66,41.43-6.58,41.43-8.7v-98.11Z"/>
  <path class="cls-1" d="M425.7,615.39c6.25-16.36-10.99-25.76,14.13-26.28,3.65-.08,21.11,1.15,22.97,2.32.31.2.28,5.8-.24,7.37-2.26,6.79-17.51,1.85-19.3,3.59-.87.85-3.94,22.75-3.43,23.85,4.59,9.84,27.46,8.98,21.94,19.72-6.78,13.2-26.79-4.72-31.86-3.44-5.32,1.34-13.22,12.59-21.09,15.92-27.04,11.47-51.11-2.58-42.07-33.35,2.34-7.95,17.41-27.81,17.2-30.06-.45-4.87-14.98-21.22-16.68-33.63-6.03-44.17,72.33-53.88,67.03-8.36-2.1,18.01-25.51,35.25-26.14,41.73-.65,6.73,12.43,16.33,17.54,20.61ZM403.38,535.12c-21.44,2.35-23.15,28-11.34,43.09,7.24,9.25,14.34-3.43,18.94-11.35,6.57-11.32,11.43-33.82-7.6-31.73ZM396.29,608.89c-5.56-.02-24.77,36.77-6.43,39.26,6.52.89,25.71-10.82,26.99-16.7.42-1.95-19.03-22.56-20.56-22.56Z"/>
  <path class="cls-2" d="M362.48,22.34c1.3,2.17,1.58,18.88,2.2,19.64.68.84,22.01-6.73,9.83,4.38-2.97,2.71-9.4,4.08-9.72,4.51-.53.71,2.18,15.79,3.09,17.33,4.56,7.69,15.09-4.64,17.51-8.77,5.35,5.01-7.85,17.67-11.95,18.75-5.44,1.45-8.08-3.82-10.99-2.52-3.43,1.53-7.81,10.4-12.37,11.69-11.32,3.2-8.95.09-21.66,6.67-10.68,5.53-16.23-.87-21.21.49-4.44,1.21-6.13,17.04-20.15,19.32-1.95.32-5.83.79-7.18-.16-2.29-1.61-14.88-46.6-17.7-53.1,9.98-10.56,13.95,16.87,15.29,22.84,2.87-.38,4.15-4.32,6.54-5.44,9.52-4.47,18.66,6.57,19.59,5.44s-1.56-16.24,8.07-19.21c11.35-3.49,11.2,3.24,8.95,13.31-1.27,5.7-14.38,17.21,3.27,11.98,15.48-4.59,3.44-33.47,8.14-36.6,6.61-4.39,6.43,4.66,8.52,7.69s6,4.36,8.66,6.67c2.08,1.8,3.04,5.2,4.55,6.37,5.19,4.06,5.07-16.59,4.52-19.43-.42-2.14-4.63-1.29-6.48-2.52-8.88-5.9,3.97-4.8,4.3-6.52.81-4.31-1.3-21.41-.13-22.81.21-.25,6.35-.28,6.52,0ZM310.19,83.4c6.76-2.65,7.18-8.8,6.5-15.26-6.76,2.65-7.18,8.8-6.5,15.26ZM336.34,83.39c4.14,4.53,18.49-8.9,3.23-15.24-5.17-2.15-3.78,14.64-3.23,15.24ZM288.37,103.02c3.87-5.59,14.52-8.14,5.45-17.45s-11.75,9.02-9.84,16.05c.58,2.15,3.02,1.21,4.39,1.4-4.44,6.41.09,5.84,4.35,1.08.16-2.03-2.97-.89-4.35-1.08Z"/>
  <path class="cls-2" d="M434.44.55c2.08,2.23-3.91,38.43-4.54,44.7,7.21,21.98,11.76-14.2,23.53-18.1,3.83-1.27,11.25-2.35,9.37,3.89-5.58-.43-10.27,3.26-12.79,7.95-4.65,8.66-3.09,20.36,5.15,11.69,3.93-4.13,4.57-16.32,5.47-17.43,1.09-1.34,5.29.84,6.17,3.63,1.08,3.44-1.91,16.04,3.6,13.8,10.48-4.26,6.97-27.9,15.26-26.14,7.57,1.61-2.55,21.49,2.2,26.14,2.54-1.99,4.19-4.5,5.89-7.19s8.48-23.2,13.78-14.61c1.67,2.7-8.6,46.66-7.79,54.4-.25.35-8.28.41-8.58.11-1.64-1.63,5.51-27.1,4.34-28.33-.71-.75-7,2.22-9.78,2.23-15.48.06-19.65-.56-35,2.04-7.31,1.24-24.63-.41-27.84.36-3.81.91-4.53,7.54-13.37,6.32-14.24-1.97-6.57-23.98,2.01-30.63,4.17-3.24,11.42-4.04,11.84-4.52.88-1.01.74-20.64,2.83-26.61,1.39-3.97,7-5.06,8.27-3.71ZM418.61,56.63c3.05-2.96,7.05-18.57,4.91-21.2-2.74-3.37-14.53,13-14.87,18.98s6.41,5.66,9.96,2.22Z"/>
  <path class="cls-2" d="M539.09,44.17c-2.9,1.82,5.5,12.51,17.26,5.24,10.95-6.77,4.12-14.39,7.75-20.58,1.45-2.48,6.96-2.85,7.68-2.11,2.24,2.29-2.63,19.47-2.15,23.97,8.82-3.22,12.2-20.4,20.67-21.83,7.96-1.35-.3,7.7-1.22,9.69-2.3,5.05-4.76,12.63,3.42,10,2.73-.88,2.59-15.67,15.42-17.4,17.12-2.31,14.17,11.44,2.94,18.28-3.05,1.86-10.04,2.9-10.73,3.47-1.3,1.07,5.4,9.98,16.07,4.04,11.86-6.61,8.89-20.34,12.15-22.71,7.88-5.72,5.91,3.09,7.72,5.51,2.03,2.73,7.21,2.15,8.94,4.29,4.66,5.78-10.18,19.71-7.8,21.92.9.84,24.28-4.36,19.59,7.62-2.95,7.54-9.56.25-12.55-.5-4.86-1.22-10.1.6-13.83-3.72-4.77-5.54,4.7-14.59,4.59-20.82-7.88,1.47-9.4,11.01-16.62,14.96-19.84,10.85-29.24-14.64-36.8-14.61-2.23,0-7.05,9.44-13.08,10.54-9.03,1.64-3.91-3.77-5.45-6.55-.26-.47-6.51,3.77-9.91,4.27-12.39,1.85-25.85-2.52-21.83-17.37,7.39-27.25,38.74-13,14.1,3.17-2.16,1.42-5.73.86-6.33,1.24ZM549.99,28.9c-3.16-3.27-11.71,10.11-10.89,10.87,2.51,2.35,13.22-8.46,10.89-10.87ZM613.22,37.62c-3.51-3.29-14.27,7.71-13.07,8.69,2.94,2.4,16.63-5.36,13.07-8.69Z"/>
  <path class="cls-2" d="M242.59,131.36c.98.97,8.79-1.06,10.38-2.69,3.19-3.26,4.02-15.86,4.88-16.92,3.98-4.89,8.74,7.11,3.88,15.97s-15.84,9.27-20.72,13c-3.3,2.52-4.03,12.24-13.73,7.06-4.76-2.54-6.04-12.09-10.85-14.22-3.31,6.62,5.01,23.62,4.19,27.1s-6.5,2.49-8.01,3.97c-2.14,2.1-.78,9.4-9.23,11.64-10.55,2.8-16.65-14.14-20.09-16.12-2.86-1.64-9.68.32-10.48-.45-1.09-1.05,2.26-8.22,1.8-11.5-.54-3.76-9.52-15.24-6.15-19,4.31-4.82,11.95,14.74,14.27,15.25.76.17,13.54-6,14-6.63,2.31-3.21-12.29-22.35-8.64-26.07,8.84-9.01,18.69,32.48,23.95,32.69,1.25-9.72-5.08-24.79,8.7-18.49,6.09,2.78,7.82,13.77,15.29,14.12-.26-5.02-4.29-7.68-5.58-12.91-5.73-23.24,15.81-28.76,16.69-12.16.28,5.24-5.54,15.38-4.55,16.36ZM240.37,124.82c1.47-1.05,3.47-13.02-1.06-13.04-4.18-.01-5.56,17.76,1.06,13.04ZM201.12,140.09c-3.74-3.04-3.98,1.76-4.92,2.79-2,2.22-8.09,8.74-7.85,11,1.21,11.51,19.54,22.9,19.12,2.49-.02-1.08-5.67-15.73-6.35-16.28Z"/>
  <path class="cls-2" d="M144.04,205.95c5.02,10.34,13.76,10.82,11.3,24.56-.78,4.36-6.71,9.97-10.84,11.22-6.61,2-11.45-6.77-8.72,8.42,1.52,8.46,19.92,12.6,19.2,23.48-.69,10.31-10.09,5.46-16.4,2.07-14.55-7.84-21.56-18.24-31.19-29.86-7.17-8.64-18.58-15.2-14.85-27.91,1.67-5.68,9.83-6.93,12.68-3.7,5.21,5.91-8.07,2-6.51,7.57,2.39,8.53,14.21,15.22,18.36,23.07,6.05,5.67,11.67-1.36,12.09-7.91.35-5.5-3.82-10.24-4.26-15.36-1.03-11.8,7.69-19.14,19.15-15.65ZM131.39,216.41c-4.85,4.75,16.52,29.85,17.62,9.82.69-12.58-15.34-12.05-17.62-9.82ZM127.01,253.48c-3.07-1.57-5.82,1.39-4.34,2.14,3.07,1.57,5.82-1.39,4.34-2.14ZM148.83,270.89c-.98-3.12-15.76-14.72-17.43-13.05-3.27,3.26,13.12,15.18,17.43,13.05Z"/>
  <path class="cls-2" d="M55.08,373.39c-3.97,3.81,19,21.87,19.1,26.73.46,22.63-15.72,11.87-19.1,14.7-3.09,2.58,7.57,7.58,9.24,11.45,3.15,7.3,2.98,14.19-3.75,19.09-16.77,12.22-34.55-12.49-28.35-26.16,2.49-5.49,11.51-8.16,11.95-8.78,1.08-1.53-11.12-6.19-6.53-10.87,2.12-2.16,23.28,9.01,27.28,8.63,12.74-1.22-15.06-21.2-20.74-19.57-1.88-7.86,7.08-2.9,8.72-4.35,1.13-1-7.03-7.88-5.7-13.08,3.81-14.9,22.37,3.12,25.31.01,1.98-2.09-5.73-16.07,1.08-13.06,5.66,2.51,11.57,14.72,5.61,18.64-7.99,5.25-22.81-4.62-24.1-3.39ZM51.8,412.62v2.18c1.42-.73,1.42-1.45,0-2.18ZM37.64,425.73c-5.43,7.96,24.83,25.99,21.88,5.45-1.35-9.4-19.69-8.66-21.88-5.45Z"/>
  <path class="cls-1" d="M556.22,358.42c5.2,3.66,1.11,14.74-5.58,16.69-17.88,5.21-44.04,2.13-62.78,7.18-15.32.56-12.98-15.68.95-18.86,9.7-2.21,32.03-4.5,42.67-5.3,3.83-.29,23.44-.63,24.75.29Z"/>
  <path class="cls-2" d="M92.14,303.61c-.91-.62-1.81-.84-2.18-2.18.85.65,1.83,1.04,2.18,2.18Z"/>
  <path class="cls-2" d="M89.96,301.43c-3.1-2.37-8.39-3.39-11.04-7.5-1.52-2.35-3.36-8.56-2.03-9.93,2.1-2.17,9.14,3.73,12.06,4.28,2.55.47,17.75.65,18.46.06.42-.36-3.77-7.77-2.17-10.87,9.21-.83,7.45,17.02,6.02,22.38-.95,3.58-5.31,6.87-7,10.44-2.35,4.97.29,10.54-5.73,13.99-2.11,1.21-5.69.76-6.35,1.21-1.15.77,8.84,21.66-9.66,19.58-5.26-.59-17.86-8.88-18.75-14.17-1.54-9.24,13.22,2.26,14.56,2.89,11.4,5.37,12.31,1.98,5.07-7.25-3.16-4.03-18.59-12.9-13.05-18.55,2.95-3.01,21.05,13.02,26.15,8.69.53-.45-6.05-9.51-4.36-13.06,9.41,6.47,12.34-4.5,10.91-6.52-.57-.81-16.19-7.03-13.09,4.34Z"/>
  <path class="cls-2" d="M7.1,471.48c-5.79,6.45-10.08-19.31-4.49-23.02,8.08-5.37,32.38,4.83,42.57,3.49,8.77,7.75,30.72,11.41,33.44,23.27,4.48,19.51-19.52,25.83-28.34,8.69-3-5.84-3.3-17.36-6.04-20.13s-27.11-8.25-31.64-7.64c-9.4,1.27-3.93,13.57-5.51,15.34ZM50.71,467.15c-1.85,1.56,12.83,29.39,20.83,17.54,6.89-10.21-17.46-20.38-20.83-17.54Z"/>
  <path class="cls-2" d="M175,183.7c4.58-4.92,8.71,10.12,4.06,18.25-7.68,13.45-14.03.41-19.73-5.87-10.84-11.93-2.78,7.51-5.04,13.76-3.75-2.37-3.99-8.32-6.58-10.86-2.57-2.52-8.39-2.53-9.77-5.49-3.72-7.94,5.74-4.47,9.72-5.51,3.89-1.01,6.61-5.06,10.55-4.09,5.08,1.25,10.94,14.89,13.52,15.02,4.73.23,2.75-14.64,3.28-15.21Z"/>
  <path class="cls-2" d="M654.67,59.41c-1.4-1.55,1.46-7.36,2.42-9.55,2.2-5.03,13.36-26.07,16.2-29.59,4.99-6.17,12.87-6.44,10.12,1.35-1.67,4.72-7.4,13.4-10.4,18-1.57,2.41-15.08,23.41-18.34,19.79Z"/>
  <path class="cls-2" d="M31.08,390.83c.31.31.31,8.39,0,8.7s-8.39.31-8.7,0-.31-8.39,0-8.7,8.39-.31,8.7,0Z"/>
</svg>