<?xml version="1.0" encoding="UTF-8"?>
<svg id="Layer_1" data-name="Layer 1" xmlns="http://www.w3.org/2000/svg" viewBox="0 0 200 200">
  <defs>
    <style>
      .cls-1 {
        fill: #f9a00b;
      }

      .cls-2 {
        fill: #f48a47;
      }

      .cls-3 {
        fill: #64831c;
      }

      .cls-4 {
        fill: #c2321f;
      }

      .cls-5 {
        fill: #f1ddcf;
      }

      .cls-6 {
        fill: #de6310;
      }

      .cls-7 {
        fill: #89ae35;
      }

      .cls-8 {
        fill: #ea7937;
      }

      .cls-9 {
        fill: #f77789;
      }

      .cls-10 {
        fill: #f89f63;
      }

      .cls-11 {
        fill: #401d05;
      }

      .cls-12 {
        fill: #f14258;
      }

      .cls-13 {
        fill: #fbc787;
      }
    </style>
  </defs>
  <path class="cls-4" d="M156.79,119.82c-1.16,5.65-.68,14.8-2.39,19.97-1.14,3.44-4.14,3.88-5.34,6.51-3.13,6.89-4.13,23.57-6.28,31.69-.3,1.11-1.18,3.75-1.62,4.85-3.25,8.25-8.21,7.23-15.62,10.23-.71.06-1.44-.05-2.15,0-.36.03-.72-.02-1.08,0-2.53.16-6.17,1.08-8.35,1.08h-22.62c-1.81,0-7.42-.73-9.43-1.08-6.93-1.2-15.88-3.88-18.31-11.31-.09-.26.05-.73,0-1.08-.09-.57.19-1.28-.54-1.62-.01-.18.02-.36,0-.54-.82-7.4-3.05-17.46-4.85-24.78v-1.08c-.11-.46-.38-1.03-.54-1.62v-.54c-.14-.51-.36-1.1-.54-1.62v-.54c-1.89-4.89-4.15-4.84-5.43-8.31-.8-2.18-1.5-8.57-1.58-11.08v-.54c.03-.88-.19-2.61,0-3.23.29-.93,1.18-1.55,2.15-1.62-.17.75,0,2.32,0,3.23.17,18.75,10.22,18.94,26.39,21.01,5.49.7,11.14,1.12,16.7,1.08.36,0,.72,0,1.08,0,12.31,1.09,25.61.11,37.71-2.15,3.17-.59,15.08-3.04,16.71-5.26,1.39-1.89,3.29-17.68,3.22-20.6,0-.06-1.07.06-1.07,0-.1-1.13.72-1.87.54-2.69,1.26.18,2.3,1.17,3.23,1.62ZM144.94,154.29c.21-.99,2.32-7.15,1.34-7.55-.77-.31-13.68,2.84-16.24,3.15-14.53,1.77-27.84,1.91-42.45,1.16-8.01-.41-13.85-2.83-21.53-1.56-5.34.88-5.69-2.55-5.15,3.19.5,5.25,5.21,30.24,8.05,33.15,8.38,8.59,58.92,8.37,67.9-.3,2.71-2.62,3.83-9.21,3.23-12.93,1.89-6.15,3.52-11.99,4.85-18.31Z"/>
  <path class="cls-4" d="M83.54,25.55v.54c-4.56,2.26-8.94,9.36-6.46,14.54-3.52-.01-.95,2.73-.54,4.85.31,1.6.37,4.59,1.72,5.82,1.9,1.72,11.02,5.27,14.23,5.42,14.66.69,3.03-2.85-1.41-5.31-4.94-2.74-9.06-5-12.39-9.7v-1.08c0-.53.06-1.1,0-1.62,2.77-3.6,5.84-6.15,10.23-7.54-1.77,2.14-3.57,8.55.29,8.6,2.24.03-.7-2.82-.76-3.61-.31-3.98,6.44-3.36,8.55-3.91-.26,1.59.63,1.15,1.65.85,7.7-2.26,13.46,2.09,10.2,10.46-4.05,4.08-11.32,4.34-16.69,5.93.1,1.03,1.95.93,2.69,1.07,4.06.78,13.59.23,16.69-2.45.72-.62.43-1.71.54-1.86,3.32-4.12,4.15-6.83,3.77-12.39,3.37,5.24,4.63,9.24,2.15,15.62-.14.36-.35.74-.54,1.08-2.75,4.94-10.34,5.36-15.08,7-4.97.45-14.22,1.31-18.85.54-.29-.05-4.75-1.87-5.39-2.15-1.23-.55-1.92-1.65-2.69-2.15-3.57-7.18-2.53-10.17-2.09-17.53.06-.99-1.23-.67-1.15-1.05.33-1.67,2.32-1.21,3.02-2.43.14-.24.95-5.18.76-5.38-1.58-1.69-5.85,5.78-7.54,5.92.34-1.02,4.22-6.35,5.24-6.88,3.16-1.64,6.98-.62,9.84-1.2ZM101.31,39.01c-.04-4.34-7.88-6.79-8.62-1.89-.3,2,1.21-.58,2.01-.68,4.47-.6,3.55.57,6.62,2.57ZM102.39,41.71c-.18.04-1.44,1.7-3.12,1.99-5.4.94-9.82,1.04-13.57-3.61-1,2.1,2.06,3.05,2.15,3.5.08.38-1.86.63-1.61,1.34.09.27,4.58,2.56,5.08,2.62,3.31.39,18.09-5.16,11.62-5.84,3.44-1.11,2.74-7.94-.79-7.56-2.14.23,2.54,5.32.26,7.56ZM93.77,40.1c6.86-2.02,1.13-2.64-.54,0-4.73,1.41,4.61,3.95,4.85,1.62l-4.31-1.62Z"/>
  <path class="cls-4" d="M67.92,35.79c-8.61,10.74.59,19.06,10.23,23.7,1.85.89,3.68.23,4.31.54.24.12.64.65,1.62,1.08.08.04.09,1.21.85,1.55,5.68,2.48,9.9,6.12,16.92,3.84-.36,1.57-2.23,3.28-1.65,5.02.27.81,1.96.62,2.19.9,2.6,3.18,3,4.55,7,6.46,2.32,1.11,3.28,2.54,6.46,1.08v.54c-1.74,1.31-3.09,4.11-3.09,6.31,0,2.53,1.93,2.7,2.01,2.85.19.36.17.61.54,1.08.48.61-.1,1.5,1.96,3.17.4.32,8.16,3.77,8.63,3.77,1.04.01,2.15-1.61,3.29-1.96,1.29-.4,2.98.17,4.07-.24,3.17-1.2,4.17-9.1,3.07-12.28,7.85,2.72,3.47,1.54,1.62,3.25-.26.24,1.86,5.89,1.61,6.98-.43-.05-1.93-.09-2.15,0-2.46,1.03-1.68,1.45-.54,3.77-.33-.06-.79.09-1.08,0-4.95-1.52-3.75,1.07-4.31,4.31-.09-.34-.39-.72-.54-1.08-1.75-4.06-2.35-1.8-7.31-1.58-3.26.14-3-3.45-5.08,1.58-.88,2.14-1.39,5.8-1.08,8.08l-1.08.54c-.59-1.14-.36-2.03-2.15-1.62.05-.34-.07-.75,0-1.08.46-2.17,2.26-2.6,2.15-5.39,3.84-4.46.55-3.74-1.39-5.89s.82-3.18-3.46-2.73c-.91.09-5.24,1.69-5.93,2.15-1.38-.88-2.73-.83-4.31-1.62,2.69.22,5.1-.7,7.54-1.62.75-.28,2.72.19,3.25-.91,1.61-3.34-2.26-3.64-2.17-4.74.12-1.49,5.62-1.44.54-4.59-3.93-2.44-8.09-2.6-12.39-1.08,9.79-6.35-5.13-2.96-9.16-2.15-.17-.03-.37.03-.54,0-2.23-.44-6.72-1.21-8.62-2.15-5.12-2.55-1.42-5.01-10.23-4.31-.71-1.17-2.05-.68-1.62.54-.17.03-.36,0-.54,0s-.36,0-.54,0c.74-2.02-1.32-2.67-1.62-3.23-1.1-2.09-4.17-7.96-4.31-9.98-.36-5.03,2.42-5.57,2.69-8.12.18-1.74-1.16-4.44-1.07-7.22.01-.43.42-2.83.54-3.23.2-.65.72-1.54,1.08-2.15.58-1,2.54-2.84,3.77-3.23-.03.35,0,.72,0,1.08ZM92.69,70.8c-7.87.49-10.89-3.96-16.2-7.77-1.65-1.18-4.18-1.73-5.38-2.7-1.51-1.23-6.27-8.72-6.96-8.38-3.73,1.81.93,11.67,3.58,13.91,1.09.92,13.31,7.73,14.61,8.01,3.08.67,9.13.77,10.35-3.07Z"/>
  <path class="cls-3" d="M165.95,90.73v1.08c-2.44-.1-4.08,1.53-4.85,3.77l-1.88,2.7c1.53.21,2.19-2.52,2.42-2.7,1.86-1.47,3.46-2.04,5.39-3.23,1.45.44,2.38,1.65,4.31,2.15-.3,1.98-1.47,1.76-2.69,2.69l-.54.54c-.14.07-.38-.06-.54,0l-.54.54c-.64.21-1.47.36-2.15.54-2.07.54-6.24-.37-8.08,1.61,3.01-.41,6.1-.79,9.15-.53,6.73.58,10.31,2.14,15.36,6.45,7.95,6.77,7.66,7.96-1.71,12.32-7.57,3.52-14.94,4.89-22.81,1.16-.94-.44-1.97-1.44-3.23-1.62-.04-.19.06-.41,0-.54-.2-.42-.16-.33-.54-.54-.25-.14-1.16.1-1.62,0,.16-1.26-2.41-2.42-3.23-2.69-2.07-5.5-4.48-1.49-5.39-1.08-.36.16-.74.34-1.08.54-2.08,1.23-7.85,6.61-8.35,6.45-2.52-.79,2.18-8.02,2.97-8.6,3.32-2.46,6.15.97,11.31-2.15.28-.17.67-.1,1.08-.54,2.22-2.42,1.8-4.32,1.62-7.54,3-.16,2.82-2.51,3.77-4.31.19-.36.35-.73.54-1.08,1.65-.46,4.69-4.6,4.85-5.93,2.26-.08,4.25-.15,6.46.54ZM156.25,100.43h-1.07v.53h1.07v-.53ZM185.34,112.29c-.28-.58-8.79-7.58-9.87-8.18-2.8-1.54-7.19-3.08-10.34-3.13-5.24-.08-1.79,1.03-3.21,2.67-1.19,1.36-3.01,1.04-2.96,2.69.59.67,10.1.57,8.61,2.15-.64.68-9.37.58-10.23,1.63-.62.76,4.72,4.76,3.24,6.46-.27.31-3.11-.75-1.9,1.09,2.55,3.88,16.42.57,20.06-.97.71-.3,6.91-3.78,6.61-4.42Z"/>
  <path class="cls-3" d="M153.56,30.4l-.54-.54c.3-.87,1.06-2.62,1.62-3.23.8.8-1.04,3.07-1.08,3.77Z"/>
  <path class="cls-3" d="M176.72,15.86l-9.43,5.92c-5.87,9.76,2.71,2.55,3.24,2.71.27.08-1.46,2.96-.2,3.69,3.72,2.14,9.93-7.96,10.7-10.7-.04.52.09,1.15,0,1.62l-.54.54c-3.59,13.31-11.19,9.14-20.07,14.13-2.79,1.57-8.81,7.47-11.17,10.11-1.15.42-1.36.75-2.15,1.62-.07.08-3.2.76-.8,1.08.99.13,1.09-.97,1.34-1.08.96-.43,2.21-.5,2.69-1.62,3.65-1.3,6.59-2.31,10.23-3.77-.28,3.7,5.44-.3,8.07,1.62.23.55-1.23,1.07-1.34,1.07h-8.35c2.55,1.97,10.17,4.05,13.08,3.65,1.55-.21,7.93-4.27,8.47-6.34.11.13,2.21-.63.48,2.36-2.34,4.05-9.69,5.43-13.94,5.18-1.28-.08-2.52-.29-3.77-.54-1.56-.32-3.8-2.19-5.35-2.46-6.9-1.21-16.8,5.86-19.43,12.16-.04.1-1.45,1.81,0,.54l9.16-2.69c-.71.91-1.56,1.35-2.15,2.69h-1.62c-4.51,1.45-5.64,3.18-8.62,4.85-.19.11-.76-.07-1.08,0-.07-.42-.61-1.06-.54-1.62.47-3.61,5.66-7.83,6.46-9.7l.54-1.08c3.61-11.84-4.24-12.83-4.84-21.29-.3-4.27.5-5.32,2.14-8.88-1.17,7.13,1.17,18,4.85,4.85v9.7c1.15-1.2,3.93-1.91,4.79-3.02,1.6-2.09.49-5.72,2.76-6.67-.06,1.25-.31,1.68-.54,2.69v.54c-2.09,7.78-7,7.02-7,17.24v2.15c.78-2.02,9.41-8.62,9.64-9.24.13-.35-.16-4.79.6-7.45h.54c-.11,1.94-.18,6.26,2.69,3.23l.28,1.09c11.3-5.59,4.71-16.81,20.19-18.86Z"/>
  <path class="cls-13" d="M45.83,70.8c.16.07.34.4.54.54.56.39.94.99,1.08,1.08l2.15,7.54c-.05.02.17,1.04-.36,1.1-3.08.33-6.94-2.27-5.02,4.29-.46-.21-1.09-.21-1.62-.54-.42-.27-11.34-8.32-6.12-2.11,1.86,2.21,4.68,1.46,4.5,7.49-.02.79.15,4.16,0,4.31-.93.95-7.91-1.34-9.16-2.16-4.58-3-3.07-5.18-3.77-9.7.33-.73.74-1.43,1.08-2.15,1.86-.26,3.04-.44,1.08-1.62v-.54c3.77,1.13,2.46-.49,2.69-.54.47-.1,1.3.14,1.62,0,.05-.02.82.97,1.07.54.28-.48-.44-2.11.54-3.77,6.16,1.18,1.83-4.59,9.16-4.31.18.06.36.46.54.54Z"/>
  <path class="cls-6" d="M133.63,60.56c-.07.56.47,1.19.54,1.62.3,1.76,2.81,4.52,1.62,7.54.43-.32,1.34-1.7,1.61-2.15l1.61,2.15c-12.02,8.45-.9,5.91-.54,6.48.87,1.41-3.23,3.72-2.15,4.83.72.75,2.96-3.63,5.68,3.21.34.85-.64,2.86-.31,3.25.15.18,1.94-.17,2.16,0,.6.51-1.62,2.11-1.07,2.69.11.12,1.7-.18,2.15.27.82.79.78,2.2,1.45,2.45.82.31,7.63-1.36,8.38-1.77,4-2.23.83-3.56-.13-5.25-.04-.06-.98.22-1.09-.33-.09-.43.64-1.47.55-1.83h.54c.1.6-.17,1.81,0,2.15.04.08,1.23.16,1.62.54,1.23,1.21,2.89,1.08,3.23,3.23-2.85-.05-3.79,4.49-4.85,6.46-.19.35-.35.72-.54,1.08-7.93.77-3.91,1.95-3.77,4.31.19,3.22.6,5.12-1.62,7.54,2.42-7.56-1.95-12.49-8.62-15.08-.03,0,.63-.38,0-.54-.16-.04-.36.02-.54,0,.25-1.1-1.87-6.74-1.61-6.98,1.85-1.71,6.22-.53-1.62-3.25-.32-.93-2.28-3.65-3.23-4.31-1.22-.84-1.37-.75-2.69-1.08-.17-.04-.36.03-.54,0,.26-1.34-.88-1.24-1.62-1.62-.32-.17-.79-.47-1.08-.54-.72-.17-.81-.5-2.15-.54l-.54.54c-.18.01-.36-.02-.54,0-.66.08-1.62-.15-2.15,0-.71.19-3.03.95-2.69,2.15-.34.04-.73,0-1.08,0-.74,0-2.05.56-2.15.54-.1-.02.12-.31-1.62-1.08-.9-.4-2.52,0-2.15-1.61,3.74,1.6,1.46-1.21,2.15-2.15.42-.57,3.24,2.69,4.3,1.61.18-.19-.14-2.08,0-2.69.26-1.11.33-2.11.54-3.23,1.29.09,2.01,3.1,2.95,2.69,1.66-.72.37-4.45,2.43-4.3-1.76,4.54,4.32,4.19,4.77,4.92.53.85-1.06,5.88,2.77,3.43,2.62-1.67,2.25-10.52,1.59-13.3-.16-.69-1.77-.86-2.13-2.06h2.15Z"/>
  <path class="cls-7" d="M24.29,124.12c.72-1.57,5.44-9.55,6.46-10.5,4.73-4.42,3.53.08,3.8.25.47.28,2.5.09,3.73.85,1.12.69,1,2.23,1.17,2.32.94.49,3.34-.38,4.26.32.99.76.28,3.32.5,3.54.19.19,4.87-.23,5.39.54.11.17-1.47,3.61-1.61,3.76-3.45,3.64-22.82,4.52-24.78,2.69-.82-.76.73-3.01,1.08-3.77Z"/>
  <path class="cls-1" d="M32.9,23.4l1.34,3.24-.8-3.24c.08,0,1.07-.79,1.62-.54,3.82,2.02,4.33,2.46,5.39,7,.47,1.6-.65,2.3-1.08,3.23l-.54,1.08c-2.41,3.83-2.42,3.05-5.93,4.31-3.4-4.39-2.2-.51-4.59.02-3.7.82-5.18-4.89-4.52-6.69.58-1.56,3.06.05,2.65-1.95-2.49.12-2.55-.18-2.75-2.43-.47-5.46,6.48-4.44,9.21-4.04ZM30.75,30.94c-.08-.07-2.14-.19-2.15.26-.01,1.24,3.49.94,2.15-.26Z"/>
  <path class="cls-3" d="M40.98,33.09v.54c.18,1.48-1.21,2.46-.84,3.75.21.73,5.43,5.05,6.44,6.53,2.41,3.51,4.49,7.58,6.78,11.26.36.57.49,1.82,1.08,2.69.27.41.45,1.07,1.07,1.08.31-.92-.53-1.02-.53-1.08-.32-3.43-1.02-2.53-1.08-2.69-.35-1.08-.65-3.33-1.08-4.85.23-.41,1.18-1.78,1.61-1.62.19.08-.5,1.8.54,1.61l1.62-4.3c1.71,5.78-1.95,14.05,3.23,19.93-.64-.08-1.49-.03-2.15,0-.18,0-.36-.02-.54,0-.12-.2-.46-.37-.54-.54-1.85-4.11-8.99-1.11-13.15-1.67-4.7-.64-13.33-8.31-12.73-13.16.18-1.47.64-.52,1.1-.79,1.38,3.75,5.29,10.49,9.7,11.09,1.97.27,2.47-.86,4.02-.88,1.32-.01,3.11,1.21,3.77,1.11,2.15-.32-8.07-4.85-8.34-6.47,2.58-.08,8.34,6.43,10.23,3.23.69.73,1.45,1.44,2.15,2.15.42.43,1.25,1.67,1.35,1.62,1.19-.61-.71-1.43-.81-1.62-1.04-2.01-1.72-2.71-2.69-4.31-2.28-3.75-9.08-16.27-13.45-17.04-1.57-.27-4.61,4.5-5.94.34.45-.11.76-.43,1.08-.54,3.5-1.26,3.52-.48,5.93-4.31.3-.47.33-.62.54-1.08.42-.93,1.55-1.63,1.08-3.23.32,1.38.36,1.9.54,3.23Z"/>
  <path class="cls-7" d="M150.33,24.47c-2.26.95-1.15,4.58-2.76,6.67-.86,1.12-3.64,1.82-4.79,3.02v-9.7c-3.68,13.15-6.02,2.28-4.85-4.85,6.3-13.63,12.97-7.59,12.39,4.85Z"/>
  <path class="cls-1" d="M131.48,59.49c0,.34-.07.83,0,1.08.36,1.2,1.97,1.37,2.13,2.06.66,2.77,1.03,11.63-1.59,13.3-3.83,2.45-2.24-2.58-2.77-3.43-.46-.73-6.54-.37-4.77-4.92-2.06-.15-.77,3.58-2.43,4.3-.94.41-1.67-2.6-2.95-2.69.09-.5-.1-1.12,0-1.62.24-1.22.22-2.55.54-3.77.37-1.44,2.08-3.57,2.15-3.77,1.75,0,4.4-.99,5.93-1.08,1.3-.08,2.5.43,3.77.54Z"/>
  <path class="cls-3" d="M42.06,110.12c.18-.01.36.02.54,0-.02,4.79,3.61,3.3,5.39,3.77,2.77.74,6.92,2.09,9.7,2.15-.26.58-.26,1.7-.54,2.15-.06.1-1.22,1.17-1.62,1.62-1.15,1.3-2.73,1.56-3.23,3.77-.97.06-1.87.69-2.15,1.62h-2.15c.14-.15,1.73-3.59,1.61-3.76-.52-.78-5.19-.35-5.39-.54-.22-.22.49-2.78-.5-3.54-.93-.71-3.32.17-4.26-.32-.17-.09-.05-1.63-1.17-2.32-1.22-.76-3.26-.57-3.73-.85-.27-.17.93-4.67-3.8-.25-1.02.95-5.74,8.94-6.46,10.5v-1.08c1.02-6.15,4.73-9.64,8.62-14,2.89,1.05,6.1,1.29,9.16,1.08Z"/>
  <path class="cls-13" d="M57.68,65.95c.53,1.01,2.07.32,2.69.54.88.31,1.53,1.09,3.23,1.62.4.12.8.18,1.08.54v.54c.08.49-.12,1.2,0,1.62.05.17.37.38.54.54v.54c0,.36,0,.72,0,1.08,0,1.4-.4,9.04-2.96,8.61-.94-.16-1.06-3.34-1.87-4.04-1.35-1.17-.99.82-1.09.82-5.07-.03-4.23-2.28-7.54,2.15h-.54c.01-.18,0-.36,0-.54-.2-6.09-4.22-12.05,5.39-14,.17-.03.36.02.54,0s.36,0,.54,0Z"/>
  <path class="cls-1" d="M66.84,12.09c.18.13,3.49.16,4.31,1.08.04.16,0,.37,0,.54.04.71-.03,1.44,0,2.15-.46,2-2.25,5.2-3.77,6.46-1.24.29-2.53.34-3.77.54-.17.03-.36-.02-.54,0,.58-3.12-2.11-.17-3.95-1.57-.75-.57-.58-2.43-.89-2.74-1.23-1.25-5.08-.28-3.12-5.01,1.03-2.48,4.24-1.04,4.73-1.46.17-.15-.51-2.95,1.41-4.25,3.92-2.65,4.79,3.69,5.59,4.26Z"/>
  <path class="cls-12" d="M109.93,26.63c.11-1.81,5.07-1.31,7.02-.83,2.94.72,4.42,4.08,6.98,5.68.23.14,1.86-.18,2.7.24,4.22,2.12,2.62,4.64,3.76,8.38-.69-.36-1.37-.56-2.15-.54-.25-3.63.74-6.29-4.31-6.46v8.35c0,.52-4.37,8.59-5.93,8.35,2.47-6.38,1.21-10.38-2.15-15.62-.34-.52-.72-1.1-1.08-1.62-.03-2.94-2.55-4.64-4.85-5.93Z"/>
  <path class="cls-4" d="M130.4,40.1c8.38,4.37.99,14.47,1.08,19.39-1.27-.11-2.47-.62-3.77-.54l-5.39-.54c.06-.16-.06-.38,0-.54.65-1.82,3.74-4.18-.54-5.39.35-.26.71-.75,1.08-1.08,2.97-2.64,4.74-4.63,5.39-8.62,1.73.29,1.55-1.43,0-1.08.06-.68.05-1.47,0-2.15.79-.03,1.46.18,2.15.54Z"/>
  <path class="cls-7" d="M180.49,40.1c-.54,2.07-6.91,6.13-8.47,6.34-2.91.4-10.53-1.68-13.08-3.65h8.35c.11,0,1.57-.52,1.34-1.07-2.64-1.93-8.36,2.08-8.07-1.62,6-2.41,13.71-7.48,19.93,0Z"/>
  <path class="cls-7" d="M50.68,56.26c.36.34.37,1.43.54,1.62-1.9,3.21-7.65-3.31-10.23-3.23.27,1.62,10.49,6.15,8.34,6.47-.66.1-2.45-1.12-3.77-1.11-1.55.01-2.04,1.15-4.02.88-4.41-.6-8.32-7.34-9.7-11.09,6.02-3.56,14.59,2.39,18.85,6.46ZM40.44,53.57c-.06-.06-1.86-.34-1.61.53.9.54,2.73.57,1.61-.53Z"/>
  <path class="cls-7" d="M19.44,83.19c-4.18,2.2-12.32,1.64-15.28-2.1-2.17-2.74,15.4-9.91,17.98-3.29-.33.03-3.26,2.85-5.92,1.62,1.34,1.42,5.33-.58,5.38,2.15-.91.3-2.43.08-2.15,1.62Z"/>
  <path class="cls-2" d="M198.81,77.8c3.22,4.61-.64,10.13-5.01,12.5-1.19.64-4.77.71-5.14,1.05-1.85,1.7,1.09,5.53-7.34,5.29-1.89-.06-8.11-1.65-9.98-2.14.45-2.93-1.02-.7-1.76-1.16-.8-.5-2.9-2.54-3.09-2.61,2.65-5.65-1.19-1.53-3.98-1.64-3.87-.14-3.12-1.93-3.56-3.75,2.12.31,4.1,1.35,6.22,1.65,2.88.42.56-2.92,4.02,1.04s9.25,8.78,15.1,7.32c1.89-.47,4.35-2.87.52-3.55,3.05-.98,2.42-2.41,0-3.77v-2.15c2.49.04,6.04-2.61,5.39.54-.15.1-3.96,1-2.15,2.15,2.8,1.78,10.02-3.24,10.77-7v-1.62c-.12-.84.07-.84-.54-1.62l.54-.54Z"/>
  <path class="cls-3" d="M25.36,57.33c-3.19.26.36,7.89.55,9.69,2.28.55-.29-2.85.8-2.69,1.28.19,1.37,4.97,3.5,4.84,1.44-3.39-.47-6.19-1.61-9.15,6.83,7.47-.83,11.2,4.31,17.78-.23.05,1.08,1.67-2.69.54-.09-.03-.92-.7-1.62-1.08-.18-.56-.64-.76-1.08-1.08-5.31-3.81-8.49-6.21-14.54-8.62,2.8-3.18-4.32-2.91-4.84-6.46,3.02-.12,4.7,4.62,7.54,3.23,3.93,4.35,7.68,6.95,12.67,10.22-3.12-4.45-10.67-13.39-2.97-17.22Z"/>
  <path class="cls-7" d="M176.72,15.86c4.21-.56,4.6-2.24,4.31,1.62-.77,2.74-6.98,12.84-10.7,10.7-1.26-.73.48-3.6.2-3.69-.53-.16-9.12,7.05-3.24-2.71l9.43-5.92ZM171.07,23.4v.54l.27-.27-.27-.27Z"/>
  <path class="cls-12" d="M68.45,33.63c1.69-.14,5.96-7.61,7.54-5.92.19.2-.63,5.14-.76,5.38-.7,1.22-2.68.76-3.02,2.43-.08.38,1.21.07,1.15,1.05-.44,7.36-1.48,10.35,2.09,17.53-.94-.61-6.46-4.7-6.46-5.12v-9.16c0-.73-1.08-3.22-1.08-4.04,0-.35-.03-.73,0-1.08.06-.62.46-.85.54-1.08Z"/>
  <path class="cls-7" d="M15.67,64.33c-2.83,1.39-4.51-3.35-7.54-3.23.53,3.55,7.65,3.28,4.84,6.46-4.73-1.88-5.01.7-9.7-4.85l-2.15-7c9.52-2.11,10.4,4.04,14.54,8.62ZM7.32,60.56v.54l.27-.27-.27-.27Z"/>
  <path class="cls-10" d="M31.83,92.34l-.54,1.62c-5.52-.21-2.87,10.1-.85,11.93.87.78,2.05-.26,2.38-.03,2.36,1.66.89,3.98,7.91,2.65,3.11-.59,3.01-2.06,5.11-3.24l-3.77,4.85c-3.05.21-6.27-.03-9.16-1.08-4.67-1.7-7.44-7.78-6.32-12.52.26-1.13,3-3.97,3.02-4.46.02-.36-.98-.7-1-.79-.19-.8-.98-1.71-1.08-2.15-.36-1.61-1.07-2.03-1.08-2.15-.04-.75,1.2-3.4,1.62-4.31.7,4.52-.8,6.7,3.77,9.7Z"/>
  <path class="cls-9" d="M87.85,25.01v.54c.19.58.75.4,1.08.54.96.41,2.85.68,3.23,1.61-5.43-.96-14.11,6-13.46,11.32.06.52,0,1.09,0,1.62-.54,0-1.08,0-1.62,0,.53,1.11,1.54.97,1.62,1.08,3.32,4.7,7.45,6.95,12.39,9.7-5.03,1.67-10.81-3.1-14.54-5.93-.41-2.11-2.98-4.86.54-4.85-2.48-5.19,1.91-12.28,6.46-14.54.14-.07.38.06.54,0,.6-.22,2.26.52,2.69-.54v-.54c.32-.07.75.07,1.08,0Z"/>
  <path class="cls-4" d="M123.94,31.48c-2.56-1.6-4.04-4.96-6.98-5.68-1.96-.48-6.92-.98-7.02.83,2.3,1.29,4.82,2.99,4.85,5.93-.88-1.28-4.93-4.49-4.85-5.93-.57-.32-2.51-.23-3.23-.54-2.5-1.08-4.02-2.91-7.27-3.23-4.42-.44-6.16,1.27-9.96,2.15.18-.36.36-.72.54-1.08.17-.04.37.04.54,0l.54-.54c2.39-.63,3.84-2.25,7.27-2.2,4.6.06,7.74,3.69,9.14,3.8,1.23.1,4.07-1.72,7.3-1.38,3.55.38,9.33,3.68,9.14,7.86Z"/>
  <path class="cls-4" d="M89.46,25.01c-.18.36-.36.72-.54,1.08-.33-.14-.89.04-1.08-.54.5-.31,1.05-.41,1.62-.54Z"/>
  <path class="cls-8" d="M35.06,22.86c-.55-.25-1.53.55-1.62.54-.18-.01-.36.03-.54,0-2.73-.4-9.68-1.42-9.21,4.04.2,2.25.26,2.54,2.75,2.43.4,2-2.07.38-2.65,1.95-.67,1.8.82,7.51,4.52,6.69,2.39-.53,1.19-4.42,4.59-.02-.32.11-.62.43-1.08.54-3.2.77-5.37,2.26-8-.89-1.83-2.19-2.24-10.08-1.58-12.73,1.07-4.27,9.41-4.34,12.81-2.54Z"/>
  <path class="cls-7" d="M28.59,60.03c1.14,2.96,3.05,5.77,1.61,9.15-2.13.12-2.22-4.65-3.5-4.84-1.09-.16,1.48,3.24-.8,2.69-.19-1.81-3.74-9.44-.55-9.69.74-.06,2.64,2.04,3.23,2.69Z"/>
  <path class="cls-2" d="M195.58,75.11c-.13.16-1.15-.29-1.08.27s.78.12,1.08.27c.37.19.67.23,1.08.54v1.08c-.21-.16-1.33.16-1.62,0-.52-.3-.83-.82-1.62-1.08-.05-.02.8-.78.28-1.06-1.95,1.16-3.96,1.48-6.2,1.6.35-1.28,2.12-2.22,3.23-3.23,6.45-5.91,2.85-2.21,5.12-2.17,1.65.03,2.47-4.53,1.35-5.91h.54c2.12,5.07,1.02,5.94-2.15,9.7Z"/>
  <path class="cls-7" d="M153.56,30.4h-.54c.05-.17-.05-.38,0-.54l.54.54Z"/>
  <path class="cls-7" d="M156.25,33.63c-2.87,3.03-2.8-1.3-2.69-3.23.04-.71,1.87-2.98,1.08-3.77,4.7-5.17,5.34,3.08,1.62,7Z"/>
  <path class="cls-3" d="M63.07,22.86c.18-.02.36.03.54,0v.54l.54,14.54c-.36.62-.88,1.5-1.08,2.15h-.54c-.08-.5.11-1.18,0-1.62l-.54-.54c-.72-4.48-.86-9.99-.54-14.54.16.02,1.08-.48,1.62-.54Z"/>
  <path class="cls-7" d="M56.6,46.02l-1.62,4.3c-1.04.19-.34-1.53-.54-1.61-.43-.17-1.38,1.2-1.61,1.62-.17-.6-1.31-1.43-1.58-3-1.46-8.79,3.8-6.54,5.35-1.3Z"/>
  <path class="cls-8" d="M66.84,10.47c.21.28.09.28.54.54-.02.3-.41.75-.54,1.08-.8-.57-1.67-6.91-5.59-4.26-1.93,1.3-1.24,4.11-1.41,4.25-.49.42-3.7-1.03-4.73,1.46-1.97,4.73,1.88,3.76,3.12,5.01-.35-.04-.74.06-1.08,0-2.99-.52-4.05-2.65-3.11-5.54.14-.42,5.64-6.16,6.04-6.34,6.05-2.73,5.43,2.08,6.76,3.8ZM59.29,11.01v-1.07h-.53v1.07h.53Z"/>
  <path class="cls-2" d="M56.6,65.95c-9.61,1.96-5.59,7.91-5.39,14-.47.52-1.54-.03-1.62,0l-2.15-7.54c.12.08.39-.06.54,0,.04.71.45.7.54,0,.06-.51-.11-1.2,0-1.62,1.23-4.51,3.63-4.98,8.08-4.85Z"/>
  <path class="cls-3" d="M28.06,78.88h1.08c.33.07.9-.1,1.08,0,1.96,1.18.79,1.36-1.08,1.62-2.93.41-4.29,0-7.54,1.08.03,1.81-1.2,1.11-2.15,1.62-.28-1.54,1.24-1.31,2.15-1.62-.05-2.73-4.05-.72-5.38-2.15,2.66,1.23,5.59-1.59,5.92-1.62.35-.03,4.94.89,5.93,1.08Z"/>
  <path class="cls-2" d="M184.26,54.64c.5,2.27-.35,10.99,2.69,4.31h.54c.04.17-.05.38,0,.54v.54c1.92,1.14,3.33.1,4.85.54v.54c-.54-.16-4.7-.13-5.39,0-.75.15-3.14,1.59-3.77,2.15l-1.08-.54c1.2-2.57,1.81-5.85,1.08-8.62.32.2.81.31,1.08.54Z"/>
  <path class="cls-10" d="M170.26,52.48c1.67-.14,3.18-2.87,7.12-2.59,2.45.17,9.22,4.53,10.11,6.9-.49.2-.48.64-.54,1.08-.54-2.58-1.46-2.2-2.69-3.23-.27-.22-.75-.34-1.08-.54-6.09-3.82-5.84-2.72-11.85-1.08-.43.12-1.12-.08-1.62,0v-.54c.15.03.38.01.54,0Z"/>
  <path class="cls-10" d="M45.29,70.26c-7.32-.28-3,5.49-9.16,4.31.25-.42.8-.7,1.08-1.08,2.46-3.39,3.79-4.52,8.08-3.23Z"/>
  <path class="cls-7" d="M58.22,18.55c.31.31.14,2.17.89,2.74,1.84,1.39,4.53-1.55,3.95,1.57-.54.06-1.46.55-1.62.54-2.91-.3-4.74-1.79-4.31-4.85.34.06.73-.04,1.08,0Z"/>
  <path class="cls-7" d="M26.44,86.96c0,.12.72.54,1.08,2.15l-2.69,1.08c-1.92-2.13-.89-2.98,1.62-3.23Z"/>
  <path class="cls-3" d="M3.28,62.72c-1.1-1.31-3.65-4.84-3.23-6.46,0-.04.5-.52.54-.54.12-.06.35.04.54,0l2.15,7Z"/>
  <path class="cls-7" d="M164.87,98.81l1.08,1.08c-3.05-.26-6.14.12-9.15.53,1.84-1.98,6-1.07,8.08-1.61Z"/>
  <path class="cls-2" d="M37.21,73.49c-.27.38-.83.66-1.08,1.08-.99,1.65-.26,3.29-.54,3.77-.25.43-1.02-.56-1.07-.54v-3.23c.78-.51.99-1.59,2.69-1.08Z"/>
  <path class="cls-10" d="M196.11,64.33c.3.37.73-1.04,1.62,1.08h-.54c-1.36.38-.96-.97-1.08-1.08-.55-.51-3.53-3.16-3.77-3.23v-.54c4.07,1.17,2.56,2.25,3.77,3.77Z"/>
  <path class="cls-3" d="M27.52,89.11c.1.44.89,1.36,1.08,2.15-.99-.18-2.6.29-3.42.02-.66-.22-.26-.99-.35-1.1l2.69-1.08Z"/>
  <path class="cls-5" d="M53.91,60.03h-.54c-.71-.71-1.47-1.42-2.15-2.15-.17-.18-.18-1.28-.54-1.62l.54-.54c.97,1.6,1.65,2.3,2.69,4.31Z"/>
  <path class="cls-2" d="M71.15,13.16c-.82-.92-4.13-.95-4.31-1.08.13-.33.52-.78.54-1.08.97.57,2.9-1.16,3.77,2.15Z"/>
  <path class="cls-7" d="M63.07,40.1c-.12.4-.52,2.8-.54,3.23-1.72-1.27-2.52-2.73,0-3.23h.54Z"/>
  <path class="cls-2" d="M167.57,49.25c1.93,1.08,2.16-.05,2.69,3.23-.16.01-.39.03-.54,0-.85-.17-2.15-1.69-2.15-2.69v-.54Z"/>
  <path class="cls-10" d="M198.81,77.8l-.54.54c-.06-.08-1.05-.63-1.62-1.08v-1.08c.8.6,1.07.07,2.15,1.62Z"/>
  <path class="cls-5" d="M167.03,47.64v1.08c-.15-.05-.36.04-.54,0-1.02-.23-1.73-.92-3.23-.54v-1.08c1.25.25,2.49.46,3.77.54Z"/>
  <path class="cls-5" d="M53.91,55.18c.05.16.75-.73,1.08,2.69h-.54c-.59-.88-.72-2.12-1.08-2.69h.54Z"/>
  <path class="cls-13" d="M34.52,76.72h-2.15c.29-1.65,1.21-1.53,2.15-2.15v2.15Z"/>
  <path class="cls-5" d="M48.52,70.8c-.11.41.06,1.11,0,1.62h-.54c-.15-.06-.42.08-.54,0-.14-.09-.51-.69-1.08-1.08v-.54h2.15Z"/>
  <path class="cls-7" d="M67.38,22.32c-1.32,1.1-2.06,1.26-3.77,1.08v-.54c1.24-.2,2.53-.25,3.77-.54Z"/>
  <path class="cls-4" d="M85.15,25.01l1.62.54c-.43,1.06-2.1.32-2.69.54v-.54c.21-.05.61-.43,1.08-.54Z"/>
  <path class="cls-5" d="M149.25,43.87c.28-.1.8.1,1.08,0-.48,1.12-1.73,1.18-2.69,1.62h-.54c.8-.87,1-1.19,2.15-1.62Z"/>
  <path class="cls-10" d="M63.61,68.11c-1.7-.53-2.35-1.31-3.23-1.62v-.54c1.06.27,2.41,1.39,3.23,2.15Z"/>
  <path class="cls-2" d="M59.84,65.95c.17.02.37-.04.54,0v.54c-.62-.22-2.16.47-2.69-.54.67-.03,1.51-.08,2.15,0Z"/>
  <path class="cls-8" d="M187.5,58.95h-.54c.09-.2-.04-.74,0-1.08.05-.44.04-.87.54-1.08.18.47-.15,1.57,0,2.15Z"/>
  <path class="cls-10" d="M71.15,15.86c-.03-.72.04-1.44,0-2.15,1.19,1,.14,1.56,0,2.15Z"/>
  <path class="cls-12" d="M86.77,25.01v.54l-1.62-.54c.47-.11,1.14.11,1.62,0Z"/>
  <path class="cls-7" d="M140.09,50.87c.15-.35.52-1.02.54-1.08l-.54,1.08Z"/>
  <path class="cls-8" d="M167.03,48.71c.16.06.34.43.54.54v.54c-.5-.24-1.05-.51-1.62-.54l.54-.54c.18.04.39-.05.54,0Z"/>
  <path class="cls-5" d="M29.13,78.88h-1.08c.05,0,.07-.23,1.08,0Z"/>
  <path class="cls-12" d="M89.46,25.01c-.56.13-1.12.23-1.62.54v-.54c.66-.14,1.49-.92,2.15-1.08-.18.36-.36.72-.54,1.08Z"/>
  <path class="cls-12" d="M106.7,26.09c-1.83,1.32,2.21,2.73,1.07,3.23-.65.28-3.66-.11-4.84,0,.75-2.95-12.58-2.28-10.77,1.08-1.1.23-2.15.73-3.23,1.08-4.39,1.4-7.47,3.94-10.23,7.54-.64-5.32,8.03-12.27,13.46-11.32-.38-.93-2.27-1.19-3.23-1.61.18-.36.36-.72.54-1.08,3.8-.88,5.55-2.59,9.96-2.15,3.25.32,4.77,2.14,7.27,3.23Z"/>
  <path class="cls-8" d="M58.22,153.75c-.08-.32.08-.76,0-1.08v1.08Z"/>
  <path class="cls-10" d="M195.58,75.11v.54c-.3-.15-1.02.3-1.08-.27s.95-.11,1.08-.27Z"/>
  <path class="cls-7" d="M168.1,97.73l.54-.54c-.17.13-.3.42-.54.54Z"/>
  <path class="cls-7" d="M167.03,98.27l.54-.54c-.1.04-.26.45-.54.54Z"/>
  <polygon class="cls-5" points="60.11 39.56 60.37 39.83 60.11 40.1 60.11 39.56"/>
  <path class="cls-13" d="M67.38,11.01c-.45-.26-.32-.26-.54-.54.36-.08.56.23.54.54Z"/>
  <path class="cls-7" d="M62.53,38.48s-.48-.19-.54-.54l.54.54Z"/>
  <path class="cls-7" d="M40.98,33.63v-.54c.02.18-.02.36,0,.54Z"/>
  <path class="cls-10" d="M46.37,71.34c-.2-.14-.38-.47-.54-.54h.54v.54Z"/>
  <path class="cls-5" d="M57.14,65.95c-.18.02-.37-.03-.54,0v-.54c.08.17.41.34.54.54Z"/>
  <path class="cls-7" d="M.05,56.26l.54-.54s-.53.5-.54.54Z"/>
  <path class="cls-7" d="M149.79,27.71v-.54c-.04.17.04.37,0,.54Z"/>
  <path class="cls-12" d="M84.08,26.09c-.16.06-.4-.07-.54,0v-.54c.17-.04.37.04.54,0v.54Z"/>
  <path class="cls-10" d="M187.5,60.03v-.54c.16.52-.02.52,0,.54Z"/>
  <path class="cls-5" d="M28.59,77.26c-.49-.27-.88-.51-1.08-1.08.44.31.89.51,1.08,1.08Z"/>
  <path class="cls-7" d="M24.29,123.59c-.41-.28-.02-.43,0-.54v.54Z"/>
  <path class="cls-7" d="M50.14,128.97c0-.22,0-.32,0-.54v.54Z"/>
  <path class="cls-12" d="M90.54,23.94c.16-.04.36-.49.54-.54l-.54.54Z"/>
  <path class="cls-8" d="M57.68,151.06c-.05-.17.05-.37,0-.54v.54Z"/>
  <path class="cls-7" d="M180.49,19.63l.54-.54c-.06.33-.53.5-.54.54Z"/>
  <path class="cls-8" d="M57.14,148.9c-.05-.16.06-.38,0-.54v.54Z"/>
  <path class="cls-13" d="M63.61,180.68c-.69-.34-.49-1.02-.54-1.62.73.34.45,1.04.54,1.62Z"/>
  <path class="cls-13" d="M123.4,193.07h-1.08c.36-.02.72.03,1.08,0Z"/>
  <path class="cls-8" d="M60.91,152.67c4.17,0,4.97-1.81,9.99-1.64,17.88.62,35.72,3.57,53.86,2.2,2.72-.2,17.83-4.11,18.86-2.75.85,1.11-.86,4.08,1.31,3.8-1.32,6.32-2.96,12.16-4.85,18.31-.02.05-.85-.33-1.08.38-1.06,3.33-1.44,8.93-2.15,12.55-8.97,8.66-59.52,8.88-67.9.3-2.84-2.91-7.55-27.9-8.05-33.15ZM120.89,172.98c-.02-8.16.64-12.53-8.37-15.08-4.81-1.36-30.15-3.7-33.48-1.38-3.63,2.54-.63,12.61-1.54,17.01,3.53,16.43,38.48,16.5,43.99,2.82,1.2-2.99-.6-3.21-.6-3.38Z"/>
  <path class="cls-10" d="M80.84,126.82c-.24,1.3.57,1.21,1.49,1.45,11.27,2.89,27.31,1.92,38.91.71,2.72,4.61,5.99,7.24.57,12.15-2.22,2.01-6.19,2.2-6.49,2.4-.22.15-.12,3.38-2.52,4.21-1.79.62-13.69,1.12-16.33,1.17-.36,0-.72,0-1.08,0l-10.43-2.77c-1.58-.6-6.98-4.27-7.89-5.58-.21-.3-3.05-6.19-3.1-6.55-.39-2.55,3.53-5.04,2.03-7.73,1.64.19,3.19.39,4.85.54Z"/>
  <path class="cls-8" d="M105.62,125.74c-.58,2.88,1.64.75,3.23,2.15-9.45.11-18.61-.22-28.01-1.08-1.66-.15-3.21-.35-4.85-.54-3.53-.41-7.2-1.79-10.77-1.09,7.56.36,1.09,5.03,2.28,12,1.07,6.3,7.22,7.23,11.19,10.63-16.18-2.06-26.22-2.25-26.39-21.01,3.79-.53,4.83-4.98,9.15-3.78l-5.92-3.23c.4-.45,1.56-1.52,1.62-1.62,14.57,6.2,32.65,7.61,48.48,7.54ZM64.14,123.05c-.1-.06-1.54-.05-1.61,0-.96.7,2.57.63,1.61,0Z"/>
  <path class="cls-2" d="M140.09,125.2c-4.28,3.68.15,2.21.57,6.73.4,4.29-1.86,4.78-2.64,7.09-.24.7,1.09,1.74.9,2.53-.5,2.14-4.92,2.88-4.76,5.2-12.1,2.26-25.39,3.24-37.71,2.15,2.64-.05,14.55-.55,16.33-1.17,2.4-.83,2.3-4.06,2.52-4.21.29-.2,4.27-.39,6.49-2.4,5.42-4.91,2.16-7.54-.57-12.15,2.28-.24,4.73-.71,7-1.08.17-.03.36.03.54,0,3.81-.64,6.06-1.25,9.7-2.15.38-.09,1.02-.37,1.62-.54Z"/>
  <path class="cls-8" d="M153.02,120.89c0,.05,1.07-.06,1.07,0,.07,2.92-1.83,18.71-3.22,20.6-1.63,2.22-13.53,4.66-16.71,5.26-.16-2.32,4.26-3.06,4.76-5.2.19-.79-1.14-1.83-.9-2.53.78-2.3,3.03-2.8,2.64-7.09-.42-4.53-4.85-3.05-.57-6.73,4.33-1.21,8.96-2.04,12.93-4.31Z"/>
  <path class="cls-6" d="M60.91,152.67c-.55-5.74-.19-2.31,5.15-3.19,7.68-1.27,13.52,1.15,21.53,1.56,14.61.75,27.92.62,42.45-1.16,2.56-.31,15.48-3.46,16.24-3.15.98.4-1.13,6.56-1.34,7.55-2.17.27-.47-2.7-1.31-3.8-1.04-1.36-16.15,2.54-18.86,2.75-18.15,1.37-35.99-1.58-53.86-2.2-5.02-.17-5.82,1.63-9.99,1.64Z"/>
  <path class="cls-2" d="M76,126.28c1.5,2.7-2.43,5.18-2.03,7.73.06.36,2.9,6.24,3.1,6.55.91,1.31,6.3,4.98,7.89,5.58l10.43,2.77c-5.55.04-11.21-.38-16.7-1.08-3.96-3.4-10.12-4.33-11.19-10.63-1.18-6.97,5.28-11.64-2.28-12,3.56-.7,7.24.67,10.77,1.09Z"/>
  <path class="cls-6" d="M151.41,117.12c.46.1,1.36-.14,1.62,0l.54.54c.06.13-.04.35,0,.54.18.82-.64,1.56-.54,2.69-3.96,2.27-8.6,3.1-12.93,4.31-.6.17-1.24.44-1.62.54-2.38.52-8.89-.67-9.7,2.15-.17.03-.36-.03-.54,0-6.41-1.34-12.95-.08-19.39,0-1.59-1.41-3.81.72-3.23-2.15,6.92-.03,37.77-2.21,42.23-5.98.98-.83.98-1.45.86-2.64.13.03,1.2-.33,2.69,0Z"/>
  <path class="cls-6" d="M55.53,119.82l5.92,3.23c-4.32-1.2-5.36,3.25-9.15,3.78,0-.91-.17-2.48,0-3.23.5-2.22,2.08-2.47,3.23-3.77Z"/>
  <path class="cls-6" d="M140.09,172.6c.59,3.72-.52,10.31-3.23,12.93.72-3.62,1.1-9.22,2.15-12.55.22-.71,1.06-.32,1.08-.38Z"/>
  <path class="cls-9" d="M122.32,57.87c-2.29.71-4.68,1.06-7,1.62-1.68.4-2.53.52-4.31,1.08-2.11.65-5.87,2.77-8.08,3.23-.1.02-.31.5-.54.54-.34.06-.73-.04-1.08,0-6.91.84-10.94-1.71-17.24-3.23-.98-.43-1.37-.96-1.62-1.08l1.08-1.62c4.63.77,13.88-.09,18.85-.54,6.72-.61,13.75-1.29,19.39-5.39,4.28,1.2,1.19,3.57.54,5.39Z"/>
  <path class="cls-9" d="M109.93,26.63c-.09,1.44,3.97,4.65,4.85,5.93.35.51.74,1.09,1.08,1.62.38,5.55-.45,8.27-3.77,12.39l-17.24,4.31c-.74-.14-2.59-.04-2.69-1.07,5.37-1.59,12.64-1.85,16.69-5.93,2.75-2.77,3.27-3.44,2.72-7.84-1.12-8.96-9.11-4.91-14.57-3.47-2.11.56-8.86-.07-8.55,3.91.06.8,3,3.65.76,3.61-3.86-.06-2.06-6.46-.29-8.6,1.08-.34,2.13-.85,3.23-1.08,3.15-.65,7.53-.78,10.77-1.08,1.19-.11,4.19.28,4.84,0,1.13-.5-2.9-1.91-1.07-3.23.72.31,2.66.22,3.23.54Z"/>
  <path class="cls-9" d="M67.92,35.79c0,.82,1.08,3.31,1.08,4.04v9.16c0,.41,5.53,4.51,6.46,5.12.78.5,1.46,1.61,2.69,2.15v3.23c-9.64-4.64-18.84-12.96-10.23-23.7Z"/>
  <path class="cls-9" d="M128.24,39.56c.05.68.06,1.47,0,2.15-.03.35.06.73,0,1.08-.64,3.99-2.42,5.98-5.39,8.62l-5.39-.54c.19-.34.4-.72.54-1.08,1.55.24,5.93-7.82,5.93-8.35v-8.35c5.05.17,4.06,2.83,4.31,6.46Z"/>
  <path class="cls-12" d="M91.08,51.41c4.44,2.47,16.06,6,1.41,5.31-3.21-.15-12.33-3.71-14.23-5.42-1.35-1.22-1.41-4.22-1.72-5.82,3.73,2.83,9.51,7.6,14.54,5.93Z"/>
  <path class="cls-12" d="M108.85,43.87c3.27-8.37-2.5-12.72-10.2-10.46-1.02.3-1.91.74-1.65-.85,5.46-1.44,13.45-5.48,14.57,3.47.55,4.4.03,5.07-2.72,7.84Z"/>
  <path class="cls-12" d="M102.93,41.71c6.48.68-8.31,6.23-11.62,5.84-.5-.06-4.99-2.35-5.08-2.62-.25-.71,1.69-.95,1.61-1.34-.09-.45-3.15-1.4-2.15-3.5,3.75,4.65,8.17,4.55,13.57,3.61,1.68-.29,2.94-1.96,3.12-1.99.15-.03.38-.02.54,0Z"/>
  <path class="cls-12" d="M122.86,51.41c-.37.33-.72.82-1.08,1.08-5.64,4.09-12.67,4.78-19.39,5.39,4.74-1.65,12.33-2.07,15.08-7l5.39.54Z"/>
  <path class="cls-12" d="M112.08,46.56c-.11.14.18,1.23-.54,1.86-3.11,2.69-12.63,3.23-16.69,2.45l17.24-4.31Z"/>
  <path class="cls-9" d="M102.93,41.71c-.16-.02-.39-.03-.54,0,2.29-2.24-2.4-7.34-.26-7.56,3.53-.37,4.24,6.46.79,7.56Z"/>
  <path class="cls-9" d="M101.31,39.01c-3.06-2-2.15-3.17-6.62-2.57-.8.11-2.31,2.68-2.01.68.74-4.9,8.59-2.46,8.62,1.89Z"/>
  <path class="cls-12" d="M83.54,58.41l-1.08,1.62c-.63-.3-2.46.35-4.31-.54v-3.23c.64.28,5.1,2.11,5.39,2.15Z"/>
  <path class="cls-9" d="M93.23,40.1c.16-.05.37.05.54,0l4.31,1.62c-.24,2.33-9.58-.21-4.85-1.62Z"/>
  <path class="cls-12" d="M93.23,40.1c1.67-2.64,7.4-2.02.54,0-.17.05-.37-.05-.54,0Z"/>
  <path class="cls-12" d="M78.69,40.63v1.08c-.08-.11-1.08.04-1.62-1.08.54,0,1.08,0,1.62,0Z"/>
  <path class="cls-3" d="M88.38,77.8l3.76,4.31c-.13-.79.21-4.11.01-4.31-.17-.17-2.56.13-3.24,0,4.02-.81,18.95-4.19,9.16,2.15-1.42.5-1.6.76-2.69,1.62-.54-.05-.79.08-1.08.54-.07.12.06.37,0,.54-3.21-.47-.36,9.92.12,10.93,1.51,3.22,6.13,3.31,6.34,3.62.75,1.08-2.37,1.34-2.15,3.98.22,2.71,2.66,6.25,4.85,7.86.18.13.31.43.54.54.05.03-.29.95.34,1.1,1.06.25,5.52-.19,6.66-.56,4.27,4.47-9.37,12.61-11.03,12.41-1.17-.14-2.13-6.09-3.35-6.52-.88-.31-8.5.94-11.15.52-2.33-.37-6.24-3.23-7.05-3.19-2.4.13,1.87,6.2.8,7.55-1.21,1.53-8.96-8.19-10.77-9.16.25-.09,3.21-1.47,4.31-2.15,7.29-4.53,2.84-3.76,5.1-7.56.24-.4,3.42-1.3,4.61-2.4,4.06-3.75,5.28-12.14-.55-14.82-.06-.03-.18-.51-.54-.54-.3-.03-.83-.06-1.08,0-1.73-1.26.06-2.99-.54-6.46-.11-.67.08-1.46,0-2.15,1.9.95,6.39,1.71,8.62,2.15ZM95.39,107.43c2.44-3.11-5.16-13.49-9.16-14-1.69,2.99,4.8,18.31,7.26,17.77,1.94-.42-.75-3.35-.26-3.76.22-.18,2.02.18,2.16,0Z"/>
  <path class="cls-11" d="M114.24,107.43c1.8-.41,1.57.48,2.15,1.62,1.04,2,1.29,2.98,2.69,5.39-.03.35.04.73,0,1.08-1.14,10.25,2.74,5.07,2.69,2.15,3.38.55,3.07.82,5.39-1.08,1.82-.42,2.35-1.18,3.23-2.69.08-.13-.07-.39,0-.54,2.76-1.67,1.67-4.05,5.93-1.62-.78.58-5.49,7.82-2.97,8.6.5.16,6.28-5.21,8.35-6.45.55,2.7,4.9,2.77,7,3.23.12,1.19.12,1.81-.86,2.64-4.46,3.76-35.32,5.95-42.23,5.98-15.82.07-33.91-1.34-48.48-7.54.28-.46.28-1.57.54-2.15,1.26.03,1.87.37,1.62-1.08.18,0,.37.03.54,0,1.6-.28,1.35-.72,2.15-1.62.17-.18.4-.33.54-.54,2.67.53,3.76-.28,5.93-1.08,1.81.97,9.56,10.68,10.77,9.16,1.07-1.35-3.2-7.42-.8-7.55.81-.04,4.72,2.82,7.05,3.19,2.65.42,10.27-.83,11.15-.52,1.22.43,2.18,6.38,3.35,6.52,1.66.2,15.3-7.95,11.03-12.41.91-.29,2.69-2.57,3.23-2.69Z"/>
  <path class="cls-1" d="M123.94,75.65c-.18,3.18,2.87,2.64,3.23,0,.29.07.76.37,1.08.54-1.72,3.79.86,1.49,1.62,1.62.17.03.37-.04.54,0-.54,2.05,1.13,2.2,2.69,1.08.95.66,2.91,3.38,3.23,4.31,1.1,3.18.1,11.08-3.07,12.28-1.09.41-2.78-.16-4.07.24-1.14.35-2.24,1.97-3.29,1.96-.47,0-8.23-3.45-8.63-3.77-2.06-1.67-1.47-2.56-1.96-3.17,3.78-3.52,3.94,0,7.54.54.04-2.01-2.37-.68-3.37-2.82-1.24-2.64,1.61-5.69-2-6.08,2.33,3.06-1.67,2.78-1.09,4.04.45.97,3.99.53-1.62,3.24-.08-.15-2-.32-2.01-2.85,0-2.2,1.34-5,3.09-6.31.6-.45,3.76.89,2.15-2.69.35,0,.73.04,1.08,0,.83-.1,3,2.06,2.69-2.15.54-.15,1.49.08,2.15,0ZM129.19,85.22c2.29-4.72-7.63-6.43-8.41-2.17-.71,3.92,7.15,4.76,8.41,2.17Z"/>
  <path class="cls-12" d="M92.69,70.8c-1.22,3.84-7.26,3.74-10.35,3.07-1.3-.28-13.52-7.09-14.61-8.01-2.65-2.24-7.31-12.11-3.58-13.91.69-.34,5.45,7.15,6.96,8.38,1.2.97,3.73,1.52,5.38,2.7,5.3,3.81,8.33,8.26,16.2,7.77Z"/>
  <path class="cls-1" d="M139.56,93.42c.17.02.38-.04.54,0v.54c6.67,2.59,11.04,7.52,8.62,15.08-.4.44-.79.37-1.08.54-5.2,1.74-10.99-.95-13.74-5.37-3.03-4.89,1.7-2.75,1.89-7.01.28.09.74-.06,1.08,0,3.23,6.59,1.91-1.21.54-3.77.23-.09,1.73-.05,2.15,0Z"/>
  <path class="cls-1" d="M111.55,92.34c1.58,1.69-1.96,3.95-1.07,4.85.29.3,5.75-.79,5.92,3.77.1,2.78-1.7,3.22-2.15,5.39-3.59,1.87-5.7,4.09-10.23,3.23-.22-.11-.36-.4-.54-.54-.22-4.9-3.59-2.08-2.65-7.77.29-1.78,3.47-5.85,4.8-6.77.68-.47,5.02-2.06,5.93-2.15Z"/>
  <path class="cls-1" d="M118.55,100.42c3.25-.87,1.75,1.84,2.18,2.12.87.57,7.65.86,8.05.58.29-.21-.25-3.56,2.16-2.7.15.35.45.74.54,1.08,1.12,4.31.75,7.89-1.08,11.85-.07.15.08.41,0,.54-2.3-.31-2.79,2.33-3.23,2.69-5.08,1.17-9.02-3.21-9.7-8.08-.31-2.28.19-5.94,1.08-8.08Z"/>
  <path class="cls-1" d="M110.47,81.03l-3.77,1.62c.58,3.98,3.85,1.08,0,4.84,5.53-.25,1.7.04,2.15,3.77-2.44.91-4.85,1.84-7.54,1.62-4.45-2.21-9.14-4.25-7-10.23.06-.17-.07-.42,0-.54.47,0,.74-.27,1.08-.54,1.09-.86,1.28-1.11,2.69-1.62,4.3-1.52,8.46-1.36,12.39,1.08Z"/>
  <path class="cls-13" d="M79.77,75.65c.08.69-.11,1.48,0,2.15.04,2.3-1.29,4-2.15,5.93-1.68-.29-.84.55-1.08,1.08-1.17,2.64-3.55,4.49-6.46,4.85-1.05-1.76,1.31-3.1-1.62-2.69-.09-.81.18-2.05,0-2.69,6.01-3.08-1.88-2.46-2.15-2.7-.97-.81,3.5-5.41.54-5.38.22-.94.36-2.21.54-3.23.97-.15,1.25.44,1.08-1.08.48-.09.99-.53,1.08-.54,8.82-.7,5.12,1.76,10.23,4.31Z"/>
  <path class="cls-1" d="M104.54,64.33c5.33.42,8.32,1.13,11.85,5.39.73.88,1.03,2.13,2.15,2.69-.15.62.18,2.51,0,2.69-1.07,1.07-3.88-2.19-4.3-1.61-.69.95,1.59,3.76-2.15,2.15-.37,1.62,1.25,1.22,2.15,1.61v1.08c-1.57-.39-4.14-1.29-4.85.54-4.01-1.91-4.4-3.28-7-6.46v-7.54c.35-.11.77-.49,1.08-.54s.75-.03,1.08,0Z"/>
  <path class="cls-6" d="M101.31,92.88c1.58.78,2.93.74,4.31,1.62-1.34.92-4.51,4.99-4.8,6.77-.94,5.69,2.43,2.87,2.65,7.77-2.19-1.61-4.63-5.15-4.85-7.86-.22-2.64,2.9-2.91,2.15-3.98-.22-.31-4.83-.4-6.34-3.62-.47-1-3.32-11.4-.12-10.93-2.13,5.98,2.56,8.03,7,10.23Z"/>
  <path class="cls-6" d="M135.79,97.19c-.19,4.27-4.92,2.13-1.89,7.01,2.75,4.43,8.54,7.12,13.74,5.37-5.16,3.12-7.99-.3-11.31,2.15-4.25-2.43-3.17-.05-5.93,1.62,1.83-3.96,2.19-7.54,1.08-11.85.56-3.24-.64-5.82,4.31-4.31Z"/>
  <path class="cls-6" d="M130.94,100.42c-2.41-.86-1.87,2.49-2.16,2.7-.4.29-7.18,0-8.05-.58-.43-.29,1.07-3-2.18-2.12,2.07-5.03,1.82-1.43,5.08-1.58,4.97-.22,5.57-2.49,7.31,1.58Z"/>
  <path class="cls-12" d="M101.31,64.33c0,.39.52.88.54,1.08.03.29.06.82,0,1.08-7.02,2.28-11.24-1.36-16.92-3.84-.76-.33-.77-1.51-.85-1.55,6.3,1.52,10.33,4.07,17.24,3.23Z"/>
  <path class="cls-6" d="M110.47,81.03c5.08,3.15-.41,3.1-.54,4.59-.09,1.1,3.78,1.4,2.17,4.74-.53,1.1-2.5.63-3.25.91-.45-3.73,3.38-4.02-2.15-3.77,3.85-3.76.57-.86,0-4.84l3.77-1.62Z"/>
  <path class="cls-6" d="M111.55,92.34c4.28-.45,1.45.51,3.46,2.73s5.23,1.43,1.39,5.89c-.17-4.56-5.63-3.48-5.92-3.77-.89-.89,2.65-3.15,1.07-4.85Z"/>
  <path class="cls-6" d="M114.78,89.65c5.61-2.71,2.07-2.28,1.62-3.24-.58-1.25,3.41-.98,1.09-4.04,3.61.39.76,3.44,2,6.08,1,2.13,3.41.81,3.37,2.82-3.59-.54-3.75-4.06-7.54-.54-.37-.47-.35-.72-.54-1.08Z"/>
  <path class="cls-6" d="M114.24,106.35c-.07.33.05.74,0,1.08-.54.12-2.32,2.4-3.23,2.69-1.14.37-5.6.81-6.66.56-.64-.15-.29-1.07-.34-1.1,4.53.86,6.65-1.37,10.23-3.23Z"/>
  <path class="cls-6" d="M114.24,78.34c.53.13,1.03.52,1.62.54v1.08c-3.18,1.47-4.14.03-6.46-1.08.71-1.83,3.28-.93,4.85-.54Z"/>
  <path class="cls-6" d="M117.47,108.5c.67,4.87,4.62,9.25,9.7,8.08.44-.36.93-3.01,3.23-2.69-.88,1.51-1.41,2.27-3.23,2.69-2.32,1.9-2,1.63-5.39,1.08-.02-1.13-1.04-1.34-1.62-2.15-.35-.49-1.02-.98-1.08-1.08-1.4-2.41-1.65-3.38-2.69-5.39l1.08-.54Z"/>
  <path class="cls-5" d="M88.92,77.8c.67.13,3.07-.17,3.24,0,.2.2-.14,3.52-.01,4.31l-3.76-4.31c.17.03.37-.03.54,0Z"/>
  <path class="cls-6" d="M102.39,72.41c-.23-.28-1.92-.09-2.19-.9-.58-1.74,1.29-3.45,1.65-5.02.06-.25.03-.79,0-1.08h.54v7Z"/>
  <path class="cls-6" d="M137.4,93.42c1.37,2.56,2.7,10.36-.54,3.77-1.14-2.32-1.93-2.74.54-3.77Z"/>
  <path class="cls-10" d="M118.01,77.8c1.61,3.58-1.55,2.24-2.15,2.69v-2.15c.11.02,1.42-.54,2.15-.54Z"/>
  <path class="cls-5" d="M66.84,71.88h-1.08c-.18-.18-.36-.36-.54-.54-.16-.16-.49-.37-.54-.54v-2.15h.54c.3.56,2.36,1.21,1.62,3.23Z"/>
  <path class="cls-6" d="M66.84,71.88c.18,0,.36,0,.54,0-.04.35.06.74,0,1.08-.69.1-1.45-.07-2.15,0,0-.36,0-.72,0-1.08h1.62Z"/>
  <path class="cls-12" d="M69.53,71.34c-.09,0-.6.44-1.08.54-.17.03-.36-.03-.54,0-.43-1.22.91-1.71,1.62-.54Z"/>
  <path class="cls-2" d="M68.45,71.88c.17,1.52-.1.93-1.08,1.08-.18,1.02-.32,2.29-.54,3.23-.26,1.11-2.53,7.17-2.15,7.54.94.91,3.07-1.98,3.77.54.18.65-.09,1.88,0,2.69.16,1.49-2.32,3.18,1.62,2.69,2.91-.36,5.29-2.21,6.46-4.85,1.71.27.82-.51,1.08-1.08.86-1.92,2.19-3.62,2.15-5.93.6,3.47-1.19,5.21.54,6.46-.14.04-.34.95-.54,1.08-1.46.95-1.52,1.56-1.62,1.62-3.09,1.93-10.53,5.16-12.04,7.68-.83,1.38.29,2.97.19,3.08-.14.17-3.63.17-4.32.8-1.21,1.11.44,3.3-1.61,2.97-.41-.33-.34-1.26-1.62-1.08-.82.12-1.92,2.09-3.2,2.45-3.24.9-3.93-.84-5.16-.83s-1.61,1.5-1.87,1.61c-.12.05-.29.4-.54.54-.22.12-.89-.12-1.08,0v-.54c2.09-4.16-2.44-1.38-4.31-1.08-.5.08-1.09-.04-1.62,0v-.54c.3-.14.44-.49.54-.54.42-.22,2.45-.19,2.94-.55,1.35-1-9.09-5.53-11.02-5.92-1.78-.36-2.03-1.07-2.15-1.08l.54-1.62c1.25.82,8.23,3.11,9.16,2.16.15-.15-.03-3.53,0-4.31h1.08c1.58,9.93,7.04,10.69,15.8,8.01,1.04-.32.82-2.01.92-2.07.64-.33,2.27.81,3.34.43,5.36-1.88,5.05-18.04-2.29-8.54-.37-.27-.39-.7-.54-1.08,1.98.08,2.29-5.48-1.08-4.85.05-.17-.05-.38,0-.54.34-1.09.79-2.13,1.08-3.23.1,0-.26-1.99,1.09-.82.81.7.93,3.88,1.87,4.04,2.56.43,2.97-7.2,2.96-8.61.7-.07,1.46.1,2.15,0,.06-.34-.04-.73,0-1.08.18,0,.37.03.54,0s.37.03.54,0Z"/>
  <path class="cls-7" d="M185.34,112.29c.31.64-5.9,4.12-6.61,4.42-3.64,1.54-17.52,4.85-20.06.97-1.21-1.84,1.63-.78,1.9-1.09,1.48-1.69-3.86-5.7-3.24-6.46.86-1.05,9.59-.95,10.23-1.63,1.49-1.58-8.02-1.49-8.61-2.15-.05-1.65,1.78-1.33,2.96-2.69,1.43-1.64-2.03-2.75,3.21-2.67,3.15.05,7.54,1.59,10.34,3.13,1.08.6,9.59,7.6,9.87,8.18Z"/>
  <path class="cls-4" d="M148.17,114.43c.82.27,3.39,1.43,3.23,2.69-1.49-.33-2.56.03-2.69,0-2.1-.46-6.45-.53-7-3.23.34-.2.72-.38,1.08-.54,1.81.77,3.4.42,5.39,1.08Z"/>
  <path class="cls-8" d="M158.41,82.65c.17,1.17.27,1.6.54,2.69.45,1.82-.3,3.61,3.56,3.75,2.79.1,6.63-4.01,3.98,1.64-.16-.05-.37.05-.54,0-2.21-.69-4.2-.62-6.46-.54.02-.16.02-.38,0-.54-.34-2.15-2-2.02-3.23-3.23,1.16-1.11.06-4.08,2.15-3.77Z"/>
  <path class="cls-5" d="M154.1,97.19c-.95,1.8-.77,4.15-3.77,4.31-.14-2.36-4.16-3.54,3.77-4.31Z"/>
  <path class="cls-5" d="M159.49,89.65c.02.16.02.38,0,.54-.16,1.32-3.2,5.46-4.85,5.93,1.06-1.98,2-6.51,4.85-6.46Z"/>
  <path class="cls-13" d="M148.17,114.43c-1.99-.66-3.57-.31-5.39-1.08.9-.41,3.32-4.43,5.39,1.08Z"/>
  <path class="cls-13" d="M165.95,91.81c.57.02.85.47,1.08.54-1.93,1.19-3.53,1.76-5.39,3.23h-.54c.76-2.24,2.41-3.88,4.85-3.77Z"/>
  <path class="cls-7" d="M161.1,95.58h.54c-.22.18-.89,2.91-2.42,2.7l1.88-2.7Z"/>
  <path class="cls-10" d="M166.49,90.73c.19.06,2.29,2.11,3.09,2.61.74.46,2.21-1.77,1.76,1.16-1.93-.5-2.86-1.72-4.31-2.15-.23-.07-.51-.51-1.08-.54v-1.08c.16.05.38-.05.54,0Z"/>
  <rect class="cls-7" x="155.18" y="100.43" width="1.07" height=".53"/>
  <path class="cls-4" d="M153.56,117.66l-.54-.54c.38.21.34.12.54.54Z"/>
  <path class="cls-13" d="M153.56,51.95c3.4.59-1.84,3.37-2.38,4.35-.93,1.7-1.4,3.93-1.39,5.88,0,1.04.12,2.04,1.08,2.69-.12.65.08,1.47,0,2.15-.11-.08-.38.07-.54,0-.33-.16-.52-.49-1.08-.54l-3.77-7.54c.14-.41-.15-1.28,0-1.62.59-1.35,1.45-1.78,2.15-2.69.15-.2.37-.36.54-.54-.11,1.3.05,1.49,1.08.54.5-.46.36-.67.54-1.08.16-.37.38-.71.54-1.08,1.02-.47,2.2-.33,3.23-.54Z"/>
  <path class="cls-8" d="M145.48,57.33c-.15.34.14,1.2,0,1.62-1.04,3.15-2.55,4.19,0,6.46-1.29.09-2.5-.42-3.77-.54.07-.32-.1-.87,0-1.08,1.06-2.13,2.14-4.12,2.69-6.46.17-.03.36.02.54,0h.54Z"/>
  <path class="cls-7" d="M147.1,45.48h.54c-.25.11-.35,1.22-1.34,1.08-2.4-.32.73-1,.8-1.08Z"/>
  <path class="cls-8" d="M135.25,62.18c.22.54.91,3.67,1.09,3.77.29.16,2.08-1.36,2.68-1.62v.54c.04.18-.07.48,0,.54-1.6-.33-.87.71-1.08,1.08-.19.35-.34.73-.54,1.08-.27.45-1.18,1.83-1.61,2.15,1.19-3.02-1.32-5.78-1.62-7.54.32-.07.89.11,1.08,0Z"/>
  <path class="cls-13" d="M144.94,57.33c-.18.02-.37-.03-.54,0-.18.03-.39-.05-.54,0h1.08Z"/>
  <path class="cls-5" d="M138.48,57.33c-1.45,1.27-.04-.44,0-.54v.54Z"/>
  <path class="cls-10" d="M51.22,79.96c0,.18.01.36,0,.54-.28,3.78-.21,1.32-2.15,2.15-.06.02-.49-.75-1.07-.54-.12.04.1.97,0,1.08-1.04,1.03-.96.42-1.08,2.15-.01.17-.02.37,0,.54-1.92,1.19-2.06-.25-2.69-.54-1.92-6.55,1.94-3.96,5.02-4.29.53-.06.31-1.08.36-1.1.07-.03,1.15.52,1.62,0Z"/>
  <path class="cls-10" d="M42.6,84.8c-1.24,1.43-.69,2.83-.54,4.31.04.35-.05.73,0,1.08h-1.08c.18-6.03-2.64-5.28-4.5-7.49-5.23-6.22,5.69,1.84,6.12,2.11Z"/>
  <path class="cls-2" d="M44.22,85.34c.63.29.77,1.72,2.69.54.06.56.25,1.13.54,1.62.12.21.37.37.54.54-.2,2.13,2.54,2.48,0,2.69-2.36-2.45-1.97-4.5-5.93-1.62-.15-1.48-.7-2.87.54-4.31.52.33,1.16.33,1.62.54Z"/>
  <path class="cls-1" d="M139.56,66.49c1.77,0,3.63-.13,5.39,0,1.46.98,4.54,1.69,4.33,4.03-.15,1.62-1.37.51-1.64.83-.49.6,1.51.69,1.58,1.41.53,5.81-10.79,7.32,4.88,8.28.21.47-.16,1.98,0,2.69.08.35-.64,1.4-.55,1.83.11.55,1.06.26,1.09.33.96,1.69,4.13,3.02.13,5.25-.75.42-7.56,2.08-8.38,1.77-.67-.25-.63-1.67-1.45-2.45-.46-.44-2.05-.15-2.15-.27-.55-.58,1.67-2.18,1.07-2.69-.21-.18-2,.18-2.16,0-.33-.39.64-2.4.31-3.25-2.72-6.84-4.96-2.47-5.68-3.21-1.08-1.12,3.02-3.43,2.15-4.83-.35-.57-11.47,1.96.54-6.48l-1.61-2.15c.2-.34.34-.73.54-1.08h1.62Z"/>
  <path class="cls-4" d="M119.09,67.57c-.1.5.09,1.12,0,1.62-.21,1.12-.28,2.12-.54,3.23-1.13-.56-1.43-1.82-2.15-2.69l2.69-2.15Z"/>
  <path class="cls-13" d="M127.17,75.65c-.37,2.64-3.41,3.18-3.23,0,.18-.02.36.01.54,0,.14,0,.42-.54.54-.54,1.34.04,1.44.37,2.15.54Z"/>
  <path class="cls-10" d="M119.09,77.8c-.33-1.2,1.99-1.96,2.69-2.15.31,4.22-1.86,2.05-2.69,2.15Z"/>
  <path class="cls-10" d="M133.09,78.88c-1.56,1.12-3.23.97-2.69-1.08,1.33.32,1.48.23,2.69,1.08Z"/>
  <path class="cls-10" d="M128.24,76.19c.74.38,1.88.28,1.62,1.62-.75-.12-3.34,2.18-1.62-1.62Z"/>
  <path class="cls-4" d="M114.24,77.26c1.73.77,1.52,1.06,1.62,1.08v.54c-.58-.02-1.09-.41-1.62-.54v-1.08Z"/>
  <path class="cls-1" d="M124.47,75.65l.54-.54c-.12,0-.4.53-.54.54Z"/>
  <path class="cls-4" d="M140.09,93.96v-.54c.63.16-.03.53,0,.54Z"/>
  <path class="cls-10" d="M33.44,23.4l.8,3.24-1.34-3.24c.17.03.36-.01.54,0Z"/>
  <path class="cls-6" d="M30.75,30.94c1.35,1.2-2.16,1.5-2.15.26,0-.45,2.07-.33,2.15-.26Z"/>
  <path class="cls-6" d="M38.83,34.17l.54-1.08c-.21.46-.24.6-.54,1.08Z"/>
  <path class="cls-7" d="M54.99,57.87c0,.06.84.16.53,1.08-.62,0-.8-.67-1.07-1.08h.54Z"/>
  <path class="cls-13" d="M53.91,60.03c.1.19,1.99,1.01.81,1.62-.09.05-.93-1.2-1.35-1.62h.54Z"/>
  <path class="cls-6" d="M115.32,59.49c-.19.24-.42,1.04-.54,1.08-7.17,2.38.6,4.13,1.08,1.62l3.77,1.62c-.32,1.22-.3,2.55-.54,3.77l-2.69,2.15c-3.53-4.26-6.52-4.96-11.85-5.39,3.49-1.87,7.52,1.94,6.46-3.77,1.78-.55,2.63-.68,4.31-1.08Z"/>
  <path class="cls-4" d="M121.78,59.49c-.06.16.06.38,0,.54-.07.2-1.78,2.33-2.15,3.77l-3.77-1.62c.02-.12.04-.43,0-.54l5.93-2.15Z"/>
  <path class="cls-6" d="M127.71,58.95c-1.52.09-4.17,1.07-5.93,1.08.06-.16-.06-.38,0-.54.14-.37.4-.71.54-1.08l5.39.54Z"/>
  <path class="cls-2" d="M46.91,109.58c.12,1.14.89,1.89,1.08,2.69.11.46-.07,1.11,0,1.62-1.77-.47-5.41,1.02-5.39-3.77,1.38-.16,2.52-1.96,4.31-.54Z"/>
  <path class="cls-8" d="M52.83,112.81l1.62.54c1.47.38,1.68,1.77,4.85,1.62.26,1.44-.35,1.11-1.62,1.08-2.78-.06-6.92-1.41-9.7-2.15-.07-.5.11-1.16,0-1.62h.54c1.38.68,2.98.33,4.31.54Z"/>
  <path class="cls-8" d="M47.99,104.19c0,.36,0,.72,0,1.08-1.3.97-1.22,2.9-1.08,4.31-1.79-1.42-2.93.38-4.31.54-.18.02-.36-.01-.54,0l3.77-4.85c.32-.18.68-.82,1.08-1.08.19-.12.85.12,1.08,0Z"/>
  <path class="cls-10" d="M59.3,78.34c-.29,1.11-.74,2.14-1.08,3.23-6.85-1.01-7.11-.06-.54,1.62-.06.33.04.73,0,1.08-.07,0,.26,1.15-.28,1.09-1.09-.12-4.03-1.58-5.64-1.08-.27.08,1.17,2.4-2.7,1.61-.71-3.34,2.07-2.05,3.21-3.56.36-.48-.57-1.75-.51-1.82,3.31-4.43,2.47-2.18,7.54-2.15Z"/>
  <path class="cls-8" d="M49.06,85.88c-.18-.04-.39.05-.54,0-.42-.14-.9-.75-1.62-.54.12-1.73.03-1.12,1.08-2.15l1.08-.54c1.95-.84,1.88,1.62,2.15-2.15h.54c-.06.08.88,1.34.51,1.82-1.14,1.51-3.92.23-3.21,3.56Z"/>
  <path class="cls-7" d="M64.68,70.8c-.12-.42.08-1.12,0-1.62v1.62Z"/>
  <path class="cls-2" d="M65.76,71.88h-.54v-.54c.18.18.36.36.54.54Z"/>
  <path class="cls-12" d="M122.32,57.87c-.06.16.06.38,0,.54-.14.37-.4.71-.54,1.08l-5.93,2.15c-.11-.3-.84-.74-1.08-1.08.12-.04.35-.84.54-1.08,2.32-.55,4.71-.9,7-1.62Z"/>
  <path class="cls-12" d="M128.24,41.71c1.55-.35,1.73,1.37,0,1.08.06-.34-.03-.73,0-1.08Z"/>
  <path class="cls-3" d="M40.44,53.57c1.12,1.1-.71,1.07-1.61.53-.25-.87,1.55-.59,1.61-.53Z"/>
  <path class="cls-13" d="M157.87,74.57c.16.1,1.02,1.51,2.69,2.69,1.21.86,2.6,1.81,3.77,2.69.91.68,1.79,1.45,2.69,2.15.64.5-.81,1.96,2.15,2.15,1.52,4.15,7.01,4.87,10.77,4.85,1.49,0,3.71.59,3.23-1.08.36.15,1.34-.16,1.62,0,2.42,1.36,3.05,2.79,0,3.77-5.25-.92-10.56.1-15.62-3.77-3.46-3.96-1.13-.63-4.02-1.04-2.12-.31-4.1-1.34-6.22-1.65-.27-1.09-.37-1.53-.54-2.69-.14-.96.81-2.57.57-3.39-.07-.25-3.38-2.61-3.81-3.61-.14-.33.09-1.16,0-1.62.36.09.41-.89,2.69.54Z"/>
  <path class="cls-13" d="M196.65,77.26c.56.45,1.56,1,1.62,1.08.61.77.42.78.54,1.62.06.4.07,1.25,0,1.62-.75,3.75-7.97,8.78-10.77,7-1.81-1.15,2.01-2.05,2.15-2.15,5.87-4.01.07-4.21,4.85-9.16.28.16,1.41-.16,1.62,0Z"/>
  <path class="cls-10" d="M193.42,76.19c.79.26,1.1.78,1.62,1.08-4.78,4.95,1.02,5.14-4.85,9.16.65-3.15-2.89-.5-5.39-.54-1.88-.03-6.79-.04-7-2.15.9-.02,1.8.03,2.69,0,5.62-.19,5.73,2.01,9.7-3.23.45-.6,2.44-.91,1.62-3.77.46-.19.86-.76,1.62-.54Z"/>
  <path class="cls-10" d="M184.8,91.81c3.82.67,1.37,3.07-.52,3.55-5.84,1.46-11.64-3.36-15.1-7.32,5.06,3.87,10.37,2.85,15.62,3.77Z"/>
  <path class="cls-8" d="M177.8,83.73c.21,2.11,5.13,2.13,7,2.15v2.15c-.28-.16-1.26.15-1.62,0-.65-.28-1.15-.35-1.62-.54-2.21-.87-6.48-1.37-7.54-3.77,1.02.03,2.72.02,3.77,0Z"/>
  <path class="cls-10" d="M198.81,81.57c.07-.37.06-1.21,0-1.62v1.62Z"/>
  <polygon class="cls-3" points="171.07 23.4 171.34 23.67 171.07 23.94 171.07 23.4"/>
  <polygon class="cls-3" points="7.32 60.56 7.59 60.83 7.32 61.1 7.32 60.56"/>
  <path class="cls-13" d="M31.29,93.96c.12,0,.38.72,2.15,1.08,1.18,3.66,5.65,4.43,8.08,6.46-.09.05-.24.39-.54.54-.26.12-1.12-.3-1.08.28-.16,1.72.87.28,1.08.26.52-.04,1.11.08,1.62,0-.6,3.08,2.2.65,4.31,1.08v.54c-.39.26-.76.9-1.08,1.08-2.1,1.18-2,2.65-5.11,3.24-7.02,1.33-5.55-.99-7.91-2.65-.33-.23-1.51.81-2.38.03-2.02-1.82-4.68-12.14.85-11.93Z"/>
  <path class="cls-13" d="M192.34,61.1c.24.07,3.22,2.72,3.77,3.23.12.11-.28,1.46,1.08,1.08,1.12,1.39.3,5.94-1.35,5.91-2.27-.04,1.33-3.75-5.12,2.17-1.74.04-4.87-.82-3.23-2.69.21-.14.35-.39.54-.54,9.4-7.48-4.15-3.3-1.08-9.16.69-.13,4.85-.16,5.39,0Z"/>
  <path class="cls-6" d="M193.42,76.19c-.76-.22-1.16.35-1.62.54-2.27.95-6.32,1.9-7.54,4.31-1.58.42-4.39.65-3.77,2.69-.9.03-1.8-.02-2.69,0-1.05.02-2.75.03-3.77,0-1.52-.05-4.35.57-4.85.54-2.97-.19-1.51-1.66-2.15-2.15.06-3.45,2.78.27,6.46,0,.59-.04,2.05-.37,2.69-.54,1.29-.34,1.49-.8,2.15-1.08s1.99.68,1.62-1.08c.17-.03.37.04.54,0,1.83-.42,1.16-.46,2.15-1.08.9-.55,2.15-.3,2.15-2.15.17.05.37-.04.54,0,.34.08.81.52,1.08.54.35.02.73.02,1.08,0,2.24-.12,4.25-.44,6.2-1.6.53.28-.33,1.05-.28,1.06Z"/>
  <path class="cls-10" d="M187.5,70.8c-1.64,1.88,1.49,2.73,3.23,2.69-1.11,1.02-2.88,1.95-3.23,3.23-.35.02-.73.02-1.08,0-.29-.75.74-2.97.54-3.23-.12-.15-2.98.02-3.77,0-.27-1.34.86-1.22,1.62-1.62.83-.44,2.57-1,2.69-1.08Z"/>
  <rect class="cls-1" x="58.77" y="9.93" width=".53" height="1.07"/>
  <path class="cls-13" d="M47.99,72.41h.54c-.09.7-.5.71-.54,0Z"/>
  <path class="cls-13" d="M171.34,53.02c6.01-1.65,5.76-2.75,11.85,1.08.73,2.77.12,6.05-1.08,8.62-.07.14-1.5,2.59-1.62,2.69-.16.15-.83.47-1.08.54v-1.08c0-.84.12-1.93,0-2.69-1.01-6.56-5.01-2.81-5.38-3.23-.15-.17.29-4.87-2.16-3.23,0-.3-1.05-1.78-.54-2.69Z"/>
  <path class="cls-10" d="M186.96,61.1c-3.08,5.85,10.48,1.68,1.08,9.16-3.14-1.02-3.78-3.28-6.46-4.31.23-.36,1.5-2.59,1.62-2.69.63-.57,3.02-2.01,3.77-2.15Z"/>
  <path class="cls-5" d="M186.96,57.87c-.04.34.09.88,0,1.08-3.04,6.68-2.2-2.04-2.69-4.31,1.24,1.04,2.15.66,2.69,3.23Z"/>
  <path class="cls-8" d="M183.19,63.26c-.12.1-1.38,2.33-1.62,2.69-.38-.15-.81-.16-1.08-.54.11-.11,1.55-2.55,1.62-2.69l1.08.54Z"/>
  <path class="cls-2" d="M171.34,53.02c-.51.91.54,2.39.54,2.69,0,.94-.93,3.85-.53,4.31.22.25,1.76-.74,2.15-.54.11.06-.1,1.58,0,1.62.36.13,4.42-.29,5.92,1.08.12.77,0,1.85,0,2.69-1.71-.35-1.54,1.51,0,1.08.25-.07.92-.39,1.08-.54.27.38.69.39,1.08.54,2.69,1.03,3.33,3.29,6.46,4.31-.19.15-.33.4-.54.54-.12.08-1.86.64-2.69,1.08.37-1.97-1.74-.57-2.72-1.34-1.4-1.1-1.15-4.18-5.36-4.05.69-2.6-5.12-3.4-6.46-3.23.92-6.97-4.49-1.13-6.46,0-.43.25-2.04.14-2.69.54-.03-.24-.47-.81-.54-1.62,1.58-1.99,2.59-.93,2.69-1.08.25-.37-.17-2.89,0-3.77,2.32.94,2.32-2.06,4.03-1.64.53.13,1.2,3.75,2.43.02.2-.62-.14-1.93,0-2.69.5-.08,1.19.12,1.62,0Z"/>
  <path class="cls-13" d="M165.95,49.25c.56.03,1.12.29,1.62.54,0,1.01,1.3,2.52,2.15,2.69v.54c-.14.76.2,2.07,0,2.69-4.68-3.55-5.4-3.83-6.46,1.62-.17.88.24,3.4,0,3.77-.1.15-1.11-.91-2.69,1.08-.04-.52-1-2.05-1.08-3.23-.11-1.68.02-3.24.54-4.85.87-2.69,3.01-4.98,5.93-4.85Z"/>
  <path class="cls-10" d="M166.49,48.71l-.54.54c-2.91-.13-5.05,2.16-5.93,4.85-1.33,1.05-3.76.43-3.97.5-.53.17-.29,1.09-.34,1.12-1.14.53-.68-.72-2.69,1.08-.54.48-.29-.43-1.08,1.08-.89,1.7-.19,4.49-2.15,4.31-.01-1.95.45-4.18,1.39-5.88.54-.98,5.79-3.76,2.38-4.35.99-.2,2.32-.6,3.23-1.08.85.17,2.23,2.36,2.69,2.15.29-.13.62-4.05,3.78-4.85,1.5-.38,2.21.31,3.23.54Z"/>
  <path class="cls-2" d="M120.89,172.98c0,.17,1.8.39.6,3.38-5.51,13.68-40.46,13.61-43.99-2.82.91-4.41-2.09-14.48,1.54-17.01,3.33-2.32,28.67.02,33.48,1.38,9.01,2.55,8.35,6.92,8.37,15.08ZM82.19,161.83v.54l.27-.27-.27-.27ZM82.73,163.45v.54l.27-.27-.27-.27Z"/>
  <path class="cls-13" d="M108.85,127.9c6.44-.08,12.98-1.34,19.39,0-2.27.37-4.73.84-7,1.08-11.6,1.22-27.64,2.19-38.91-.71-.92-.24-1.73-.15-1.49-1.45,9.4.86,18.56,1.19,28.01,1.08Z"/>
  <path class="cls-6" d="M64.14,123.05c.96.63-2.57.7-1.61,0,.07-.05,1.51-.06,1.61,0Z"/>
  <path class="cls-10" d="M138.48,125.74c-3.64.91-5.89,1.51-9.7,2.15.8-2.83,7.32-1.63,9.7-2.15Z"/>
  <path class="cls-4" d="M111.01,60.56c1.06,5.71-2.97,1.9-6.46,3.77-.32-.03-.76-.05-1.08,0l-.54-.54c2.21-.46,5.97-2.58,8.08-3.23Z"/>
  <path class="cls-4" d="M102.39,64.33v1.08h-.54c-.02-.2-.55-.69-.54-1.08.35-.04.73.06,1.08,0Z"/>
  <path class="cls-6" d="M103.47,64.33c-.31.05-.73.43-1.08.54v-.54c.23-.04.44-.52.54-.54l.54.54Z"/>
  <path class="cls-4" d="M92.15,30.4c-1.81-3.36,11.52-4.03,10.77-1.08-3.25.3-7.62.42-10.77,1.08Z"/>
  <path class="cls-10" d="M81.38,84.26l.54.54c5.83,2.68,4.61,11.07.55,14.82-1.19,1.1-4.37,2-4.61,2.4-2.25,3.8,2.19,3.03-5.1,7.56-2.78-.16-6.11.64-8.62-1.08-1.78-1.22-2-5.56-3.77-7,2.04.33.4-1.86,1.61-2.97.69-.64,4.18-.64,4.32-.8.1-.12-1.02-1.71-.19-3.08,1.51-2.52,8.96-5.75,12.04-7.68,2.7,4.43-6.56,6.21-9.7,7.01,1.3,4.35,10.68.8,9.4,4.29-1.13,3.09-10.02.02-11,.55-.1.06.02,1.5-.76,2.21-1.56,1.43-3.84.5-1.89,3.93,1.98,3.47,9.25,4.33,11.57.91,1.64-2.42-.02-4.54.22-4.89.32-.46,7.27-.51,8.49-6.33.94-4.49.43-8.66-4.72-9.3.2-.13.4-1.04.54-1.08.25-.06.78-.03,1.08,0Z"/>
  <path class="cls-7" d="M95.39,107.43c-.14.18-1.94-.18-2.16,0-.49.42,2.2,3.34.26,3.76-2.46.54-8.95-14.78-7.26-17.77,4,.51,11.59,10.9,9.16,14Z"/>
  <path class="cls-8" d="M72.76,109.58c-1.1.68-4.06,2.06-4.31,2.15-2.17.8-3.25,1.61-5.93,1.08.24-.35,1.47-3.58,1.62-4.31,2.51,1.72,5.84.92,8.62,1.08Z"/>
  <path class="cls-6" d="M95.39,81.57c-.34.26-.61.54-1.08.54.29-.46.53-.59,1.08-.54Z"/>
  <path class="cls-2" d="M81.92,84.8l-.54-.54c.36.03.48.51.54.54Z"/>
  <path class="cls-13" d="M60.37,101.5c1.77,1.44,1.99,5.78,3.77,7-.15.73-1.37,3.96-1.62,4.31-.14.2-.37.35-.54.54l-2.15,1.62c-.17.03-.36,0-.54,0-3.17.16-3.38-1.23-4.85-1.62-.05-.01.08-1.04,0-1.07-.8-.3-1.53.55-1.61.54-1.33-.21-2.93.14-4.31-.54-.6-2.33-.55-4.62-.54-7,0-.36,0-.72,0-1.08.25-.14.42-.48.54-.54,3.86,2.97,11.95,3.22,10.23-3.23,1.27-.18,1.21.75,1.62,1.08Z"/>
  <path class="cls-3" d="M120.16,115.51c.57.81,1.6,1.03,1.62,2.15.05,2.91-3.83,8.09-2.69-2.15h1.08Z"/>
  <path class="cls-8" d="M59.84,114.97l2.15-1.62c-.81.89-.55,1.34-2.15,1.62Z"/>
  <path class="cls-4" d="M120.16,115.51h-1.08c.04-.35-.03-.72,0-1.08.05.09.73.58,1.08,1.08Z"/>
  <path class="cls-13" d="M129.19,85.22c-1.26,2.6-9.12,1.76-8.41-2.17.77-4.26,10.69-2.55,8.41,2.17Z"/>
  <path class="cls-10" d="M66.84,76.19c2.96-.03-1.5,4.57-.54,5.38.28.23,8.16-.38,2.15,2.7-.7-2.52-2.83.36-3.77-.54-.38-.36,1.89-6.43,2.15-7.54Z"/>
  <path class="cls-10" d="M68.45,86.96c2.93-.4.57.94,1.62,2.69-3.93.49-1.46-1.2-1.62-2.69Z"/>
  <path class="cls-10" d="M77.61,83.73c-.26.57.64,1.35-1.08,1.08.24-.53-.6-1.37,1.08-1.08Z"/>
  <path class="cls-2" d="M156.79,50.87c-.91.47-2.25.88-3.23,1.08s-2.21.06-3.23.54h-.54c1.05-.63.48-.58,2.15-1.08.4-.12.95-.52,1.08-.54.86-.1,3-.15,3.77,0Z"/>
  <path class="cls-8" d="M150.33,52.48c-.16.37-.38.71-.54,1.08l-.54,1.08c-1.03.95-1.19.76-1.08-.54.6-.63.65-1.04,1.62-1.62h.54Z"/>
  <path class="cls-10" d="M153.02,50.87c-.13.01-.68.42-1.08.54l1.08-.54Z"/>
  <path class="cls-2" d="M149.25,66.49c-.44-.04-.96.04-1.08.54-1.6-.59-1.82-.44-3.23-.54-1.76-.13-3.62,0-5.39,0,1.27-1.74-.26-.82-.54-1.08-.07-.06.04-.36,0-.54.89.06,1.81-.08,2.69,0,1.27.11,2.47.62,3.77.54-2.55-2.27-1.03-3.31,0-6.46l3.77,7.54Z"/>
  <path class="cls-8" d="M155.18,62.72c.36,2.78-.55-.2-1.07.54-.27.38,1.08,5.69-.54,7-1.38-.88-1.27-2.2-2.69-3.23.08-.68-.12-1.51,0-2.15.83-4.38.84-4.28,4.31-2.15Z"/>
  <path class="cls-2" d="M153.56,57.87c.33.77.88,1.62,1.08,2.15.17.47.46,2.1.54,2.69-3.47-2.13-3.47-2.23-4.31,2.15-.95-.65-1.07-1.65-1.08-2.69,1.96.18,1.27-2.61,2.15-4.31.54,0,1.08,0,1.62,0Z"/>
  <path class="cls-2" d="M155.72,55.72c1.42,2.75.17,2.16-2.15,2.15-.16-.37-.37-.71-.54-1.08,2.01-1.79,1.55-.54,2.69-1.08Z"/>
  <path class="cls-10" d="M153.56,70.26v.54c-.79-.58-2.42-1.12-3.23-2.15-.03-.35.02-.72,0-1.08v-.54c.15.07.43-.08.54,0,1.42,1.03,1.31,2.35,2.69,3.23Z"/>
  <path class="cls-8" d="M149.25,66.49c.56.05.74.38,1.08.54v.54c-.98.32-1.5-.3-2.15-.54.11-.5.64-.58,1.08-.54Z"/>
  <path class="cls-2" d="M149.25,54.64l.54-1.08c-.18.41-.04.62-.54,1.08Z"/>
  <path class="cls-4" d="M141.71,63.8c-.1.21.07.76,0,1.08-.88-.08-1.8.06-2.69,0v-.54c.82-.34,1.82-.42,2.69-.54Z"/>
  <path class="cls-13" d="M79.77,85.34c5.15.64,5.66,4.8,4.72,9.3-1.22,5.81-8.18,5.87-8.49,6.33-.24.35,1.42,2.47-.22,4.89-2.32,3.42-9.59,2.56-11.57-.91-1.96-3.43.32-2.5,1.89-3.93.77-.71.65-2.16.76-2.21.98-.52,9.87,2.54,11-.55,1.28-3.49-8.1.06-9.4-4.29,3.14-.8,12.39-2.58,9.7-7.01.1-.06.16-.67,1.62-1.62Z"/>
  <path class="cls-13" d="M59.84,88.04c7.35-9.51,7.65,6.65,2.29,8.54-1.07.38-2.71-.77-3.34-.43-.1.05.12,1.75-.92,2.07-8.77,2.68-14.22,1.91-15.8-8.01-.05-.34.04-.73,0-1.08,3.96-2.89,3.56-.83,5.93,1.62,1.44,1.5.91,3.87,6.05,3.13,4.79-.69,4.57-4.24,5.8-5.83Z"/>
  <path class="cls-6" d="M49.06,85.88c3.87.79,2.43-1.53,2.7-1.61,1.61-.5,4.55.96,5.64,1.08.54.06.21-1.09.28-1.09.19,0,.44-.05.54,0l.54,1.08c.04.07.34,1.12.54,1.62.15.38.17.8.54,1.08-1.23,1.59-1.01,5.14-5.8,5.83-5.15.74-4.61-1.64-6.05-3.13,2.54-.21-.2-.57,0-2.69,0-.06.37-.31.54-1.08.07-.33-.05-.74,0-1.08.15.05.36-.04.54,0ZM57.64,88.08c-.97-1.25-9.4-1.43-7.49,3.18l2.15-1.61c-1.21,6,2.47.27,2.75.08.51-.35,4.26.48,2.6-1.66Z"/>
  <path class="cls-10" d="M58.76,100.42c1.71,6.46-6.38,6.2-10.23,3.23.27-.12.6-1.6,1.87-1.61s1.92,1.73,5.16.83c1.28-.36,2.38-2.33,3.2-2.45Z"/>
  <path class="cls-10" d="M33.44,95.04c1.93.39,12.36,4.91,11.02,5.92-.48.36-2.52.32-2.94.55-2.43-2.03-6.9-2.8-8.08-6.46Z"/>
  <path class="cls-13" d="M58.22,82.11c3.36-.64,3.06,4.93,1.08,4.85-.2-.5-.5-1.54-.54-1.62-.19-.34.39-.62-.54-1.08-.1-.05-.35,0-.54,0,.04-.35-.06-.74,0-1.08.09-.48.47-.82.54-1.08Z"/>
  <path class="cls-10" d="M42.6,102.58c1.87-.3,6.4-3.09,4.31,1.08-2.11-.43-4.91,2.01-4.31-1.08Z"/>
  <path class="cls-8" d="M58.22,81.57c-.05.16.05.37,0,.54-.07.26-.45.59-.54,1.08-6.57-1.67-6.32-2.63.54-1.62Z"/>
  <path class="cls-10" d="M40.98,102.04v.54c-.21.02-1.24,1.46-1.08-.26-.04-.57.82-.15,1.08-.28Z"/>
  <path class="cls-13" d="M48.52,85.88c-.05.34.07.75,0,1.08l-1.08.54c-.29-.48-.48-1.06-.54-1.62-.02-.17-.01-.37,0-.54.72-.21,1.19.4,1.62.54Z"/>
  <path class="cls-2" d="M49.06,82.65l-1.08.54c.11-.1-.12-1.03,0-1.08.59-.21,1.02.56,1.07.54Z"/>
  <path class="cls-10" d="M47.99,88.04c-.17-.17-.42-.33-.54-.54l1.08-.54c-.16.77-.53,1.02-.54,1.08Z"/>
  <path class="cls-6" d="M148.17,67.03c.66.24,1.18.86,2.15.54.02.36-.03.72,0,1.08.12,1.36.67,3.16.54,4.31-.11.99-.8,3.03-1.08,4.31-.02.09-1.69.82-1.07,1.61.24.31,4.71.68,5.38,2.16-15.67-.96-4.35-2.47-4.88-8.28-.07-.72-2.07-.81-1.58-1.41.26-.32,1.49.79,1.64-.83.21-2.33-2.87-3.05-4.33-4.03,1.42.1,1.63-.05,3.23.54Z"/>
  <path class="cls-8" d="M155.18,81.03c.3,1.34-.56,2.56-.54,2.69h-.54c-.16-.71.21-2.23,0-2.69.36.02.72-.01,1.08,0Z"/>
  <path class="cls-13" d="M139.02,65.41c.28.26,1.81-.66.54,1.08h-1.62c.21-.37-.52-1.41,1.08-1.08Z"/>
  <path class="cls-2" d="M153.02,73.49c.12,1.5.49,2.57,2.15,2.15.42,1,3.73,3.36,3.81,3.61.23.82-.71,2.43-.57,3.39-2.09-.31-.99,2.66-2.15,3.77-.38-.38-1.58-.46-1.62-.54-.17-.34.1-1.56,0-2.15-.02-.14.84-1.36.54-2.69-.13-.6-3.97-4.32-5.39-3.77.28-1.28.96-3.32,1.08-4.31.72.18,1.44.36,2.15.54Z"/>
  <path class="cls-1" d="M114.78,60.56c.24.33.97.78,1.08,1.08.04.11.02.41,0,.54-.48,2.51-8.25.76-1.08-1.62Z"/>
  <path class="cls-10" d="M48.52,112.27h-.54c-.19-.8-.96-1.55-1.08-2.69-.14-1.41-.22-3.33,1.08-4.31,0,2.38-.06,4.67.54,7Z"/>
  <path class="cls-10" d="M52.83,112.81c.08.01.82-.84,1.61-.54.08.03-.05,1.06,0,1.07l-1.62-.54Z"/>
  <path class="cls-6" d="M159.49,58.95c.07,1.18,1.03,2.71,1.08,3.23.07.81.51,1.38.54,1.62.12,1.01-.18,2.29,0,3.23s-.2,2.31,0,3.23c.8,3.71,2.96,6.07,3.23,9.7-1.17-.88-2.56-1.84-3.77-2.69,2.1-2.65,0-2.22-.54-3.77-3.14-8.93-5.66-8.06-1.62,0-.59.21-.59.53-.54,1.08-2.28-1.43-2.34-.45-2.69-.54-.72-.18-1.44-.36-2.15-.54-.18-2.15-.39-2.52,1.61-1.62.39-1.66-.75-.84-1.07-1.08v-.54c1.62-1.31.27-6.62.54-7,.52-.74,1.43,2.24,1.07-.54-.08-.6-.37-2.23-.54-2.69,4.14,3.73,2.58-4.33,4.85-1.08Z"/>
  <path class="cls-8" d="M161.1,70.26c3.43,3.97,4.91,8,10.77,9.16-.3,1.87,0,2.08,1.62,2.69-3.68.27-6.4-3.45-6.46,0-.9-.7-1.79-1.47-2.69-2.15-.27-3.62-2.44-5.98-3.23-9.7Z"/>
  <path class="cls-2" d="M174.03,83.73c1.06,2.4,5.34,2.9,7.54,3.77l-1.62,1.62c-3.77.02-9.25-.7-10.77-4.85.49.03,3.32-.59,4.85-.54Z"/>
  <path class="cls-8" d="M160.02,73.49c.55,1.55,2.64,1.12.54,3.77-1.67-1.19-2.53-2.59-2.69-2.69-.05-.54-.05-.87.54-1.08.37-.13,1.14.09,1.62,0Z"/>
  <path class="cls-10" d="M183.19,88.04c.48,1.67-1.74,1.07-3.23,1.08l1.62-1.62c.47.19.97.26,1.62.54Z"/>
  <path class="cls-8" d="M153.56,70.8c.32.23,1.47-.58,1.07,1.08-2-.9-1.79-.54-1.61,1.62.72.18,1.44.36,2.15.54.09.46-.14,1.29,0,1.62-1.66.42-2.03-.65-2.15-2.15-.72-.18-1.44-.36-2.15-.54.13-1.15-.42-2.95-.54-4.31.81,1.03,2.44,1.57,3.23,2.15Z"/>
  <path class="cls-8" d="M184.26,81.03c.53-.14,6.61-1.75,5.93-.54-3.97,5.24-4.08,3.04-9.7,3.23-.62-2.05,2.19-2.27,3.77-2.69Z"/>
  <path class="cls-2" d="M191.8,76.72c.82,2.86-1.16,3.17-1.62,3.77.69-1.21-5.39.4-5.93.54,1.22-2.41,5.27-3.36,7.54-4.31Z"/>
  <path class="cls-10" d="M161.1,67.03c3.19.35,6.28,5.39,8.65,6.7,2.82,1.56,8.59,2.81,11.82,3.53-.11.18.07.76,0,1.08-.52.21-.88.55-1.08,1.08-.17.04-.36-.03-.54,0-.05,0-.49-.05-1.08,0-.7.06-1.45.02-2.15,0-1.45-.05-3.59.25-4.85,0-5.86-1.16-7.35-5.18-10.77-9.16-.2-.92.18-2.28,0-3.23Z"/>
  <path class="cls-2" d="M176.72,79.42l-.54,2.15c-.64.17-2.1.5-2.69.54-1.62-.62-1.91-.82-1.62-2.69,1.26.25,3.39-.05,4.85,0Z"/>
  <path class="cls-2" d="M183.19,73.49c.79.03,3.65-.14,3.77,0,.2.26-.83,2.47-.54,3.23-.26-.01-.74-.46-1.08-.54.3-2.1-.3-1.65-2.15-1.62-.02-.27-.44-.74-.54-1.08.18,0,.36,0,.54,0Z"/>
  <path class="cls-2" d="M184.8,76.19c0,1.85-1.26,1.6-2.15,2.15-.33.07-.84-.1-1.08,0,.07-.32-.11-.89,0-1.08.17-.29,1.24-.6,1.62-1.62.49.32,1.07.38,1.62.54Z"/>
  <path class="cls-8" d="M178.88,79.42l-.54,1.08c-.67.28-.87.74-2.15,1.08l.54-2.15c.7.02,1.46.06,2.15,0Z"/>
  <path class="cls-10" d="M183.19,74.57c1.86-.03,2.45-.48,2.15,1.62-.17-.04-.37.05-.54,0-.55-.16-1.12-.21-1.62-.54.07-.18.02-.78,0-1.08Z"/>
  <path class="cls-2" d="M179.95,79.42c.37,1.76-.97.81-1.62,1.08l.54-1.08c.59-.05,1.02,0,1.08,0Z"/>
  <path class="cls-8" d="M182.65,78.34c-1,.61-.33.66-2.15,1.08.2-.53.55-.87,1.08-1.08.24-.1.75.07,1.08,0Z"/>
  <path class="cls-6" d="M176.72,66.49c4.22-.14,3.96,2.95,5.36,4.05.98.77,3.09-.63,2.72,1.34-.75.4-1.88.27-1.62,1.62-.18,0-.36,0-.54,0-2.68-.06-4.22.43-7,0,1.73-.71,1.26-.23,2.15-1.62.29-.45,1.02-.28,1.08-1.62.02-.58-.53-.5-.54-.54-.32-1.49.85-2.16-1.08-2.15-.36,0-.72,0-1.08,0v-.54c.15-.04.39-.53.54-.54Z"/>
  <path class="cls-10" d="M171.87,55.72c2.44-1.63,2,3.06,2.16,3.23.37.42,4.37-3.33,5.38,3.23-1.5-1.37-5.56-.94-5.92-1.08-.11-.04.1-1.56,0-1.62-.38-.2-1.93.78-2.15.54-.4-.45.54-3.37.53-4.31Z"/>
  <path class="cls-10" d="M179.42,64.87v1.08c-1.54.43-1.71-1.43,0-1.08Z"/>
  <path class="cls-13" d="M163.8,63.26c.34,2.55,1.44,2.57,2.69,3.77,1.35,1.3,3.59,3.82,5.39,4.31,2.12,1.71.68,1.68,3.77,2.15,2.78.43,4.33-.06,7,0,.1.34.52.8.54,1.08.02.29.07.89,0,1.08-.38,1.02-1.45,1.33-1.62,1.62-3.22-.73-8.99-1.97-11.82-3.53-2.37-1.31-5.46-6.35-8.65-6.7-.18-.94.12-2.22,0-3.23.65-.4,2.27-.29,2.69-.54Z"/>
  <path class="cls-6" d="M163.8,63.26c1.97-1.13,7.38-6.97,6.46,0-.89.11-1.32,1.45-1.62,1.62-1.46.83-.85.87-1.08,1.08-.16.15-1.44-.27-1.08,1.08-1.26-1.2-2.35-1.22-2.69-3.77Z"/>
  <path class="cls-10" d="M169.72,55.72c-1.23,3.73-1.9.11-2.43-.02-1.71-.42-1.72,2.58-4.03,1.64,1.06-5.45,1.79-5.17,6.46-1.62Z"/>
  <path class="cls-8" d="M170.26,63.26c1.34-.17,7.15.63,6.46,3.23-.15,0-.39.5-.54.54-.19.04-.42-.06-.54,0-1.56-3.06-2.9-1.83-5.39-1.62-.35.03-.72-.02-1.08,0,0-.2-.22-.64-.54-.54.3-.17.72-1.51,1.62-1.62Z"/>
  <path class="cls-8" d="M153.02,56.79c.16.37.38.71.54,1.08-.54,0-1.08,0-1.62,0,.79-1.51.54-.59,1.08-1.08Z"/>
  <path class="cls-8" d="M160.02,54.1c-.52,1.6-.65,3.17-.54,4.85-2.27-3.26-.71,4.81-4.85,1.08-.2-.54-.75-1.39-1.08-2.15,2.32,0,3.57.6,2.15-2.15.05-.02-.19-.95.34-1.12.21-.07,2.64.55,3.97-.5Z"/>
  <polygon class="cls-8" points="82.19 161.83 82.46 162.1 82.19 162.37 82.19 161.83"/>
  <polygon class="cls-8" points="82.73 163.45 83 163.72 82.73 163.98 82.73 163.45"/>
  <path class="cls-1" d="M57.64,88.08c1.66,2.13-2.09,1.31-2.6,1.66-.28.19-3.96,5.92-2.75-.08l-2.15,1.61c-1.9-4.62,6.52-4.44,7.49-3.18Z"/>
  <path class="cls-2" d="M58.76,85.34l-.54-1.08c.93.45.34.74.54,1.08Z"/>
  <path class="cls-13" d="M149.79,77.26c1.42-.54,5.25,3.17,5.39,3.77-.36-.01-.72.02-1.08,0-.68-1.48-5.14-1.85-5.38-2.16-.61-.79,1.05-1.51,1.07-1.61Z"/>
  <path class="cls-10" d="M160.02,73.49c-.48.09-1.25-.13-1.62,0-4.05-8.06-1.52-8.93,1.62,0Z"/>
  <path class="cls-1" d="M168.64,64.87c.31-.1.55.34.54.54-.1,2.81,1.41,2.06,1.08,0,2.49-.22,3.82-1.44,5.39,1.62-2.12,1.2-1.27,2.29.54,1.08h.54c-.02,1.12.35,2.85,1.08,3.77-.9,1.38-.43.91-2.15,1.62-3.09-.48-1.65-.44-3.77-2.15-1.35-1.09-3.84-3.57-4.31-5.39.23-.21-.38-.24,1.08-1.08ZM173.49,69.72c.9-.76-1.86-2.3-2.69-1.61-.9.76,1.86,2.3,2.69,1.61Z"/>
  <path class="cls-13" d="M177.26,67.57c1.92,0,.75.66,1.08,2.15l.54.54c-.06,1.33-.79,1.17-1.08,1.62-.72-.92-1.1-2.65-1.08-3.77,0-.09.43-.34.54-.54Z"/>
  <path class="cls-13" d="M175.65,67.03c.11-.06.35.04.54,0v1.08c-1.81,1.21-2.65.12-.54-1.08Z"/>
  <path class="cls-8" d="M177.26,67.57c-.1.2-.54.45-.54.54h-.54v-.54c.36,0,.72,0,1.08,0Z"/>
  <path class="cls-8" d="M178.88,70.26l-.54-.54s.56-.04.54.54Z"/>
  <path class="cls-8" d="M167.57,65.95c.47,1.81,2.96,4.3,4.31,5.39-1.79-.49-4.03-3.01-5.39-4.31-.36-1.35.92-.93,1.08-1.08Z"/>
  <path class="cls-10" d="M170.26,65.41c.33,2.06-1.18,2.81-1.08,0,.36-.02.72.03,1.08,0Z"/>
  <path class="cls-13" d="M173.49,69.72c-.82.69-3.59-.85-2.69-1.61.82-.69,3.59.85,2.69,1.61Z"/>
</svg>